<svg xmlns="http://www.w3.org/2000/svg" xmlns:xlink="http://www.w3.org/1999/xlink" width="700" zoomAndPan="magnify" viewBox="0 0 525 225" height="300" preserveAspectRatio="xMidYMid meet" version="1.0"><defs><g/><clipPath id="b0918e61fc"><path d="M 101 199 L 113 199 L 113 204.679688 L 101 204.679688 Z M 101 199 " clip-rule="nonzero"/></clipPath><clipPath id="4da7e3d820"><path d="M 85 199 L 98 199 L 98 204.679688 L 85 204.679688 Z M 85 199 " clip-rule="nonzero"/></clipPath><clipPath id="2740281c86"><path d="M 13.144531 98 L 20 98 L 20 119 L 13.144531 119 Z M 13.144531 98 " clip-rule="nonzero"/></clipPath><clipPath id="c9232f3fa8"><rect x="0" width="315" y="0" height="88"/></clipPath><clipPath id="151c583f1b"><rect x="0" width="323" y="0" height="28"/></clipPath></defs><path fill="#288ec8" d="M 133.332031 171.9375 L 102.828125 171.9375 C 102.363281 171.9375 101.988281 171.5625 101.988281 171.101562 L 101.988281 150.484375 C 101.988281 150.023438 102.363281 149.644531 102.828125 149.644531 L 139.324219 149.644531 C 139.871094 149.644531 140.289062 150.148438 140.164062 150.695312 C 138.652344 158.195312 136.644531 165.152344 134.128906 171.476562 C 134.003906 171.8125 133.667969 172.023438 133.332031 172.023438 Z M 133.332031 171.9375 " fill-opacity="1" fill-rule="nonzero"/><path fill="#288ec8" d="M 145.945312 149.605469 L 177.164062 149.605469 C 177.75 149.605469 178.167969 150.191406 177.960938 150.777344 C 175.109375 158.277344 171.253906 165.316406 166.476562 171.605469 C 166.3125 171.8125 166.058594 171.9375 165.765625 171.9375 L 140.164062 171.9375 C 139.574219 171.9375 139.15625 171.351562 139.367188 170.808594 C 141.714844 164.523438 143.640625 157.609375 145.066406 150.316406 C 145.148438 149.898438 145.484375 149.605469 145.902344 149.605469 Z M 145.945312 149.605469 " fill-opacity="1" fill-rule="nonzero"/><path fill="#2fa2e4" d="M 68.003906 176.839844 L 96.246094 176.839844 C 96.707031 176.839844 97.085938 177.21875 97.085938 177.679688 L 97.085938 193.644531 C 97.085938 194.105469 96.707031 194.484375 96.246094 194.484375 C 90.128906 194.484375 84.136719 194.566406 78.773438 194.566406 C 78.523438 194.566406 78.3125 194.484375 78.144531 194.316406 C 74.078125 190 70.390625 184.511719 67.25 178.015625 C 66.957031 177.429688 67.375 176.757812 68.046875 176.757812 Z M 68.003906 176.839844 " fill-opacity="1" fill-rule="nonzero"/><path fill="#288ec8" d="M 21.867188 149.605469 L 52.457031 149.605469 C 52.875 149.605469 53.210938 149.898438 53.296875 150.316406 C 54.71875 157.648438 56.648438 164.523438 58.996094 170.808594 C 59.203125 171.351562 58.785156 171.9375 58.199219 171.9375 L 33.222656 171.9375 C 32.929688 171.9375 32.679688 171.8125 32.511719 171.605469 C 27.734375 165.277344 23.878906 158.277344 21.03125 150.777344 C 20.820312 150.234375 21.238281 149.605469 21.824219 149.605469 Z M 21.867188 149.605469 " fill-opacity="1" fill-rule="nonzero"/><path fill="#288ec8" d="M 59.121094 149.605469 L 96.246094 149.605469 C 96.707031 149.605469 97.085938 149.980469 97.085938 150.441406 L 97.085938 171.058594 C 97.085938 171.519531 96.707031 171.898438 96.246094 171.898438 L 65.113281 171.898438 C 64.777344 171.898438 64.441406 171.6875 64.316406 171.351562 C 61.84375 165.066406 59.789062 158.070312 58.28125 150.566406 C 58.15625 150.023438 58.574219 149.519531 59.121094 149.519531 Z M 59.121094 149.605469 " fill-opacity="1" fill-rule="nonzero"/><g clip-path="url(#b0918e61fc)"><path fill="#38b6ff" d="M 102.828125 199.386719 L 111.792969 199.386719 C 112.671875 199.386719 112.96875 200.515625 112.253906 200.976562 C 109.28125 202.738281 106.179688 203.910156 102.992188 204.457031 C 102.492188 204.539062 101.988281 204.121094 101.988281 203.617188 L 101.988281 200.308594 C 101.988281 199.847656 102.363281 199.46875 102.867188 199.46875 Z M 102.828125 199.386719 " fill-opacity="1" fill-rule="nonzero"/></g><g clip-path="url(#4da7e3d820)"><path fill="#38b6ff" d="M 97.085938 200.265625 L 97.085938 203.660156 C 97.085938 204.164062 96.625 204.582031 96.121094 204.539062 C 92.769531 204.078125 89.5 202.90625 86.359375 201.0625 C 85.605469 200.644531 85.9375 199.46875 86.820312 199.46875 C 89.960938 199.46875 93.144531 199.46875 96.246094 199.429688 C 96.707031 199.429688 97.085938 199.804688 97.085938 200.265625 Z M 97.085938 200.265625 " fill-opacity="1" fill-rule="nonzero"/></g><path fill="#38b6ff" d="M 121.683594 199.554688 C 121.851562 199.386719 122.058594 199.300781 122.269531 199.300781 L 129.855469 199.300781 C 125.875 200.851562 121.726562 202.109375 117.492188 203.03125 C 118.917969 201.984375 120.300781 200.8125 121.683594 199.511719 Z M 121.683594 199.554688 " fill-opacity="1" fill-rule="nonzero"/><path fill="#2fa2e4" d="M 119.839844 194.441406 C 115.1875 194.441406 109.574219 194.441406 102.828125 194.484375 C 102.363281 194.484375 101.945312 194.105469 101.945312 193.644531 L 101.945312 177.679688 C 101.945312 177.21875 102.324219 176.839844 102.785156 176.839844 L 130.398438 176.839844 C 131.027344 176.839844 131.445312 177.511719 131.195312 178.097656 C 128.09375 184.46875 124.492188 189.914062 120.46875 194.191406 C 120.300781 194.359375 120.089844 194.441406 119.839844 194.484375 Z M 119.839844 194.441406 " fill-opacity="1" fill-rule="nonzero"/><path fill="#2fa2e4" d="M 38.796875 176.839844 L 60.921875 176.839844 C 61.257812 176.839844 61.550781 177.050781 61.675781 177.34375 C 64.398438 183.378906 67.585938 188.785156 71.105469 193.308594 C 71.523438 193.855469 71.148438 194.691406 70.433594 194.691406 C 65.40625 194.691406 61.550781 194.777344 59.539062 194.777344 C 59.371094 194.777344 59.246094 194.777344 59.121094 194.652344 C 51.285156 190.335938 44.203125 184.761719 38.125 178.265625 C 37.625 177.722656 38 176.800781 38.753906 176.800781 Z M 38.796875 176.839844 " fill-opacity="1" fill-rule="nonzero"/><path fill="#38b6ff" d="M 76.34375 199.511719 C 76.550781 199.511719 76.761719 199.59375 76.929688 199.761719 C 78.144531 200.894531 79.359375 201.941406 80.617188 202.90625 C 76.886719 202.027344 73.242188 200.9375 69.722656 199.59375 C 71.902344 199.59375 74.121094 199.59375 76.34375 199.554688 Z M 76.34375 199.511719 " fill-opacity="1" fill-rule="nonzero"/><path fill="#2fa2e4" d="M 139.492188 194.734375 C 137.355469 194.566406 133.917969 194.484375 128.179688 194.441406 C 127.464844 194.441406 127.089844 193.644531 127.507812 193.058594 C 130.945312 188.574219 134.042969 183.253906 136.769531 177.34375 C 136.894531 177.050781 137.1875 176.839844 137.523438 176.839844 L 160.277344 176.839844 C 161.03125 176.839844 161.40625 177.722656 160.90625 178.308594 C 154.871094 184.804688 147.832031 190.335938 139.996094 194.652344 C 139.828125 194.734375 139.660156 194.777344 139.492188 194.777344 Z M 139.492188 194.734375 " fill-opacity="1" fill-rule="nonzero"/><path fill="#d9d9d9" d="M 96.246094 123.625 L 56.355469 123.625 C 55.851562 123.625 55.476562 124 55.476562 124.503906 C 55.601562 131.25 56.1875 137.746094 57.109375 143.988281 C 57.109375 143.988281 57.152344 143.988281 57.152344 143.988281 C 57.191406 144.40625 57.570312 144.703125 57.988281 144.703125 L 96.246094 144.703125 C 96.707031 144.703125 97.085938 144.324219 97.085938 143.863281 L 97.085938 124.460938 C 97.085938 124 96.707031 123.625 96.246094 123.625 Z M 96.246094 123.625 " fill-opacity="1" fill-rule="nonzero"/><path fill="#d9d9d9" d="M 142.046875 123.625 L 102.785156 123.625 C 102.324219 123.625 101.945312 124 101.945312 124.460938 L 101.945312 143.863281 L 101.988281 143.863281 C 101.988281 144.324219 102.363281 144.703125 102.828125 144.703125 L 140.457031 144.703125 C 140.875 144.703125 141.210938 144.40625 141.292969 143.988281 C 142.214844 137.746094 142.761719 131.25 142.929688 124.503906 C 142.929688 124.042969 142.550781 123.625 142.046875 123.625 Z M 142.046875 123.625 " fill-opacity="1" fill-rule="nonzero"/><path fill="#d9d9d9" d="M 50.570312 124.460938 C 50.570312 124 50.195312 123.625 49.734375 123.625 L 16.585938 123.625 C 16.085938 123.625 15.707031 124 15.707031 124.503906 C 16 131.25 17.046875 137.828125 18.851562 144.074219 C 18.976562 144.449219 19.3125 144.703125 19.6875 144.703125 L 51.324219 144.703125 C 51.828125 144.703125 52.246094 144.242188 52.164062 143.738281 C 51.242188 137.578125 50.699219 131.125 50.570312 124.460938 Z M 50.570312 124.460938 " fill-opacity="1" fill-rule="nonzero"/><path fill="#d9d9d9" d="M 182.445312 123.664062 L 148.667969 123.664062 C 148.207031 123.664062 147.832031 124.042969 147.832031 124.503906 C 147.707031 131.125 147.160156 137.578125 146.238281 143.78125 C 146.15625 144.28125 146.574219 144.742188 147.078125 144.742188 L 179.34375 144.742188 C 179.71875 144.742188 180.054688 144.492188 180.179688 144.113281 C 181.984375 137.871094 183.074219 131.292969 183.324219 124.546875 C 183.324219 124.085938 182.945312 123.664062 182.445312 123.664062 Z M 182.445312 123.664062 " fill-opacity="1" fill-rule="nonzero"/><path fill="#d9d9d9" d="M 108.671875 33.746094 C 109.628906 32.632812 113.320312 29.84375 113.789062 28.777344 C 114.125 28.023438 113.824219 27.121094 114.085938 26.28125 C 114.855469 23.757812 119.207031 23.707031 119.78125 26.210938 C 120.535156 29.511719 118.40625 30.261719 115.640625 30.625 L 103.871094 42.441406 C 103.179688 46.390625 104.234375 51.175781 103.722656 55.023438 C 103.664062 55.457031 103.640625 55.816406 103.257812 56.113281 L 92.933594 66.273438 L 76.085938 66.5 L 66 76.585938 L 66 96.75 C 69.765625 99.253906 66.003906 104.769531 62.566406 101.738281 C 60.25 99.699219 61.992188 98.113281 63.351562 96.28125 L 63.519531 75.34375 L 74.847656 64.015625 L 91.691406 63.789062 L 100.617188 55.023438 L 100.972656 41.722656 L 105.867188 36.375 C 106.015625 35.609375 106.039062 29.019531 105.882812 28.375 C 105.757812 27.886719 103.710938 27.632812 104.390625 24.65625 C 105.367188 20.378906 112.625 23.511719 109.609375 27.617188 C 109.058594 28.371094 108.667969 27.683594 108.667969 28.933594 L 108.667969 33.742188 Z M 108.671875 33.746094 " fill-opacity="1" fill-rule="nonzero"/><path fill="#d9d9d9" d="M 71.578125 118.722656 C 72.359375 118.722656 72.996094 118.09375 72.996094 117.308594 C 73.039062 105.019531 72.679688 92.652344 73.269531 80.441406 L 79.039062 75.03125 L 106.195312 74.871094 C 111.015625 69.96875 115.800781 65.015625 120.796875 60.300781 C 121.101562 60.019531 121.351562 59.320312 121.457031 59.261719 C 122.183594 58.855469 123.699219 59.59375 124.980469 58.28125 C 126.015625 57.222656 126.023438 55.09375 125.023438 54.015625 C 123.914062 52.820312 121.8125 52.828125 120.609375 53.914062 C 119.457031 54.953125 120.058594 56.003906 119.839844 57.175781 C 119.578125 58.574219 114.316406 62.128906 113.5 63.863281 L 104.875 72.316406 L 77.796875 72.550781 L 70.480469 79.511719 C 69.789062 92.011719 70.390625 104.707031 70.171875 117.28125 C 70.15625 118.070312 70.789062 118.722656 71.582031 118.722656 Z M 71.578125 118.722656 " fill-opacity="1" fill-rule="nonzero"/><path fill="#d9d9d9" d="M 78.582031 106.519531 L 78.523438 117.484375 C 78.523438 118.167969 79.070312 118.722656 79.753906 118.722656 L 79.804688 118.722656 C 80.484375 118.722656 81.035156 118.167969 81.035156 117.488281 L 81.027344 106.515625 C 81.011719 105.554688 81.90625 105.226562 82.347656 104.417969 C 83.632812 102.050781 81.675781 99.46875 79.109375 99.914062 C 77.238281 100.238281 76.234375 102.425781 76.9375 104.121094 C 77.3125 105.019531 78.636719 105.40625 78.582031 106.511719 Z M 78.582031 106.519531 " fill-opacity="1" fill-rule="nonzero"/><path fill="#d9d9d9" d="M 179.746094 97.839844 L 179.746094 117.492188 C 179.746094 118.171875 180.292969 118.722656 180.972656 118.722656 L 181.359375 118.722656 C 182.03125 118.722656 182.582031 118.175781 182.585938 117.496094 L 182.695312 97.6875 C 188.089844 92.671875 177.734375 89.378906 178.167969 95.351562 C 178.28125 96.925781 179.597656 97.339844 179.742188 97.839844 Z M 179.746094 97.839844 " fill-opacity="1" fill-rule="nonzero"/><path fill="#d9d9d9" d="M 173.222656 105.917969 L 173.261719 117.496094 C 173.261719 118.175781 173.816406 118.722656 174.492188 118.722656 L 174.558594 118.722656 C 175.25 118.722656 175.804688 118.148438 175.785156 117.457031 C 175.625 112.488281 175.246094 106.09375 175.777344 105.199219 C 176.007812 104.808594 177.027344 104.792969 177.371094 103.199219 C 178.1875 99.433594 172.484375 98.070312 171.511719 101.710938 C 170.773438 104.472656 172.945312 104.480469 173.222656 105.914062 Z M 173.222656 105.917969 " fill-opacity="1" fill-rule="nonzero"/><path fill="#d9d9d9" d="M 145.917969 87.753906 L 141.578125 92.261719 C 141.980469 95.460938 141.007812 100.105469 141.578125 103.113281 C 141.839844 104.480469 144.375 105.003906 143.050781 107.703125 C 141.558594 110.742188 137.1875 109.394531 137.214844 106.214844 C 137.230469 104.574219 138.871094 104.226562 139.082031 103.113281 C 139.738281 99.667969 138.554688 94.417969 139.152344 90.765625 L 148.703125 80.765625 L 148.726562 49.40625 C 148.726562 48.285156 147.476562 47.984375 147.222656 46.871094 C 146.175781 42.25 153.085938 41.660156 153.085938 46.007812 C 153.085938 47.910156 151.679688 48 151.488281 49.40625 L 151.496094 81.695312 C 151.242188 83.03125 148.609375 84.042969 148.382812 85.722656 C 148.25 86.714844 148.203125 92.660156 148.394531 93.4375 C 148.503906 93.902344 150.382812 94.042969 149.933594 96.894531 C 149.472656 99.835938 144.988281 100.027344 144.203125 97.074219 C 143.492188 94.417969 145.917969 93.597656 145.917969 93.183594 Z M 145.917969 87.753906 " fill-opacity="1" fill-rule="nonzero"/><path fill="#d9d9d9" d="M 56.984375 117.414062 L 56.902344 73.074219 L 70.8125 58.738281 C 71.371094 58.484375 74.335938 58.449219 75.007812 58.570312 C 75.730469 58.707031 75.65625 59.265625 75.875 59.402344 C 81.75 63.054688 83.222656 52.863281 76.933594 54.320312 C 75.761719 54.589844 75.65625 55.902344 74.679688 56.089844 C 73.285156 56.359375 70.777344 55.707031 69.570312 56.253906 L 54.421875 71.519531 L 54.382812 117.414062 C 54.382812 118.132812 54.964844 118.714844 55.683594 118.714844 C 56.40625 118.714844 56.988281 118.128906 56.988281 117.410156 Z M 56.984375 117.414062 " fill-opacity="1" fill-rule="nonzero"/><path fill="#d9d9d9" d="M 89.761719 118.722656 C 90.445312 118.722656 90.992188 118.167969 90.992188 117.484375 L 90.964844 102.167969 C 90.925781 101.109375 92.03125 100.808594 92.460938 99.945312 C 93.625 97.59375 91.4375 95.039062 89.03125 95.574219 C 87.910156 95.824219 86.707031 97.355469 86.65625 98.488281 C 86.570312 100.402344 88.320312 100.71875 88.511719 102.171875 L 88.527344 117.492188 C 88.527344 118.171875 89.082031 118.726562 89.761719 118.726562 Z M 89.761719 118.722656 " fill-opacity="1" fill-rule="nonzero"/><path fill="#d9d9d9" d="M 122.011719 112.925781 C 121.640625 112.6875 121.414062 112.277344 121.414062 111.835938 L 121.414062 99.335938 C 121.371094 98.828125 121.160156 98.351562 120.796875 97.988281 L 112.363281 89.449219 C 111.980469 89.0625 111.457031 88.84375 110.914062 88.839844 L 83.042969 88.695312 C 81.382812 88.472656 81.238281 86.332031 78.78125 86.878906 C 76.285156 87.429688 75.527344 91.132812 77.964844 92.53125 C 80.617188 94.050781 81.421875 91.363281 83.042969 91.148438 L 109.667969 91.320312 C 110.214844 91.320312 110.734375 91.542969 111.117188 91.933594 L 117.945312 98.855469 C 118.320312 99.238281 118.546875 99.75 118.566406 100.292969 L 118.808594 112.078125 C 118.816406 112.46875 118.65625 112.855469 118.347656 113.097656 C 117.503906 113.761719 117.011719 114.851562 117.183594 116.042969 C 117.382812 117.433594 118.542969 118.542969 119.941406 118.699219 C 121.84375 118.910156 123.445312 117.425781 123.445312 115.570312 C 123.445312 114.460938 122.867188 113.484375 122 112.925781 Z M 122.011719 112.925781 " fill-opacity="1" fill-rule="nonzero"/><path fill="#d9d9d9" d="M 123.113281 93.003906 C 123.441406 93.191406 128.101562 97.84375 128.640625 98.550781 C 128.671875 98.59375 128.683594 98.644531 128.683594 98.695312 L 129.042969 112.699219 C 128.648438 114.445312 127.015625 114.351562 127.300781 116.742188 C 127.40625 117.636719 127.84375 118.292969 128.429688 118.722656 L 132.101562 118.722656 C 132.90625 118.125 133.417969 117.078125 133.175781 115.554688 C 132.964844 114.207031 131.726562 114.003906 131.625 112.757812 L 131.648438 89.925781 C 131.648438 89.566406 131.769531 89.226562 131.988281 88.945312 C 132.835938 87.855469 135.015625 85.589844 135.367188 85.433594 C 136.472656 84.933594 137.570312 85.84375 138.941406 84.972656 C 142.046875 83 139.492188 78.203125 136.0625 79.613281 C 134.261719 80.355469 134.539062 82.0625 133.824219 83.265625 C 133.292969 84.144531 130.394531 86.480469 129.28125 87.652344 C 129 87.945312 128.847656 88.335938 128.847656 88.742188 L 128.847656 94.308594 C 128.847656 94.53125 128.585938 94.644531 128.421875 94.488281 L 124.976562 91.191406 C 125.996094 83.214844 115.492188 88.011719 119.988281 92.117188 C 121.121094 93.148438 122.496094 92.660156 123.117188 93.007812 L 123.113281 93.007812 Z M 123.113281 93.003906 " fill-opacity="1" fill-rule="nonzero"/><path fill="#d9d9d9" d="M 63.359375 114.90625 L 63.332031 117.464844 C 63.324219 118.15625 63.886719 118.722656 64.578125 118.722656 C 65.257812 118.722656 65.8125 118.171875 65.820312 117.488281 L 65.847656 114.917969 C 66.023438 113.996094 67.640625 113.148438 67.667969 111.8125 C 67.703125 110.261719 66.089844 108.550781 64.53125 108.613281 C 62.109375 108.710938 60.679688 111.367188 62.046875 113.429688 C 62.476562 114.078125 63.226562 114.199219 63.363281 114.902344 L 63.359375 114.902344 Z M 63.359375 114.90625 " fill-opacity="1" fill-rule="nonzero"/><path fill="#d9d9d9" d="M 164.289062 98.21875 L 164.253906 117.492188 C 164.253906 118.171875 164.800781 118.726562 165.480469 118.726562 C 166.160156 118.726562 166.707031 118.175781 166.707031 117.5 L 166.773438 99.460938 L 179.273438 86.824219 C 179.765625 85.734375 179.207031 83.851562 179.4375 82.644531 C 179.699219 81.285156 181.371094 81.191406 180.964844 78.621094 C 180.726562 77.101562 178.910156 76.0625 177.492188 76.335938 C 175.390625 76.738281 174.484375 78.941406 175.316406 80.855469 C 175.675781 81.6875 176.714844 81.859375 176.894531 82.382812 C 177.078125 82.921875 177.035156 85.039062 176.785156 85.582031 L 164.285156 98.222656 L 164.289062 98.222656 Z M 164.289062 98.21875 " fill-opacity="1" fill-rule="nonzero"/><path fill="#d9d9d9" d="M 60.734375 42 C 60.675781 42.105469 60.128906 42.148438 60.230469 42.582031 L 60.1875 57.742188 L 49.859375 68.210938 L 49.691406 78.847656 C 51.582031 79.730469 51.910156 82.539062 50.304688 83.863281 C 46.851562 86.710938 42.96875 81.152344 46.910156 78.847656 L 46.96875 67.492188 L 57.394531 56.8125 L 57.460938 42.902344 C 57.3125 42.152344 55.894531 41.738281 55.65625 40.34375 C 55.046875 36.824219 59.925781 35.3125 61.421875 38.324219 C 62.273438 40.039062 61.480469 40.636719 60.734375 42.003906 Z M 60.734375 42 " fill-opacity="1" fill-rule="nonzero"/><path fill="#d9d9d9" d="M 80.214844 83.625 C 78.234375 81.382812 80.433594 77.679688 83.445312 78.675781 C 84.585938 79.054688 85.019531 80.242188 86.15625 80.324219 L 109.078125 80.246094 L 120.496094 68.988281 C 120.378906 67.175781 120.796875 65.253906 122.875 64.859375 C 126.0625 64.246094 127.984375 67.992188 125.597656 70.074219 C 124.4375 71.089844 123.296875 70.335938 122.15625 70.980469 L 110.3125 82.730469 L 86.152344 82.777344 C 84.714844 82.96875 84.371094 84.695312 82.4375 84.664062 C 81.847656 84.65625 80.570312 84.03125 80.210938 83.625 Z M 80.214844 83.625 " fill-opacity="1" fill-rule="nonzero"/><path fill="#d9d9d9" d="M 158.398438 59.882812 L 158.316406 95.371094 C 158.519531 96.914062 160.304688 97.074219 160.214844 99.078125 C 160.035156 103.046875 154.144531 102.871094 154.082031 99.027344 C 154.054688 97.121094 155.796875 96.574219 155.867188 95.988281 L 155.683594 59.820312 C 152.1875 57.707031 154.910156 52.597656 158.75 54.582031 C 160.761719 55.621094 160.613281 59.132812 158.390625 59.882812 Z M 158.398438 59.882812 " fill-opacity="1" fill-rule="nonzero"/><g clip-path="url(#2740281c86)"><path fill="#d9d9d9" d="M 14.960938 104.347656 L 14.960938 117.347656 C 14.960938 118.105469 15.574219 118.722656 16.335938 118.722656 C 17.09375 118.722656 17.710938 118.105469 17.710938 117.347656 L 17.710938 104.648438 C 17.519531 103.839844 18.363281 103.746094 18.542969 103.472656 C 21.875 98.417969 13.804688 96.207031 13.375 100.945312 C 13.148438 103.421875 14.839844 103.539062 14.960938 104.351562 Z M 14.960938 104.347656 " fill-opacity="1" fill-rule="nonzero"/></g><path fill="#d9d9d9" d="M 23.378906 117.019531 C 23.835938 117.464844 24.289062 117.90625 24.742188 118.355469 C 24.976562 118.589844 25.300781 118.722656 25.628906 118.722656 C 26.753906 118.722656 27.320312 117.363281 26.53125 116.566406 L 26.273438 116.304688 C 26.011719 115.730469 25.964844 110.429688 26.117188 109.640625 C 26.28125 108.789062 27.257812 108.460938 27.523438 107.632812 C 28.996094 103.0625 21.929688 101.996094 21.738281 106.210938 C 21.636719 108.429688 23.089844 108.484375 23.3125 109.640625 C 23.714844 111.742188 22.972656 114.796875 23.382812 117.019531 Z M 23.378906 117.019531 " fill-opacity="1" fill-rule="nonzero"/><path fill="#d9d9d9" d="M 109.183594 61.265625 C 108.277344 62.210938 105.832031 63.898438 105.238281 64.929688 C 104.550781 66.132812 105.042969 68.078125 103.097656 68.683594 C 99.988281 69.652344 97.578125 66.457031 99.519531 63.863281 C 100.816406 62.132812 102.816406 63.414062 103.554688 62.953125 C 104.027344 62.65625 109.871094 56.824219 110.058594 56.40625 L 110.355469 44.292969 C 110.746094 43.035156 113.417969 41.484375 113.796875 40.574219 C 114.082031 39.890625 113.300781 39.191406 114.394531 37.773438 C 117.460938 33.796875 122.492188 40 118.261719 42.265625 C 117.191406 42.839844 116.234375 42.253906 115.511719 42.59375 C 115.351562 42.664062 113.246094 44.777344 113.175781 44.9375 C 112.230469 47.019531 113.605469 54.449219 112.949219 57.125 C 111.648438 58.445312 110.457031 59.941406 109.179688 61.269531 Z M 109.183594 61.265625 " fill-opacity="1" fill-rule="nonzero"/><path fill="#d9d9d9" d="M 71.644531 27.609375 C 73.34375 27.222656 74.898438 27.972656 75.328125 29.695312 C 75.507812 30.421875 75.328125 31.242188 75.621094 31.886719 C 75.921875 32.570312 77.648438 33.507812 77.878906 34.285156 L 77.878906 45.640625 C 77.753906 46.058594 72.132812 51.726562 71.730469 51.90625 C 70.746094 52.351562 69.539062 51.832031 68.539062 52.132812 C 67.96875 52.300781 67.542969 53.203125 66.855469 53.546875 C 63.800781 55.074219 60.609375 50.824219 63.65625 48.484375 C 66.816406 46.054688 67.574219 50.347656 70.28125 49.519531 C 71.226562 49.230469 74.394531 45.277344 75.398438 44.398438 C 75.59375 43.75 75.59375 36.175781 75.398438 35.523438 C 75.316406 35.25 73.84375 33.714844 73.597656 33.601562 C 72.625 33.167969 71.589844 33.761719 70.503906 32.96875 C 68.558594 31.550781 69.367188 28.128906 71.648438 27.609375 Z M 71.644531 27.609375 " fill-opacity="1" fill-rule="nonzero"/><path fill="#d9d9d9" d="M 92.90625 31.332031 L 92.835938 53.453125 C 92.710938 54.425781 91.152344 55.074219 90.816406 55.796875 C 90.414062 56.671875 91.222656 57.535156 90.222656 58.910156 C 88.222656 61.65625 83.800781 59.644531 84.914062 56.078125 C 85.757812 53.355469 89.941406 55.164062 90.375 51.921875 C 91.164062 46.035156 89.742188 38.417969 90.375 32.335938 C 90.144531 30.601562 86.855469 29.570312 89.285156 26.625 C 92.136719 23.175781 97.28125 29.042969 92.90625 31.332031 Z M 92.90625 31.332031 " fill-opacity="1" fill-rule="nonzero"/><path fill="#d9d9d9" d="M 40.925781 48.707031 C 45.273438 47.761719 46.402344 54.285156 42.023438 54.792969 C 41.460938 54.859375 40.996094 54.433594 40.398438 54.6875 C 39.933594 54.886719 38.097656 56.988281 37.96875 57.5625 L 37.894531 73.949219 C 38.097656 74.992188 40.648438 75.636719 39.527344 78.367188 C 38.171875 81.667969 32.636719 80.269531 34.003906 75.945312 C 34.292969 75.035156 35.488281 74.691406 35.433594 73.652344 L 35.421875 56.261719 C 35.648438 55.070312 38.246094 53.648438 38.671875 52.683594 C 39.210938 51.457031 38.53125 49.230469 40.917969 48.710938 L 40.925781 48.710938 Z M 40.925781 48.707031 " fill-opacity="1" fill-rule="nonzero"/><path fill="#d9d9d9" d="M 164.472656 67.023438 C 164.394531 66.894531 163.757812 66.742188 163.453125 66.34375 C 160.988281 63.101562 165.8125 59.414062 168.21875 62.507812 C 170.414062 65.328125 167.292969 66.34375 167.027344 67.75 C 166.78125 69.042969 166.761719 82.746094 167.179688 83.414062 C 167.347656 83.675781 167.953125 83.859375 168.335938 84.429688 C 171.136719 88.65625 163.675781 91.074219 163.003906 86.96875 C 162.542969 84.148438 163.796875 84.6875 164.375 83.414062 C 164.714844 82.667969 164.886719 67.734375 164.472656 67.03125 Z M 164.472656 67.023438 " fill-opacity="1" fill-rule="nonzero"/><path fill="#d9d9d9" d="M 37.082031 105.863281 C 39.832031 103.269531 42.554688 100.671875 45.210938 97.988281 C 44.8125 95.542969 45.851562 93.441406 48.605469 93.632812 C 50.957031 93.796875 51.96875 96.59375 50.632812 98.46875 C 49.554688 99.980469 48.21875 99.175781 47.039062 99.84375 C 46.425781 100.1875 37.554688 109.082031 37.109375 109.773438 C 36.277344 111.050781 37.082031 112.457031 35.582031 113.523438 C 31.386719 116.511719 28.359375 108.667969 33.488281 107.984375 C 34.085938 107.90625 34.652344 108.277344 35.105469 108.097656 C 35.71875 107.851562 36.59375 106.328125 37.082031 105.867188 Z M 37.082031 105.863281 " fill-opacity="1" fill-rule="nonzero"/><path fill="#d9d9d9" d="M 84.960938 47.523438 C 88.320312 52.628906 80.449219 54.640625 79.816406 50.332031 C 79.480469 48.066406 80.683594 48.203125 81.195312 47.089844 C 81.476562 46.476562 81.5625 34.710938 81.351562 33.601562 C 81.117188 32.375 79.457031 32.304688 79.816406 29.894531 C 80.386719 26.050781 87.109375 26.765625 85.5625 31.59375 C 85.324219 32.339844 84.523438 32.671875 84.308594 33.132812 C 84.027344 33.746094 83.9375 45.503906 84.144531 46.636719 C 84.273438 47.347656 84.804688 47.277344 84.960938 47.519531 Z M 84.960938 47.523438 " fill-opacity="1" fill-rule="nonzero"/><path fill="#d9d9d9" d="M 134.015625 54.4375 C 131.90625 56.59375 127.695312 54.296875 129.082031 50.898438 C 129.953125 48.765625 131.949219 49.660156 133.1875 49.109375 C 133.335938 49.042969 135.441406 46.9375 135.511719 46.78125 C 136.0625 45.566406 135.347656 43.347656 135.738281 42.035156 C 135.976562 41.226562 137.917969 40.117188 138.296875 39.320312 C 138.660156 38.5625 138.480469 37.417969 139.1875 36.640625 C 141.519531 34.035156 145.785156 36.828125 144.117188 40.179688 C 142.65625 43.117188 139.625 40.363281 138.628906 42.757812 C 138.085938 44.0625 138.796875 46.171875 138.402344 47.496094 C 138.125 48.425781 135.347656 50.199219 134.890625 51.152344 C 134.523438 51.917969 135.234375 53.1875 134.011719 54.4375 Z M 134.015625 54.4375 " fill-opacity="1" fill-rule="nonzero"/><path fill="#d9d9d9" d="M 51.9375 49.332031 C 51.390625 50.257812 52.378906 55.25 51.710938 56.710938 C 51.308594 57.59375 48.691406 59.265625 48.308594 60.136719 C 47.816406 61.253906 48.609375 62.386719 47.378906 63.550781 C 43.421875 67.292969 39.609375 59.597656 44.425781 58.394531 C 45.214844 58.199219 45.820312 58.617188 46.28125 58.433594 C 46.492188 58.351562 48.941406 55.816406 49.015625 55.566406 L 49.265625 49.71875 C 43.289062 44.019531 54.203125 41.148438 53.671875 46.863281 C 53.503906 48.652344 52.230469 48.839844 51.941406 49.328125 Z M 51.9375 49.332031 " fill-opacity="1" fill-rule="nonzero"/><path fill="#d9d9d9" d="M 41.234375 86.261719 C 44.960938 85.4375 46.644531 90.757812 42.949219 92.042969 C 42.183594 92.3125 41.640625 92.042969 41.238281 92.164062 C 40.808594 92.292969 35.050781 97.984375 34.785156 98.4375 C 34.082031 99.664062 34.839844 101.019531 33.242188 102.167969 C 30.5 104.128906 27.042969 101.050781 28.769531 98.316406 C 30.25 95.972656 32.039062 97.253906 32.796875 96.78125 C 33.242188 96.503906 38.84375 90.945312 39.007812 90.535156 C 39.199219 90.054688 38.8125 89.628906 38.867188 89.175781 C 39.003906 87.988281 40.046875 86.523438 41.238281 86.257812 L 41.234375 86.257812 Z M 41.234375 86.261719 " fill-opacity="1" fill-rule="nonzero"/><path fill="#d9d9d9" d="M 142.878906 63.917969 C 142.710938 64.203125 142.699219 69.894531 142.820312 70.523438 C 142.984375 71.378906 143.964844 71.703125 144.222656 72.53125 C 145.65625 77.089844 139.035156 78.011719 138.476562 74.230469 C 138.121094 71.8125 139.777344 71.753906 140.011719 70.523438 C 140.203125 69.527344 140.171875 65.414062 140.042969 64.3125 C 139.960938 63.628906 138.929688 63.65625 138.605469 62.632812 C 136.964844 57.496094 145.199219 56.636719 144.34375 62.128906 C 144.109375 63.625 143.089844 63.558594 142.878906 63.917969 Z M 142.878906 63.917969 " fill-opacity="1" fill-rule="nonzero"/><path fill="#d9d9d9" d="M 34.074219 88.269531 C 32.550781 89.761719 29.675781 89.207031 29.042969 87.15625 C 28.820312 86.425781 29.042969 85.640625 28.742188 84.96875 C 28.640625 84.722656 25.269531 81.351562 25.039062 81.222656 C 23.871094 80.5625 22.445312 81.375 21.320312 79.980469 C 19.304688 77.488281 22.011719 73.6875 25.296875 75.382812 C 27.265625 76.398438 26.339844 78.128906 26.890625 79.371094 C 26.988281 79.59375 30.066406 82.6875 30.285156 82.808594 C 31.542969 83.523438 32.726562 82.574219 34.039062 84.019531 C 35.0625 85.148438 35.207031 87.167969 34.074219 88.269531 Z M 34.074219 88.269531 " fill-opacity="1" fill-rule="nonzero"/><path fill="#d9d9d9" d="M 134.957031 72.023438 C 137.753906 74.496094 134.367188 79.0625 131.175781 76.890625 C 127.609375 74.46875 131.910156 69.328125 134.957031 72.023438 Z M 134.957031 72.023438 " fill-opacity="1" fill-rule="nonzero"/><path fill="#d9d9d9" d="M 121.628906 78.496094 C 125.441406 77.863281 126.546875 84.238281 122.449219 84.644531 C 118.476562 85.039062 117.824219 79.125 121.628906 78.496094 Z M 121.628906 78.496094 " fill-opacity="1" fill-rule="nonzero"/><path fill="#d9d9d9" d="M 22.613281 89.058594 C 27.199219 88.039062 27.742188 95.320312 23.277344 95.03125 C 19.5 94.789062 19.496094 89.75 22.613281 89.058594 Z M 22.613281 89.058594 " fill-opacity="1" fill-rule="nonzero"/><path fill="#d9d9d9" d="M 121.800781 47.308594 C 118.707031 44.433594 123.527344 39.867188 126.226562 43.042969 C 128.746094 46.007812 124.53125 49.847656 121.800781 47.308594 Z M 121.800781 47.308594 " fill-opacity="1" fill-rule="nonzero"/><path fill="#d9d9d9" d="M 124.609375 32.617188 C 127.648438 29.640625 131.941406 34.414062 128.867188 37.027344 C 125.664062 39.75 122.089844 35.082031 124.609375 32.617188 Z M 124.609375 32.617188 " fill-opacity="1" fill-rule="nonzero"/><path fill="#d9d9d9" d="M 132.171875 62.679688 C 137.269531 61.519531 137.308594 69.835938 131.871094 68.433594 C 129.257812 67.761719 129.429688 63.296875 132.171875 62.679688 Z M 132.171875 62.679688 " fill-opacity="1" fill-rule="nonzero"/><path fill="#d9d9d9" d="M 67.609375 37.230469 C 73.242188 35.945312 72.347656 44.472656 67.371094 42.921875 C 64.789062 42.117188 64.933594 37.84375 67.609375 37.230469 Z M 67.609375 37.230469 " fill-opacity="1" fill-rule="nonzero"/><path fill="#d9d9d9" d="M 98.039062 31.324219 C 102.304688 30.589844 102.964844 37.0625 98.820312 37.410156 C 95.296875 37.703125 94.363281 31.960938 98.039062 31.324219 Z M 98.039062 31.324219 " fill-opacity="1" fill-rule="nonzero"/><path fill="#d9d9d9" d="M 25.292969 67.070312 C 27.851562 64.507812 32.457031 68.28125 29.695312 71.320312 C 26.890625 74.402344 22.578125 69.78125 25.292969 67.070312 Z M 25.292969 67.070312 " fill-opacity="1" fill-rule="nonzero"/><path fill="#d9d9d9" d="M 39.023438 117.472656 C 37.53125 115.945312 38.085938 113.070312 40.136719 112.441406 C 40.867188 112.21875 41.652344 112.441406 42.324219 112.140625 C 42.566406 112.039062 45.941406 108.667969 46.070312 108.4375 C 46.730469 107.269531 45.917969 105.84375 47.3125 104.714844 C 49.804688 102.699219 53.605469 105.40625 51.910156 108.691406 C 50.894531 110.664062 49.164062 109.738281 47.917969 110.289062 C 47.699219 110.386719 44.605469 113.464844 44.484375 113.683594 C 43.769531 114.941406 44.71875 116.121094 43.273438 117.4375 C 42.144531 118.460938 40.125 118.605469 39.023438 117.472656 Z M 39.023438 117.472656 " fill-opacity="1" fill-rule="nonzero"/><path fill="#d9d9d9" d="M 145.753906 115.441406 C 146.679688 114.890625 151.667969 115.878906 153.132812 115.214844 C 154.015625 114.8125 155.6875 112.191406 156.554688 111.8125 C 157.675781 111.316406 158.804688 112.113281 159.96875 110.878906 C 163.710938 106.925781 156.019531 103.113281 154.816406 107.925781 C 154.621094 108.71875 155.039062 109.320312 154.855469 109.78125 C 154.769531 109.992188 152.234375 112.445312 151.988281 112.519531 L 146.136719 112.765625 C 140.4375 106.789062 137.570312 117.707031 143.285156 117.175781 C 145.074219 117.007812 145.261719 115.734375 145.75 115.445312 Z M 145.753906 115.441406 " fill-opacity="1" fill-rule="nonzero"/><path fill="#d9d9d9" d="M 99.246094 118.695312 C 99.925781 118.695312 100.476562 118.144531 100.476562 117.464844 L 100.457031 108.632812 C 100.421875 107.574219 101.527344 107.273438 101.953125 106.410156 C 103.121094 104.058594 100.933594 101.507812 98.527344 102.039062 C 97.402344 102.289062 96.199219 103.820312 96.152344 104.957031 C 96.066406 106.867188 97.816406 107.183594 98.007812 108.640625 L 98.015625 117.472656 C 98.015625 118.152344 98.566406 118.699219 99.242188 118.699219 Z M 99.246094 118.695312 " fill-opacity="1" fill-rule="nonzero"/><path fill="#d9d9d9" d="M 109.421875 118.695312 C 110.101562 118.695312 110.648438 118.144531 110.648438 117.464844 L 110.640625 112.339844 C 110.605469 111.277344 111.710938 110.976562 112.136719 110.113281 C 113.300781 107.761719 111.113281 105.210938 108.710938 105.742188 C 107.585938 105.996094 106.382812 107.523438 106.332031 108.660156 C 106.25 110.570312 107.996094 110.890625 108.191406 112.34375 L 108.191406 117.472656 C 108.199219 118.152344 108.746094 118.699219 109.421875 118.699219 Z M 109.421875 118.695312 " fill-opacity="1" fill-rule="nonzero"/><g transform="matrix(1, 0, 0, 1, 189, 54)"><g clip-path="url(#c9232f3fa8)"><g fill="#d9d9d9" fill-opacity="0.4"><g transform="translate(2.909558, 67.485332)"><g><path d="M 1.609375 0 L 15.8125 -21.359375 L 2.265625 -41.765625 L 13.125 -41.765625 L 18.140625 -34.015625 L 21.953125 -28.21875 L 30.84375 -41.765625 L 41.65625 -41.765625 L 28.171875 -21.421875 L 42.359375 0 L 31.203125 0 L 25.484375 -8.828125 L 22.015625 -14.140625 L 18.5 -8.828125 L 12.765625 0 Z M 1.609375 0 "/></g></g></g><g fill="#d9d9d9" fill-opacity="0.4"><g transform="translate(46.890978, 67.485332)"><g><path d="M 5.015625 0 L 5.015625 -41.765625 L 14.5 -41.765625 L 14.5 0 Z M 5.015625 0 "/></g></g></g><g fill="#d9d9d9" fill-opacity="0.4"><g transform="translate(66.405121, 67.485332)"><g><path d="M 5.015625 0 L 5.015625 -41.765625 L 32.46875 -41.765625 L 32.46875 -33.78125 L 14.4375 -33.78125 L 14.4375 -25.125 L 30.84375 -25.125 L 30.84375 -17.1875 L 14.4375 -17.1875 L 14.4375 -8.0625 L 33.125 -8.0625 L 33.125 0 Z M 5.015625 0 "/></g></g></g><g fill="#d9d9d9" fill-opacity="0.4"><g transform="translate(102.568942, 67.485332)"><g><path d="M 5.015625 0 L 5.015625 -41.765625 L 13.0625 -41.765625 L 31.5 -16.34375 L 31.5 -41.765625 L 40.9375 -41.765625 L 40.9375 0 L 32.875 0 L 14.4375 -25.59375 L 14.4375 0 Z M 5.015625 0 "/></g></g></g><g fill="#d9d9d9" fill-opacity="0.4"><g transform="translate(148.51969, 67.485332)"><g><path d="M 15.03125 0 L 15.03125 -32.875 L 1.796875 -32.875 L 1.796875 -41.765625 L 37.765625 -41.765625 L 37.765625 -32.875 L 24.53125 -32.875 L 24.53125 0 Z M 15.03125 0 "/></g></g></g><g fill="#d9d9d9" fill-opacity="0.4"><g transform="translate(188.08507, 67.485332)"><g><path d="M 5.015625 0 L 5.015625 -41.765625 L 32.46875 -41.765625 L 32.46875 -33.78125 L 14.4375 -33.78125 L 14.4375 -25.125 L 30.84375 -25.125 L 30.84375 -17.1875 L 14.4375 -17.1875 L 14.4375 -8.0625 L 33.125 -8.0625 L 33.125 0 Z M 5.015625 0 "/></g></g></g><g fill="#d9d9d9" fill-opacity="0.4"><g transform="translate(223.89084, 67.485332)"><g><path d="M 24.171875 0.828125 C 19.953125 0.828125 16.210938 -0.09375 12.953125 -1.9375 C 9.691406 -3.789062 7.144531 -6.347656 5.3125 -9.609375 C 3.476562 -12.867188 2.5625 -16.628906 2.5625 -20.890625 C 2.5625 -25.140625 3.476562 -28.894531 5.3125 -32.15625 C 7.144531 -35.425781 9.679688 -37.984375 12.921875 -39.828125 C 16.160156 -41.679688 19.890625 -42.609375 24.109375 -42.609375 C 27.648438 -42.609375 30.890625 -41.929688 33.828125 -40.578125 C 36.773438 -39.222656 39.253906 -37.3125 41.265625 -34.84375 C 43.273438 -32.382812 44.675781 -29.484375 45.46875 -26.140625 L 35.6875 -26.140625 C 34.882812 -28.441406 33.46875 -30.257812 31.4375 -31.59375 C 29.414062 -32.925781 27.070312 -33.59375 24.40625 -33.59375 C 22.0625 -33.59375 19.960938 -33.054688 18.109375 -31.984375 C 16.253906 -30.910156 14.8125 -29.414062 13.78125 -27.5 C 12.75 -25.59375 12.234375 -23.390625 12.234375 -20.890625 C 12.234375 -18.378906 12.75 -16.164062 13.78125 -14.25 C 14.8125 -12.34375 16.242188 -10.851562 18.078125 -9.78125 C 19.910156 -8.707031 22 -8.171875 24.34375 -8.171875 C 27.09375 -8.171875 29.5 -8.875 31.5625 -10.28125 C 33.632812 -11.695312 35.109375 -13.597656 35.984375 -15.984375 L 45.765625 -15.984375 C 45.085938 -12.609375 43.734375 -9.65625 41.703125 -7.125 C 39.679688 -4.601562 37.164062 -2.644531 34.15625 -1.25 C 31.15625 0.132812 27.828125 0.828125 24.171875 0.828125 Z M 24.171875 0.828125 "/></g></g></g><g fill="#d9d9d9" fill-opacity="0.4"><g transform="translate(272.049594, 67.485332)"><g><path d="M 30.84375 0 L 30.84375 -16.828125 L 14.5 -16.828125 L 14.5 0 L 5.015625 0 L 5.015625 -41.765625 L 14.5 -41.765625 L 14.5 -25.71875 L 30.84375 -25.71875 L 30.84375 -41.765625 L 40.34375 -41.765625 L 40.34375 0 Z M 30.84375 0 "/></g></g></g><g fill="#ffffff" fill-opacity="1"><g transform="translate(0.272209, 64.847987)"><g><path d="M 1.609375 0 L 15.8125 -21.359375 L 2.265625 -41.765625 L 13.125 -41.765625 L 18.140625 -34.015625 L 21.953125 -28.21875 L 30.84375 -41.765625 L 41.65625 -41.765625 L 28.171875 -21.421875 L 42.359375 0 L 31.203125 0 L 25.484375 -8.828125 L 22.015625 -14.140625 L 18.5 -8.828125 L 12.765625 0 Z M 1.609375 0 "/></g></g></g><g fill="#ffffff" fill-opacity="1"><g transform="translate(44.25363, 64.847987)"><g><path d="M 5.015625 0 L 5.015625 -41.765625 L 14.5 -41.765625 L 14.5 0 Z M 5.015625 0 "/></g></g></g><g fill="#ffffff" fill-opacity="1"><g transform="translate(63.767772, 64.847987)"><g><path d="M 5.015625 0 L 5.015625 -41.765625 L 32.46875 -41.765625 L 32.46875 -33.78125 L 14.4375 -33.78125 L 14.4375 -25.125 L 30.84375 -25.125 L 30.84375 -17.1875 L 14.4375 -17.1875 L 14.4375 -8.0625 L 33.125 -8.0625 L 33.125 0 Z M 5.015625 0 "/></g></g></g><g fill="#ffffff" fill-opacity="1"><g transform="translate(99.931594, 64.847987)"><g><path d="M 5.015625 0 L 5.015625 -41.765625 L 13.0625 -41.765625 L 31.5 -16.34375 L 31.5 -41.765625 L 40.9375 -41.765625 L 40.9375 0 L 32.875 0 L 14.4375 -25.59375 L 14.4375 0 Z M 5.015625 0 "/></g></g></g><g fill="#ffffff" fill-opacity="1"><g transform="translate(145.882341, 64.847987)"><g><path d="M 15.03125 0 L 15.03125 -32.875 L 1.796875 -32.875 L 1.796875 -41.765625 L 37.765625 -41.765625 L 37.765625 -32.875 L 24.53125 -32.875 L 24.53125 0 Z M 15.03125 0 "/></g></g></g><g fill="#ffffff" fill-opacity="1"><g transform="translate(185.447722, 64.847987)"><g><path d="M 5.015625 0 L 5.015625 -41.765625 L 32.46875 -41.765625 L 32.46875 -33.78125 L 14.4375 -33.78125 L 14.4375 -25.125 L 30.84375 -25.125 L 30.84375 -17.1875 L 14.4375 -17.1875 L 14.4375 -8.0625 L 33.125 -8.0625 L 33.125 0 Z M 5.015625 0 "/></g></g></g><g fill="#ffffff" fill-opacity="1"><g transform="translate(221.253492, 64.847987)"><g><path d="M 24.171875 0.828125 C 19.953125 0.828125 16.210938 -0.09375 12.953125 -1.9375 C 9.691406 -3.789062 7.144531 -6.347656 5.3125 -9.609375 C 3.476562 -12.867188 2.5625 -16.628906 2.5625 -20.890625 C 2.5625 -25.140625 3.476562 -28.894531 5.3125 -32.15625 C 7.144531 -35.425781 9.679688 -37.984375 12.921875 -39.828125 C 16.160156 -41.679688 19.890625 -42.609375 24.109375 -42.609375 C 27.648438 -42.609375 30.890625 -41.929688 33.828125 -40.578125 C 36.773438 -39.222656 39.253906 -37.3125 41.265625 -34.84375 C 43.273438 -32.382812 44.675781 -29.484375 45.46875 -26.140625 L 35.6875 -26.140625 C 34.882812 -28.441406 33.46875 -30.257812 31.4375 -31.59375 C 29.414062 -32.925781 27.070312 -33.59375 24.40625 -33.59375 C 22.0625 -33.59375 19.960938 -33.054688 18.109375 -31.984375 C 16.253906 -30.910156 14.8125 -29.414062 13.78125 -27.5 C 12.75 -25.59375 12.234375 -23.390625 12.234375 -20.890625 C 12.234375 -18.378906 12.75 -16.164062 13.78125 -14.25 C 14.8125 -12.34375 16.242188 -10.851562 18.078125 -9.78125 C 19.910156 -8.707031 22 -8.171875 24.34375 -8.171875 C 27.09375 -8.171875 29.5 -8.875 31.5625 -10.28125 C 33.632812 -11.695312 35.109375 -13.597656 35.984375 -15.984375 L 45.765625 -15.984375 C 45.085938 -12.609375 43.734375 -9.65625 41.703125 -7.125 C 39.679688 -4.601562 37.164062 -2.644531 34.15625 -1.25 C 31.15625 0.132812 27.828125 0.828125 24.171875 0.828125 Z M 24.171875 0.828125 "/></g></g></g><g fill="#ffffff" fill-opacity="1"><g transform="translate(269.412245, 64.847987)"><g><path d="M 30.84375 0 L 30.84375 -16.828125 L 14.5 -16.828125 L 14.5 0 L 5.015625 0 L 5.015625 -41.765625 L 14.5 -41.765625 L 14.5 -25.71875 L 30.84375 -25.71875 L 30.84375 -41.765625 L 40.34375 -41.765625 L 40.34375 0 Z M 30.84375 0 "/></g></g></g></g></g><g transform="matrix(1, 0, 0, 1, 185, 136)"><g clip-path="url(#151c583f1b)"><g fill="#d9d9d9" fill-opacity="1"><g transform="translate(0.918005, 20.451822)"><g><path d="M 7.65625 0.265625 C 6.320312 0.265625 5.140625 -0.0195312 4.109375 -0.59375 C 3.078125 -1.175781 2.265625 -1.976562 1.671875 -3 C 1.085938 -4.019531 0.796875 -5.195312 0.796875 -6.53125 C 0.796875 -7.863281 1.082031 -9.035156 1.65625 -10.046875 C 2.238281 -11.066406 3.039062 -11.867188 4.0625 -12.453125 C 5.09375 -13.035156 6.269531 -13.328125 7.59375 -13.328125 C 8.644531 -13.328125 9.617188 -13.140625 10.515625 -12.765625 C 11.410156 -12.390625 12.171875 -11.863281 12.796875 -11.1875 C 13.429688 -10.507812 13.878906 -9.707031 14.140625 -8.78125 L 10.953125 -8.78125 C 10.640625 -9.351562 10.191406 -9.796875 9.609375 -10.109375 C 9.035156 -10.429688 8.382812 -10.59375 7.65625 -10.59375 C 6.894531 -10.59375 6.21875 -10.414062 5.625 -10.0625 C 5.039062 -9.71875 4.582031 -9.238281 4.25 -8.625 C 3.925781 -8.019531 3.765625 -7.320312 3.765625 -6.53125 C 3.765625 -5.75 3.925781 -5.050781 4.25 -4.4375 C 4.570312 -3.832031 5.023438 -3.351562 5.609375 -3 C 6.203125 -2.644531 6.894531 -2.46875 7.6875 -2.46875 C 8.644531 -2.46875 9.441406 -2.707031 10.078125 -3.1875 C 10.710938 -3.675781 11.125 -4.316406 11.3125 -5.109375 L 7.078125 -5.109375 L 7.078125 -7.40625 L 14.4375 -7.40625 C 14.507812 -6.289062 14.398438 -5.265625 14.109375 -4.328125 C 13.816406 -3.390625 13.367188 -2.578125 12.765625 -1.890625 C 12.160156 -1.203125 11.425781 -0.671875 10.5625 -0.296875 C 9.695312 0.078125 8.726562 0.265625 7.65625 0.265625 Z M 7.65625 0.265625 "/></g></g></g><g fill="#d9d9d9" fill-opacity="1"><g transform="translate(16.135452, 20.451822)"><g><path d="M 1.5625 0 L 1.5625 -13.0625 L 4.53125 -13.0625 L 4.53125 -2.78125 L 10.25 -2.78125 L 10.25 0 Z M 1.5625 0 "/></g></g></g><g fill="#d9d9d9" fill-opacity="1"><g transform="translate(26.112572, 20.451822)"><g><path d="M 7.765625 0.265625 C 6.410156 0.265625 5.207031 -0.0195312 4.15625 -0.59375 C 3.101562 -1.175781 2.28125 -1.976562 1.6875 -3 C 1.09375 -4.019531 0.796875 -5.195312 0.796875 -6.53125 C 0.796875 -7.863281 1.09375 -9.035156 1.6875 -10.046875 C 2.28125 -11.066406 3.101562 -11.867188 4.15625 -12.453125 C 5.207031 -13.035156 6.410156 -13.328125 7.765625 -13.328125 C 9.128906 -13.328125 10.332031 -13.035156 11.375 -12.453125 C 12.425781 -11.867188 13.25 -11.066406 13.84375 -10.046875 C 14.4375 -9.035156 14.734375 -7.863281 14.734375 -6.53125 C 14.734375 -5.195312 14.4375 -4.019531 13.84375 -3 C 13.25 -1.976562 12.425781 -1.175781 11.375 -0.59375 C 10.332031 -0.0195312 9.128906 0.265625 7.765625 0.265625 Z M 3.828125 -6.53125 C 3.828125 -5.75 3.992188 -5.054688 4.328125 -4.453125 C 4.660156 -3.859375 5.125 -3.394531 5.71875 -3.0625 C 6.3125 -2.726562 6.992188 -2.5625 7.765625 -2.5625 C 8.546875 -2.5625 9.226562 -2.726562 9.8125 -3.0625 C 10.40625 -3.394531 10.867188 -3.859375 11.203125 -4.453125 C 11.535156 -5.054688 11.703125 -5.75 11.703125 -6.53125 C 11.703125 -7.3125 11.535156 -8 11.203125 -8.59375 C 10.867188 -9.195312 10.40625 -9.664062 9.8125 -10 C 9.226562 -10.332031 8.546875 -10.5 7.765625 -10.5 C 6.992188 -10.5 6.3125 -10.332031 5.71875 -10 C 5.125 -9.664062 4.660156 -9.195312 4.328125 -8.59375 C 3.992188 -8 3.828125 -7.3125 3.828125 -6.53125 Z M 3.828125 -6.53125 "/></g></g></g><g fill="#d9d9d9" fill-opacity="1"><g transform="translate(41.647046, 20.451822)"><g><path d="M 1.5625 0 L 1.5625 -13.0625 L 7.40625 -13.0625 C 8.738281 -13.0625 9.796875 -12.742188 10.578125 -12.109375 C 11.359375 -11.472656 11.75 -10.617188 11.75 -9.546875 C 11.75 -8.941406 11.613281 -8.390625 11.34375 -7.890625 C 11.070312 -7.390625 10.6875 -7 10.1875 -6.71875 C 10.8125 -6.445312 11.289062 -6.039062 11.625 -5.5 C 11.96875 -4.96875 12.140625 -4.351562 12.140625 -3.65625 C 12.140625 -2.925781 11.953125 -2.285156 11.578125 -1.734375 C 11.210938 -1.191406 10.695312 -0.765625 10.03125 -0.453125 C 9.363281 -0.148438 8.585938 0 7.703125 0 Z M 4.5 -2.34375 L 7.25 -2.34375 C 7.84375 -2.34375 8.300781 -2.476562 8.625 -2.75 C 8.945312 -3.03125 9.109375 -3.421875 9.109375 -3.921875 C 9.109375 -4.421875 8.945312 -4.804688 8.625 -5.078125 C 8.300781 -5.347656 7.84375 -5.484375 7.25 -5.484375 L 4.5 -5.484375 Z M 4.5 -7.75 L 6.953125 -7.75 C 7.523438 -7.75 7.960938 -7.878906 8.265625 -8.140625 C 8.578125 -8.398438 8.734375 -8.765625 8.734375 -9.234375 C 8.734375 -9.703125 8.578125 -10.0625 8.265625 -10.3125 C 7.960938 -10.570312 7.523438 -10.703125 6.953125 -10.703125 L 4.5 -10.703125 Z M 4.5 -7.75 "/></g></g></g><g fill="#d9d9d9" fill-opacity="1"><g transform="translate(54.272304, 20.451822)"><g><path d="M 0.171875 0 L 5.359375 -13.0625 L 8.265625 -13.0625 L 13.453125 0 L 10.28125 0 L 9.40625 -2.25 L 4.21875 -2.25 L 3.34375 0 Z M 4.984375 -4.59375 L 8.65625 -4.59375 L 6.8125 -9.359375 Z M 4.984375 -4.59375 "/></g></g></g><g fill="#d9d9d9" fill-opacity="1"><g transform="translate(67.885949, 20.451822)"><g><path d="M 1.5625 0 L 1.5625 -13.0625 L 4.53125 -13.0625 L 4.53125 -2.78125 L 10.25 -2.78125 L 10.25 0 Z M 1.5625 0 "/></g></g></g><g fill="#d9d9d9" fill-opacity="1"><g transform="translate(78.23605, 20.451822)"><g/></g></g><g fill="#d9d9d9" fill-opacity="1"><g transform="translate(82.618522, 20.451822)"><g><path d="M 1.5625 0 L 1.5625 -13.0625 L 4.53125 -13.0625 L 4.53125 -2.78125 L 10.25 -2.78125 L 10.25 0 Z M 1.5625 0 "/></g></g></g><g fill="#d9d9d9" fill-opacity="1"><g transform="translate(92.595647, 20.451822)"><g><path d="M 7.765625 0.265625 C 6.410156 0.265625 5.207031 -0.0195312 4.15625 -0.59375 C 3.101562 -1.175781 2.28125 -1.976562 1.6875 -3 C 1.09375 -4.019531 0.796875 -5.195312 0.796875 -6.53125 C 0.796875 -7.863281 1.09375 -9.035156 1.6875 -10.046875 C 2.28125 -11.066406 3.101562 -11.867188 4.15625 -12.453125 C 5.207031 -13.035156 6.410156 -13.328125 7.765625 -13.328125 C 9.128906 -13.328125 10.332031 -13.035156 11.375 -12.453125 C 12.425781 -11.867188 13.25 -11.066406 13.84375 -10.046875 C 14.4375 -9.035156 14.734375 -7.863281 14.734375 -6.53125 C 14.734375 -5.195312 14.4375 -4.019531 13.84375 -3 C 13.25 -1.976562 12.425781 -1.175781 11.375 -0.59375 C 10.332031 -0.0195312 9.128906 0.265625 7.765625 0.265625 Z M 3.828125 -6.53125 C 3.828125 -5.75 3.992188 -5.054688 4.328125 -4.453125 C 4.660156 -3.859375 5.125 -3.394531 5.71875 -3.0625 C 6.3125 -2.726562 6.992188 -2.5625 7.765625 -2.5625 C 8.546875 -2.5625 9.226562 -2.726562 9.8125 -3.0625 C 10.40625 -3.394531 10.867188 -3.859375 11.203125 -4.453125 C 11.535156 -5.054688 11.703125 -5.75 11.703125 -6.53125 C 11.703125 -7.3125 11.535156 -8 11.203125 -8.59375 C 10.867188 -9.195312 10.40625 -9.664062 9.8125 -10 C 9.226562 -10.332031 8.546875 -10.5 7.765625 -10.5 C 6.992188 -10.5 6.3125 -10.332031 5.71875 -10 C 5.125 -9.664062 4.660156 -9.195312 4.328125 -8.59375 C 3.992188 -8 3.828125 -7.3125 3.828125 -6.53125 Z M 3.828125 -6.53125 "/></g></g></g><g fill="#d9d9d9" fill-opacity="1"><g transform="translate(108.130121, 20.451822)"><g><path d="M 7.65625 0.265625 C 6.320312 0.265625 5.140625 -0.0195312 4.109375 -0.59375 C 3.078125 -1.175781 2.265625 -1.976562 1.671875 -3 C 1.085938 -4.019531 0.796875 -5.195312 0.796875 -6.53125 C 0.796875 -7.863281 1.082031 -9.035156 1.65625 -10.046875 C 2.238281 -11.066406 3.039062 -11.867188 4.0625 -12.453125 C 5.09375 -13.035156 6.269531 -13.328125 7.59375 -13.328125 C 8.644531 -13.328125 9.617188 -13.140625 10.515625 -12.765625 C 11.410156 -12.390625 12.171875 -11.863281 12.796875 -11.1875 C 13.429688 -10.507812 13.878906 -9.707031 14.140625 -8.78125 L 10.953125 -8.78125 C 10.640625 -9.351562 10.191406 -9.796875 9.609375 -10.109375 C 9.035156 -10.429688 8.382812 -10.59375 7.65625 -10.59375 C 6.894531 -10.59375 6.21875 -10.414062 5.625 -10.0625 C 5.039062 -9.71875 4.582031 -9.238281 4.25 -8.625 C 3.925781 -8.019531 3.765625 -7.320312 3.765625 -6.53125 C 3.765625 -5.75 3.925781 -5.050781 4.25 -4.4375 C 4.570312 -3.832031 5.023438 -3.351562 5.609375 -3 C 6.203125 -2.644531 6.894531 -2.46875 7.6875 -2.46875 C 8.644531 -2.46875 9.441406 -2.707031 10.078125 -3.1875 C 10.710938 -3.675781 11.125 -4.316406 11.3125 -5.109375 L 7.078125 -5.109375 L 7.078125 -7.40625 L 14.4375 -7.40625 C 14.507812 -6.289062 14.398438 -5.265625 14.109375 -4.328125 C 13.816406 -3.390625 13.367188 -2.578125 12.765625 -1.890625 C 12.160156 -1.203125 11.425781 -0.671875 10.5625 -0.296875 C 9.695312 0.078125 8.726562 0.265625 7.65625 0.265625 Z M 7.65625 0.265625 "/></g></g></g><g fill="#d9d9d9" fill-opacity="1"><g transform="translate(123.347568, 20.451822)"><g><path d="M 1.5625 0 L 1.5625 -13.0625 L 4.53125 -13.0625 L 4.53125 0 Z M 1.5625 0 "/></g></g></g><g fill="#d9d9d9" fill-opacity="1"><g transform="translate(129.44573, 20.451822)"><g><path d="M 7.5625 0.265625 C 6.238281 0.265625 5.066406 -0.0195312 4.046875 -0.59375 C 3.023438 -1.175781 2.226562 -1.976562 1.65625 -3 C 1.082031 -4.019531 0.796875 -5.195312 0.796875 -6.53125 C 0.796875 -7.863281 1.082031 -9.035156 1.65625 -10.046875 C 2.226562 -11.066406 3.019531 -11.867188 4.03125 -12.453125 C 5.050781 -13.035156 6.21875 -13.328125 7.53125 -13.328125 C 8.644531 -13.328125 9.660156 -13.113281 10.578125 -12.6875 C 11.492188 -12.257812 12.265625 -11.660156 12.890625 -10.890625 C 13.523438 -10.117188 13.96875 -9.210938 14.21875 -8.171875 L 11.15625 -8.171875 C 10.90625 -8.890625 10.460938 -9.457031 9.828125 -9.875 C 9.191406 -10.289062 8.457031 -10.5 7.625 -10.5 C 6.894531 -10.5 6.238281 -10.332031 5.65625 -10 C 5.082031 -9.664062 4.632812 -9.195312 4.3125 -8.59375 C 3.988281 -8 3.828125 -7.3125 3.828125 -6.53125 C 3.828125 -5.75 3.988281 -5.054688 4.3125 -4.453125 C 4.632812 -3.859375 5.082031 -3.394531 5.65625 -3.0625 C 6.226562 -2.726562 6.878906 -2.5625 7.609375 -2.5625 C 8.472656 -2.5625 9.226562 -2.78125 9.875 -3.21875 C 10.519531 -3.65625 10.976562 -4.25 11.25 -5 L 14.3125 -5 C 14.101562 -3.945312 13.679688 -3.023438 13.046875 -2.234375 C 12.410156 -1.441406 11.617188 -0.828125 10.671875 -0.390625 C 9.734375 0.046875 8.695312 0.265625 7.5625 0.265625 Z M 7.5625 0.265625 "/></g></g></g><g fill="#d9d9d9" fill-opacity="1"><g transform="translate(143.823975, 20.451822)"><g><path d="M 2.5 0.203125 C 1.988281 0.203125 1.570312 0.046875 1.25 -0.265625 C 0.925781 -0.585938 0.765625 -0.988281 0.765625 -1.46875 C 0.765625 -1.957031 0.925781 -2.363281 1.25 -2.6875 C 1.570312 -3.007812 1.988281 -3.171875 2.5 -3.171875 C 3.007812 -3.171875 3.425781 -3.007812 3.75 -2.6875 C 4.070312 -2.363281 4.234375 -1.957031 4.234375 -1.46875 C 4.234375 -0.988281 4.070312 -0.585938 3.75 -0.265625 C 3.425781 0.046875 3.007812 0.203125 2.5 0.203125 Z M 2.5 0.203125 "/></g></g></g><g fill="#d9d9d9" fill-opacity="1"><g transform="translate(148.803223, 20.451822)"><g/></g></g><g fill="#d9d9d9" fill-opacity="1"><g transform="translate(153.185694, 20.451822)"><g><path d="M 9.640625 0 L 9.640625 -5.265625 L 4.53125 -5.265625 L 4.53125 0 L 1.5625 0 L 1.5625 -13.0625 L 4.53125 -13.0625 L 4.53125 -8.046875 L 9.640625 -8.046875 L 9.640625 -13.0625 L 12.609375 -13.0625 L 12.609375 0 Z M 9.640625 0 "/></g></g></g><g fill="#d9d9d9" fill-opacity="1"><g transform="translate(167.35881, 20.451822)"><g><path d="M 6.90625 0.265625 C 5.769531 0.265625 4.796875 0.0390625 3.984375 -0.40625 C 3.171875 -0.863281 2.539062 -1.515625 2.09375 -2.359375 C 1.65625 -3.203125 1.4375 -4.207031 1.4375 -5.375 L 1.4375 -13.0625 L 4.40625 -13.0625 L 4.40625 -5.578125 C 4.40625 -3.566406 5.238281 -2.5625 6.90625 -2.5625 C 8.570312 -2.5625 9.40625 -3.566406 9.40625 -5.578125 L 9.40625 -13.0625 L 12.375 -13.0625 L 12.375 -5.375 C 12.375 -4.207031 12.148438 -3.203125 11.703125 -2.359375 C 11.265625 -1.515625 10.632812 -0.863281 9.8125 -0.40625 C 9 0.0390625 8.03125 0.265625 6.90625 0.265625 Z M 6.90625 0.265625 "/></g></g></g><g fill="#d9d9d9" fill-opacity="1"><g transform="translate(181.158945, 20.451822)"><g><path d="M 1.5625 0 L 1.5625 -13.0625 L 4.078125 -13.0625 L 8.734375 -6.28125 L 13.359375 -13.0625 L 15.859375 -13.0625 L 15.859375 0 L 12.90625 0 L 12.90625 -7.859375 L 9.734375 -3.234375 L 7.6875 -3.234375 L 4.515625 -7.875 L 4.515625 0 Z M 1.5625 0 "/></g></g></g><g fill="#d9d9d9" fill-opacity="1"><g transform="translate(198.576942, 20.451822)"><g><path d="M 0.171875 0 L 5.359375 -13.0625 L 8.265625 -13.0625 L 13.453125 0 L 10.28125 0 L 9.40625 -2.25 L 4.21875 -2.25 L 3.34375 0 Z M 4.984375 -4.59375 L 8.65625 -4.59375 L 6.8125 -9.359375 Z M 4.984375 -4.59375 "/></g></g></g><g fill="#d9d9d9" fill-opacity="1"><g transform="translate(212.190597, 20.451822)"><g><path d="M 1.5625 0 L 1.5625 -13.0625 L 4.078125 -13.0625 L 9.84375 -5.109375 L 9.84375 -13.0625 L 12.796875 -13.0625 L 12.796875 0 L 10.28125 0 L 4.515625 -8 L 4.515625 0 Z M 1.5625 0 "/></g></g></g><g fill="#d9d9d9" fill-opacity="1"><g transform="translate(226.550193, 20.451822)"><g/></g></g><g fill="#d9d9d9" fill-opacity="1"><g transform="translate(230.466444, 20.451822)"><g><path d="M 7.5625 0.265625 C 6.238281 0.265625 5.066406 -0.0195312 4.046875 -0.59375 C 3.023438 -1.175781 2.226562 -1.976562 1.65625 -3 C 1.082031 -4.019531 0.796875 -5.195312 0.796875 -6.53125 C 0.796875 -7.863281 1.082031 -9.035156 1.65625 -10.046875 C 2.226562 -11.066406 3.019531 -11.867188 4.03125 -12.453125 C 5.050781 -13.035156 6.21875 -13.328125 7.53125 -13.328125 C 8.644531 -13.328125 9.660156 -13.113281 10.578125 -12.6875 C 11.492188 -12.257812 12.265625 -11.660156 12.890625 -10.890625 C 13.523438 -10.117188 13.96875 -9.210938 14.21875 -8.171875 L 11.15625 -8.171875 C 10.90625 -8.890625 10.460938 -9.457031 9.828125 -9.875 C 9.191406 -10.289062 8.457031 -10.5 7.625 -10.5 C 6.894531 -10.5 6.238281 -10.332031 5.65625 -10 C 5.082031 -9.664062 4.632812 -9.195312 4.3125 -8.59375 C 3.988281 -8 3.828125 -7.3125 3.828125 -6.53125 C 3.828125 -5.75 3.988281 -5.054688 4.3125 -4.453125 C 4.632812 -3.859375 5.082031 -3.394531 5.65625 -3.0625 C 6.226562 -2.726562 6.878906 -2.5625 7.609375 -2.5625 C 8.472656 -2.5625 9.226562 -2.78125 9.875 -3.21875 C 10.519531 -3.65625 10.976562 -4.25 11.25 -5 L 14.3125 -5 C 14.101562 -3.945312 13.679688 -3.023438 13.046875 -2.234375 C 12.410156 -1.441406 11.617188 -0.828125 10.671875 -0.390625 C 9.734375 0.046875 8.695312 0.265625 7.5625 0.265625 Z M 7.5625 0.265625 "/></g></g></g><g fill="#d9d9d9" fill-opacity="1"><g transform="translate(245.516039, 20.451822)"><g><path d="M 1.5625 0 L 1.5625 -13.0625 L 10.15625 -13.0625 L 10.15625 -10.5625 L 4.515625 -10.5625 L 4.515625 -7.859375 L 9.640625 -7.859375 L 9.640625 -5.375 L 4.515625 -5.375 L 4.515625 -2.515625 L 10.359375 -2.515625 L 10.359375 0 Z M 1.5625 0 "/></g></g></g><g fill="#d9d9d9" fill-opacity="1"><g transform="translate(256.817235, 20.451822)"><g><path d="M 1.5625 0 L 1.5625 -13.0625 L 4.078125 -13.0625 L 9.84375 -5.109375 L 9.84375 -13.0625 L 12.796875 -13.0625 L 12.796875 0 L 10.28125 0 L 4.515625 -8 L 4.515625 0 Z M 1.5625 0 "/></g></g></g><g fill="#d9d9d9" fill-opacity="1"><g transform="translate(271.176832, 20.451822)"><g><path d="M 4.703125 0 L 4.703125 -10.28125 L 0.5625 -10.28125 L 0.5625 -13.0625 L 11.8125 -13.0625 L 11.8125 -10.28125 L 7.671875 -10.28125 L 7.671875 0 Z M 4.703125 0 "/></g></g></g><g fill="#d9d9d9" fill-opacity="1"><g transform="translate(283.541007, 20.451822)"><g><path d="M 1.5625 0 L 1.5625 -13.0625 L 7.140625 -13.0625 C 8.140625 -13.0625 9.003906 -12.878906 9.734375 -12.515625 C 10.472656 -12.160156 11.039062 -11.644531 11.4375 -10.96875 C 11.832031 -10.300781 12.03125 -9.5 12.03125 -8.5625 C 12.03125 -7.601562 11.8125 -6.78125 11.375 -6.09375 C 10.945312 -5.40625 10.335938 -4.882812 9.546875 -4.53125 L 12.25 0 L 8.828125 0 L 6.5 -4.0625 L 4.53125 -4.0625 L 4.53125 0 Z M 4.5 -6.5625 L 6.75 -6.5625 C 7.488281 -6.5625 8.050781 -6.734375 8.4375 -7.078125 C 8.832031 -7.421875 9.03125 -7.910156 9.03125 -8.546875 C 9.03125 -9.179688 8.832031 -9.664062 8.4375 -10 C 8.050781 -10.34375 7.488281 -10.515625 6.75 -10.515625 L 4.5 -10.515625 Z M 4.5 -6.5625 "/></g></g></g><g fill="#d9d9d9" fill-opacity="1"><g transform="translate(296.669792, 20.451822)"><g><path d="M 1.5625 0 L 1.5625 -13.0625 L 4.53125 -13.0625 L 4.53125 0 Z M 1.5625 0 "/></g></g></g><g fill="#d9d9d9" fill-opacity="1"><g transform="translate(302.767944, 20.451822)"><g><path d="M 7.5625 0.265625 C 6.238281 0.265625 5.066406 -0.0195312 4.046875 -0.59375 C 3.023438 -1.175781 2.226562 -1.976562 1.65625 -3 C 1.082031 -4.019531 0.796875 -5.195312 0.796875 -6.53125 C 0.796875 -7.863281 1.082031 -9.035156 1.65625 -10.046875 C 2.226562 -11.066406 3.019531 -11.867188 4.03125 -12.453125 C 5.050781 -13.035156 6.21875 -13.328125 7.53125 -13.328125 C 8.644531 -13.328125 9.660156 -13.113281 10.578125 -12.6875 C 11.492188 -12.257812 12.265625 -11.660156 12.890625 -10.890625 C 13.523438 -10.117188 13.96875 -9.210938 14.21875 -8.171875 L 11.15625 -8.171875 C 10.90625 -8.890625 10.460938 -9.457031 9.828125 -9.875 C 9.191406 -10.289062 8.457031 -10.5 7.625 -10.5 C 6.894531 -10.5 6.238281 -10.332031 5.65625 -10 C 5.082031 -9.664062 4.632812 -9.195312 4.3125 -8.59375 C 3.988281 -8 3.828125 -7.3125 3.828125 -6.53125 C 3.828125 -5.75 3.988281 -5.054688 4.3125 -4.453125 C 4.632812 -3.859375 5.082031 -3.394531 5.65625 -3.0625 C 6.226562 -2.726562 6.878906 -2.5625 7.609375 -2.5625 C 8.472656 -2.5625 9.226562 -2.78125 9.875 -3.21875 C 10.519531 -3.65625 10.976562 -4.25 11.25 -5 L 14.3125 -5 C 14.101562 -3.945312 13.679688 -3.023438 13.046875 -2.234375 C 12.410156 -1.441406 11.617188 -0.828125 10.671875 -0.390625 C 9.734375 0.046875 8.695312 0.265625 7.5625 0.265625 Z M 7.5625 0.265625 "/></g></g></g><g fill="#d9d9d9" fill-opacity="1"><g transform="translate(317.146208, 20.451822)"><g><path d="M 2.5 0.203125 C 1.988281 0.203125 1.570312 0.046875 1.25 -0.265625 C 0.925781 -0.585938 0.765625 -0.988281 0.765625 -1.46875 C 0.765625 -1.957031 0.925781 -2.363281 1.25 -2.6875 C 1.570312 -3.007812 1.988281 -3.171875 2.5 -3.171875 C 3.007812 -3.171875 3.425781 -3.007812 3.75 -2.6875 C 4.070312 -2.363281 4.234375 -1.957031 4.234375 -1.46875 C 4.234375 -0.988281 4.070312 -0.585938 3.75 -0.265625 C 3.425781 0.046875 3.007812 0.203125 2.5 0.203125 Z M 2.5 0.203125 "/></g></g></g></g></g></svg>