<svg xmlns="http://www.w3.org/2000/svg" xmlns:xlink="http://www.w3.org/1999/xlink" width="700" zoomAndPan="magnify" viewBox="0 0 525 225" height="300" preserveAspectRatio="xMidYMid meet" version="1.0"><defs><g/><clipPath id="e5ea53fd84"><path d="M 84 187 L 94 187 L 94 191.894531 L 84 191.894531 Z M 84 187 " clip-rule="nonzero"/></clipPath><clipPath id="2fdb1e34e5"><path d="M 70 187 L 80 187 L 80 191.894531 L 70 191.894531 Z M 70 187 " clip-rule="nonzero"/></clipPath><clipPath id="620c172afe"><path d="M 7.582031 100 L 13 100 L 13 118 L 7.582031 118 Z M 7.582031 100 " clip-rule="nonzero"/></clipPath><clipPath id="5080365bb2"><rect x="0" width="367" y="0" height="102"/></clipPath></defs><path fill="#288ec8" d="M 111.207031 163.746094 L 84.90625 163.746094 C 84.507812 163.746094 84.183594 163.421875 84.183594 163.023438 L 84.183594 145.246094 C 84.183594 144.851562 84.507812 144.523438 84.90625 144.523438 L 116.375 144.523438 C 116.84375 144.523438 117.207031 144.957031 117.097656 145.429688 C 115.796875 151.894531 114.0625 157.894531 111.894531 163.347656 C 111.785156 163.636719 111.496094 163.820312 111.207031 163.820312 Z M 111.207031 163.746094 " fill-opacity="1" fill-rule="nonzero"/><path fill="#288ec8" d="M 122.085938 144.488281 L 149 144.488281 C 149.507812 144.488281 149.867188 144.996094 149.6875 145.5 C 147.230469 151.96875 143.90625 158.039062 139.789062 163.457031 C 139.644531 163.636719 139.425781 163.746094 139.171875 163.746094 L 117.097656 163.746094 C 116.59375 163.746094 116.230469 163.242188 116.410156 162.769531 C 118.433594 157.351562 120.097656 151.390625 121.324219 145.101562 C 121.398438 144.742188 121.6875 144.488281 122.046875 144.488281 Z M 122.085938 144.488281 " fill-opacity="1" fill-rule="nonzero"/><path fill="#2fa2e4" d="M 54.882812 167.972656 L 79.234375 167.972656 C 79.632812 167.972656 79.957031 168.296875 79.957031 168.695312 L 79.957031 182.460938 C 79.957031 182.859375 79.632812 183.183594 79.234375 183.183594 C 73.957031 183.183594 68.792969 183.257812 64.167969 183.257812 C 63.949219 183.257812 63.769531 183.183594 63.625 183.039062 C 60.121094 179.320312 56.941406 174.585938 54.230469 168.984375 C 53.980469 168.480469 54.339844 167.902344 54.917969 167.902344 Z M 54.882812 167.972656 " fill-opacity="1" fill-rule="nonzero"/><path fill="#288ec8" d="M 15.101562 144.488281 L 41.476562 144.488281 C 41.839844 144.488281 42.128906 144.742188 42.199219 145.101562 C 43.429688 151.425781 45.089844 157.351562 47.113281 162.769531 C 47.292969 163.242188 46.933594 163.746094 46.425781 163.746094 L 24.894531 163.746094 C 24.640625 163.746094 24.425781 163.636719 24.28125 163.457031 C 20.160156 158 16.835938 151.96875 14.378906 145.5 C 14.199219 145.03125 14.558594 144.488281 15.066406 144.488281 Z M 15.101562 144.488281 " fill-opacity="1" fill-rule="nonzero"/><path fill="#288ec8" d="M 47.222656 144.488281 L 79.234375 144.488281 C 79.632812 144.488281 79.957031 144.8125 79.957031 145.210938 L 79.957031 162.988281 C 79.957031 163.386719 79.632812 163.710938 79.234375 163.710938 L 52.390625 163.710938 C 52.101562 163.710938 51.8125 163.53125 51.703125 163.242188 C 49.570312 157.820312 47.800781 151.789062 46.5 145.320312 C 46.390625 144.851562 46.753906 144.417969 47.222656 144.417969 Z M 47.222656 144.488281 " fill-opacity="1" fill-rule="nonzero"/><g clip-path="url(#e5ea53fd84)"><path fill="#38b6ff" d="M 84.90625 187.410156 L 92.636719 187.410156 C 93.398438 187.410156 93.648438 188.386719 93.035156 188.785156 C 90.46875 190.300781 87.796875 191.3125 85.050781 191.785156 C 84.617188 191.855469 84.183594 191.496094 84.183594 191.0625 L 84.183594 188.207031 C 84.183594 187.808594 84.507812 187.484375 84.941406 187.484375 Z M 84.90625 187.410156 " fill-opacity="1" fill-rule="nonzero"/></g><g clip-path="url(#2fdb1e34e5)"><path fill="#38b6ff" d="M 79.957031 188.171875 L 79.957031 191.097656 C 79.957031 191.53125 79.558594 191.890625 79.125 191.855469 C 76.234375 191.457031 73.417969 190.445312 70.707031 188.855469 C 70.054688 188.496094 70.34375 187.484375 71.105469 187.484375 C 73.8125 187.484375 76.558594 187.484375 79.234375 187.449219 C 79.632812 187.449219 79.957031 187.773438 79.957031 188.171875 Z M 79.957031 188.171875 " fill-opacity="1" fill-rule="nonzero"/></g><path fill="#38b6ff" d="M 101.164062 187.554688 C 101.308594 187.410156 101.488281 187.339844 101.671875 187.339844 L 108.210938 187.339844 C 104.777344 188.675781 101.199219 189.761719 97.550781 190.554688 C 98.78125 189.652344 99.972656 188.640625 101.164062 187.519531 Z M 101.164062 187.554688 " fill-opacity="1" fill-rule="nonzero"/><path fill="#2fa2e4" d="M 99.574219 183.148438 C 95.566406 183.148438 90.722656 183.148438 84.90625 183.183594 C 84.507812 183.183594 84.148438 182.859375 84.148438 182.460938 L 84.148438 168.695312 C 84.148438 168.296875 84.472656 167.972656 84.871094 167.972656 L 108.679688 167.972656 C 109.222656 167.972656 109.582031 168.550781 109.367188 169.058594 C 106.691406 174.550781 103.585938 179.246094 100.117188 182.929688 C 99.972656 183.074219 99.792969 183.148438 99.574219 183.183594 Z M 99.574219 183.148438 " fill-opacity="1" fill-rule="nonzero"/><path fill="#2fa2e4" d="M 29.699219 167.972656 L 48.777344 167.972656 C 49.066406 167.972656 49.316406 168.152344 49.425781 168.40625 C 51.773438 173.609375 54.519531 178.269531 57.554688 182.171875 C 57.917969 182.640625 57.589844 183.363281 56.976562 183.363281 C 52.640625 183.363281 49.316406 183.4375 47.582031 183.4375 C 47.4375 183.4375 47.332031 183.4375 47.222656 183.328125 C 40.464844 179.609375 34.359375 174.800781 29.121094 169.203125 C 28.6875 168.730469 29.011719 167.9375 29.664062 167.9375 Z M 29.699219 167.972656 " fill-opacity="1" fill-rule="nonzero"/><path fill="#38b6ff" d="M 62.070312 187.519531 C 62.253906 187.519531 62.433594 187.59375 62.578125 187.738281 C 63.625 188.710938 64.671875 189.617188 65.757812 190.445312 C 62.542969 189.6875 59.398438 188.75 56.363281 187.59375 C 58.242188 187.59375 60.15625 187.59375 62.070312 187.554688 Z M 62.070312 187.519531 " fill-opacity="1" fill-rule="nonzero"/><path fill="#2fa2e4" d="M 116.519531 183.402344 C 114.675781 183.257812 111.714844 183.183594 106.765625 183.148438 C 106.152344 183.148438 105.824219 182.460938 106.1875 181.957031 C 109.148438 178.089844 111.824219 173.5 114.171875 168.40625 C 114.28125 168.152344 114.53125 167.972656 114.820312 167.972656 L 134.441406 167.972656 C 135.089844 167.972656 135.417969 168.730469 134.984375 169.238281 C 129.78125 174.839844 123.710938 179.609375 116.953125 183.328125 C 116.808594 183.402344 116.664062 183.4375 116.519531 183.4375 Z M 116.519531 183.402344 " fill-opacity="1" fill-rule="nonzero"/><path fill="#d9d9d9" d="M 79.234375 122.089844 L 44.835938 122.089844 C 44.402344 122.089844 44.078125 122.414062 44.078125 122.847656 C 44.1875 128.664062 44.691406 134.265625 45.488281 139.648438 C 45.488281 139.648438 45.523438 139.648438 45.523438 139.648438 C 45.558594 140.007812 45.886719 140.261719 46.246094 140.261719 L 79.234375 140.261719 C 79.632812 140.261719 79.957031 139.9375 79.957031 139.539062 L 79.957031 122.8125 C 79.957031 122.414062 79.632812 122.089844 79.234375 122.089844 Z M 79.234375 122.089844 " fill-opacity="1" fill-rule="nonzero"/><path fill="#d9d9d9" d="M 118.722656 122.089844 L 84.871094 122.089844 C 84.472656 122.089844 84.148438 122.414062 84.148438 122.8125 L 84.148438 139.539062 L 84.183594 139.539062 C 84.183594 139.9375 84.507812 140.261719 84.90625 140.261719 L 117.351562 140.261719 C 117.710938 140.261719 118 140.007812 118.074219 139.648438 C 118.867188 134.265625 119.339844 128.664062 119.484375 122.847656 C 119.484375 122.449219 119.15625 122.089844 118.722656 122.089844 Z M 118.722656 122.089844 " fill-opacity="1" fill-rule="nonzero"/><path fill="#d9d9d9" d="M 39.851562 122.8125 C 39.851562 122.414062 39.527344 122.089844 39.128906 122.089844 L 10.550781 122.089844 C 10.117188 122.089844 9.792969 122.414062 9.792969 122.847656 C 10.042969 128.664062 10.949219 134.335938 12.5 139.71875 C 12.609375 140.042969 12.898438 140.261719 13.222656 140.261719 L 40.503906 140.261719 C 40.9375 140.261719 41.296875 139.863281 41.226562 139.429688 C 40.429688 134.121094 39.960938 128.554688 39.851562 122.8125 Z M 39.851562 122.8125 " fill-opacity="1" fill-rule="nonzero"/><path fill="#d9d9d9" d="M 153.554688 122.125 L 124.433594 122.125 C 124.035156 122.125 123.710938 122.449219 123.710938 122.847656 C 123.601562 128.554688 123.132812 134.121094 122.335938 139.464844 C 122.265625 139.898438 122.625 140.296875 123.058594 140.296875 L 150.878906 140.296875 C 151.207031 140.296875 151.492188 140.082031 151.601562 139.753906 C 153.15625 134.371094 154.09375 128.699219 154.3125 122.882812 C 154.3125 122.484375 153.988281 122.125 153.554688 122.125 Z M 153.554688 122.125 " fill-opacity="1" fill-rule="nonzero"/><path fill="#d9d9d9" d="M 89.945312 44.597656 C 90.769531 43.636719 93.953125 41.230469 94.359375 40.3125 C 94.648438 39.660156 94.390625 38.882812 94.613281 38.15625 C 95.277344 35.984375 99.03125 35.9375 99.523438 38.097656 C 100.175781 40.941406 98.339844 41.589844 95.953125 41.902344 L 85.804688 52.09375 C 85.210938 55.496094 86.121094 59.621094 85.679688 62.9375 C 85.628906 63.316406 85.605469 63.621094 85.277344 63.878906 L 76.375 72.640625 L 61.851562 72.835938 L 53.15625 81.53125 L 53.15625 98.917969 C 56.398438 101.074219 53.160156 105.832031 50.191406 103.21875 C 48.199219 101.460938 49.695312 100.09375 50.871094 98.511719 L 51.015625 80.457031 L 60.78125 70.691406 L 75.304688 70.496094 L 83.003906 62.9375 L 83.308594 51.472656 L 87.527344 46.863281 C 87.65625 46.199219 87.675781 40.519531 87.539062 39.964844 C 87.433594 39.542969 85.667969 39.324219 86.253906 36.753906 C 87.09375 33.070312 93.351562 35.769531 90.753906 39.308594 C 90.277344 39.960938 89.941406 39.367188 89.941406 40.445312 L 89.941406 44.59375 Z M 89.945312 44.597656 " fill-opacity="1" fill-rule="nonzero"/><path fill="#d9d9d9" d="M 57.964844 117.859375 C 58.636719 117.859375 59.183594 117.320312 59.183594 116.644531 C 59.226562 106.046875 58.914062 95.382812 59.421875 84.855469 L 64.394531 80.191406 L 87.8125 80.054688 C 91.964844 75.828125 96.09375 71.554688 100.402344 67.492188 C 100.664062 67.246094 100.878906 66.644531 100.96875 66.59375 C 101.59375 66.246094 102.902344 66.882812 104.007812 65.75 C 104.902344 64.835938 104.90625 63 104.042969 62.070312 C 103.085938 61.039062 101.277344 61.046875 100.238281 61.980469 C 99.246094 62.878906 99.761719 63.785156 99.574219 64.796875 C 99.351562 66.003906 94.8125 69.066406 94.109375 70.5625 L 86.671875 77.851562 L 63.324219 78.050781 L 57.015625 84.054688 C 56.421875 94.832031 56.941406 105.777344 56.75 116.617188 C 56.738281 117.300781 57.285156 117.859375 57.96875 117.859375 Z M 57.964844 117.859375 " fill-opacity="1" fill-rule="nonzero"/><path fill="#d9d9d9" d="M 64 107.339844 L 63.949219 116.796875 C 63.949219 117.382812 64.425781 117.859375 65.011719 117.859375 L 65.054688 117.859375 C 65.640625 117.859375 66.117188 117.382812 66.117188 116.796875 L 66.109375 107.335938 C 66.097656 106.507812 66.871094 106.226562 67.25 105.53125 C 68.359375 103.488281 66.671875 101.261719 64.457031 101.644531 C 62.84375 101.925781 61.976562 103.808594 62.585938 105.273438 C 62.90625 106.046875 64.046875 106.382812 64 107.332031 Z M 64 107.339844 " fill-opacity="1" fill-rule="nonzero"/><path fill="#d9d9d9" d="M 151.226562 99.855469 L 151.226562 116.800781 C 151.226562 117.386719 151.699219 117.859375 152.285156 117.859375 L 152.617188 117.859375 C 153.199219 117.859375 153.671875 117.390625 153.675781 116.804688 L 153.769531 99.726562 C 158.421875 95.402344 149.492188 92.5625 149.867188 97.710938 C 149.964844 99.070312 151.101562 99.425781 151.222656 99.855469 Z M 151.226562 99.855469 " fill-opacity="1" fill-rule="nonzero"/><path fill="#d9d9d9" d="M 145.601562 106.824219 L 145.636719 116.804688 C 145.636719 117.390625 146.113281 117.859375 146.695312 117.859375 L 146.753906 117.859375 C 147.351562 117.859375 147.832031 117.367188 147.8125 116.769531 C 147.675781 112.488281 147.347656 106.976562 147.804688 106.203125 C 148.003906 105.867188 148.882812 105.851562 149.179688 104.476562 C 149.882812 101.230469 144.964844 100.054688 144.128906 103.195312 C 143.492188 105.578125 145.363281 105.582031 145.601562 106.820312 Z M 145.601562 106.824219 " fill-opacity="1" fill-rule="nonzero"/><path fill="#d9d9d9" d="M 122.058594 91.160156 L 118.320312 95.046875 C 118.667969 97.804688 117.828125 101.8125 118.320312 104.402344 C 118.542969 105.582031 120.730469 106.035156 119.585938 108.363281 C 118.300781 110.980469 114.53125 109.816406 114.558594 107.078125 C 114.570312 105.664062 115.984375 105.363281 116.164062 104.402344 C 116.734375 101.433594 115.710938 96.90625 116.226562 93.757812 L 124.460938 85.132812 L 124.484375 58.097656 C 124.484375 57.128906 123.402344 56.871094 123.1875 55.910156 C 122.28125 51.925781 128.242188 51.417969 128.242188 55.167969 C 128.242188 56.808594 127.027344 56.882812 126.863281 58.097656 L 126.871094 85.9375 C 126.652344 87.089844 124.382812 87.960938 124.1875 89.410156 C 124.070312 90.265625 124.03125 95.390625 124.195312 96.058594 C 124.292969 96.460938 125.910156 96.582031 125.523438 99.039062 C 125.125 101.578125 121.261719 101.742188 120.582031 99.195312 C 119.96875 96.90625 122.058594 96.199219 122.058594 95.84375 Z M 122.058594 91.160156 " fill-opacity="1" fill-rule="nonzero"/><path fill="#d9d9d9" d="M 45.378906 116.734375 L 45.3125 78.503906 L 57.300781 66.144531 C 57.785156 65.921875 60.339844 65.894531 60.917969 66 C 61.542969 66.113281 61.480469 66.597656 61.667969 66.714844 C 66.734375 69.867188 68.003906 61.078125 62.582031 62.332031 C 61.570312 62.566406 61.480469 63.699219 60.636719 63.859375 C 59.433594 64.09375 57.273438 63.527344 56.234375 64 L 43.171875 77.164062 L 43.136719 116.734375 C 43.136719 117.355469 43.636719 117.855469 44.257812 117.855469 C 44.882812 117.855469 45.382812 117.351562 45.382812 116.730469 Z M 45.378906 116.734375 " fill-opacity="1" fill-rule="nonzero"/><path fill="#d9d9d9" d="M 73.640625 117.859375 C 74.230469 117.859375 74.703125 117.382812 74.703125 116.796875 L 74.675781 103.589844 C 74.644531 102.675781 75.597656 102.414062 75.96875 101.671875 C 76.972656 99.644531 75.085938 97.445312 73.011719 97.902344 C 72.042969 98.121094 71.007812 99.4375 70.964844 100.417969 C 70.890625 102.066406 72.398438 102.339844 72.5625 103.59375 L 72.578125 116.800781 C 72.578125 117.386719 73.054688 117.863281 73.640625 117.863281 Z M 73.640625 117.859375 " fill-opacity="1" fill-rule="nonzero"/><path fill="#d9d9d9" d="M 101.445312 112.863281 C 101.128906 112.65625 100.933594 112.304688 100.933594 111.925781 L 100.933594 101.148438 C 100.898438 100.710938 100.714844 100.296875 100.402344 99.984375 L 93.128906 92.625 C 92.800781 92.289062 92.347656 92.101562 91.878906 92.097656 L 67.847656 91.972656 C 66.417969 91.78125 66.292969 89.9375 64.175781 90.40625 C 62.019531 90.882812 61.367188 94.074219 63.46875 95.28125 C 65.757812 96.589844 66.449219 94.269531 67.847656 94.085938 L 90.804688 94.234375 C 91.277344 94.234375 91.722656 94.425781 92.054688 94.761719 L 97.941406 100.730469 C 98.265625 101.0625 98.460938 101.503906 98.476562 101.972656 L 98.6875 112.132812 C 98.695312 112.46875 98.554688 112.800781 98.289062 113.011719 C 97.5625 113.585938 97.136719 114.527344 97.285156 115.550781 C 97.457031 116.75 98.457031 117.710938 99.660156 117.84375 C 101.300781 118.023438 102.6875 116.746094 102.6875 115.144531 C 102.6875 114.1875 102.1875 113.34375 101.4375 112.863281 Z M 101.445312 112.863281 " fill-opacity="1" fill-rule="nonzero"/><path fill="#d9d9d9" d="M 102.398438 95.6875 C 102.683594 95.851562 106.699219 99.859375 107.164062 100.472656 C 107.191406 100.507812 107.203125 100.550781 107.203125 100.59375 L 107.507812 112.667969 C 107.167969 114.175781 105.765625 114.09375 106.007812 116.15625 C 106.101562 116.925781 106.476562 117.492188 106.980469 117.859375 L 110.148438 117.859375 C 110.839844 117.347656 111.28125 116.445312 111.074219 115.128906 C 110.890625 113.96875 109.824219 113.792969 109.738281 112.71875 L 109.757812 93.03125 C 109.757812 92.726562 109.859375 92.429688 110.050781 92.1875 C 110.78125 91.246094 112.660156 89.296875 112.964844 89.160156 C 113.914062 88.730469 114.863281 89.511719 116.046875 88.761719 C 118.722656 87.0625 116.519531 82.925781 113.566406 84.140625 C 112.011719 84.78125 112.25 86.253906 111.632812 87.292969 C 111.175781 88.050781 108.675781 90.0625 107.714844 91.074219 C 107.472656 91.328125 107.34375 91.664062 107.34375 92.011719 L 107.34375 96.8125 C 107.34375 97.003906 107.117188 97.101562 106.972656 96.964844 L 104.003906 94.125 C 104.882812 87.246094 95.828125 91.382812 99.703125 94.921875 C 100.679688 95.8125 101.867188 95.390625 102.398438 95.691406 Z M 102.398438 95.6875 " fill-opacity="1" fill-rule="nonzero"/><path fill="#d9d9d9" d="M 50.878906 114.574219 L 50.851562 116.777344 C 50.847656 117.375 51.332031 117.859375 51.925781 117.859375 C 52.515625 117.859375 52.992188 117.386719 53 116.796875 L 53.019531 114.582031 C 53.171875 113.785156 54.566406 113.054688 54.59375 111.902344 C 54.621094 110.566406 53.230469 109.09375 51.886719 109.144531 C 49.796875 109.230469 48.566406 111.519531 49.746094 113.296875 C 50.117188 113.859375 50.761719 113.960938 50.882812 114.570312 L 50.878906 114.570312 Z M 50.878906 114.574219 " fill-opacity="1" fill-rule="nonzero"/><path fill="#d9d9d9" d="M 137.902344 100.183594 L 137.871094 116.800781 C 137.871094 117.386719 138.34375 117.863281 138.929688 117.863281 C 139.511719 117.863281 139.988281 117.390625 139.988281 116.808594 L 140.039062 101.253906 L 150.820312 90.359375 C 151.246094 89.417969 150.765625 87.796875 150.964844 86.757812 C 151.1875 85.582031 152.628906 85.503906 152.277344 83.289062 C 152.070312 81.976562 150.507812 81.082031 149.28125 81.316406 C 147.472656 81.660156 146.691406 83.5625 147.40625 85.214844 C 147.71875 85.929688 148.613281 86.078125 148.769531 86.527344 C 148.929688 86.996094 148.890625 88.820312 148.675781 89.289062 L 137.898438 100.1875 L 137.902344 100.1875 Z M 137.902344 100.183594 " fill-opacity="1" fill-rule="nonzero"/><path fill="#d9d9d9" d="M 48.613281 51.710938 C 48.5625 51.800781 48.09375 51.839844 48.179688 52.210938 L 48.144531 65.285156 L 39.238281 74.308594 L 39.09375 83.484375 C 40.722656 84.242188 41.003906 86.667969 39.621094 87.808594 C 36.644531 90.261719 33.296875 85.46875 36.695312 83.484375 L 36.746094 73.691406 L 45.734375 64.480469 L 45.792969 52.492188 C 45.664062 51.84375 44.441406 51.484375 44.234375 50.28125 C 43.710938 47.246094 47.914062 45.945312 49.207031 48.542969 C 49.9375 50.019531 49.257812 50.535156 48.613281 51.714844 Z M 48.613281 51.710938 " fill-opacity="1" fill-rule="nonzero"/><path fill="#d9d9d9" d="M 65.410156 87.601562 C 63.703125 85.667969 65.597656 82.476562 68.195312 83.335938 C 69.179688 83.660156 69.554688 84.683594 70.535156 84.753906 L 90.296875 84.6875 L 100.140625 74.980469 C 100.042969 73.417969 100.402344 71.761719 102.191406 71.417969 C 104.941406 70.890625 106.597656 74.121094 104.539062 75.917969 C 103.539062 76.792969 102.554688 76.140625 101.574219 76.699219 L 91.363281 86.828125 L 70.53125 86.867188 C 69.289062 87.035156 68.996094 88.523438 67.324219 88.496094 C 66.820312 88.492188 65.71875 87.953125 65.40625 87.601562 Z M 65.410156 87.601562 " fill-opacity="1" fill-rule="nonzero"/><path fill="#d9d9d9" d="M 132.820312 67.128906 L 132.75 97.730469 C 132.925781 99.058594 134.464844 99.195312 134.386719 100.921875 C 134.230469 104.347656 129.15625 104.195312 129.101562 100.878906 C 129.074219 99.234375 130.578125 98.765625 130.640625 98.261719 L 130.480469 67.078125 C 127.46875 65.253906 129.8125 60.847656 133.125 62.558594 C 134.859375 63.457031 134.730469 66.484375 132.816406 67.128906 Z M 132.820312 67.128906 " fill-opacity="1" fill-rule="nonzero"/><g clip-path="url(#620c172afe)"><path fill="#d9d9d9" d="M 9.148438 105.46875 L 9.148438 116.675781 C 9.148438 117.328125 9.675781 117.859375 10.332031 117.859375 C 10.988281 117.859375 11.519531 117.328125 11.519531 116.675781 L 11.519531 105.726562 C 11.351562 105.03125 12.082031 104.949219 12.238281 104.714844 C 15.109375 100.355469 8.152344 98.449219 7.777344 102.535156 C 7.582031 104.667969 9.042969 104.769531 9.148438 105.472656 Z M 9.148438 105.46875 " fill-opacity="1" fill-rule="nonzero"/></g><path fill="#d9d9d9" d="M 16.40625 116.394531 C 16.800781 116.777344 17.191406 117.160156 17.582031 117.546875 C 17.785156 117.75 18.0625 117.859375 18.347656 117.859375 C 19.316406 117.859375 19.804688 116.691406 19.125 116.003906 L 18.898438 115.777344 C 18.675781 115.28125 18.636719 110.710938 18.765625 110.03125 C 18.90625 109.296875 19.75 109.015625 19.980469 108.300781 C 21.25 104.359375 15.15625 103.441406 14.992188 107.074219 C 14.902344 108.988281 16.15625 109.035156 16.347656 110.03125 C 16.695312 111.84375 16.054688 114.480469 16.410156 116.394531 Z M 16.40625 116.394531 " fill-opacity="1" fill-rule="nonzero"/><path fill="#d9d9d9" d="M 90.386719 68.324219 C 89.605469 69.136719 87.496094 70.589844 86.988281 71.480469 C 86.394531 72.515625 86.816406 74.199219 85.140625 74.71875 C 82.460938 75.550781 80.382812 72.800781 82.054688 70.5625 C 83.171875 69.070312 84.898438 70.175781 85.535156 69.777344 C 85.941406 69.523438 90.980469 64.492188 91.140625 64.132812 L 91.398438 53.6875 C 91.734375 52.601562 94.039062 51.265625 94.363281 50.480469 C 94.609375 49.894531 93.9375 49.289062 94.882812 48.066406 C 97.523438 44.640625 101.863281 49.988281 98.214844 51.941406 C 97.292969 52.4375 96.46875 51.929688 95.84375 52.222656 C 95.707031 52.285156 93.890625 54.105469 93.832031 54.242188 C 93.015625 56.039062 94.199219 62.445312 93.636719 64.753906 C 92.511719 65.890625 91.484375 67.179688 90.382812 68.328125 Z M 90.386719 68.324219 " fill-opacity="1" fill-rule="nonzero"/><path fill="#d9d9d9" d="M 58.023438 39.304688 C 59.484375 38.96875 60.824219 39.617188 61.199219 41.101562 C 61.351562 41.726562 61.199219 42.433594 61.449219 42.992188 C 61.710938 43.582031 63.199219 44.390625 63.398438 45.058594 L 63.398438 54.851562 C 63.289062 55.210938 58.441406 60.097656 58.09375 60.25 C 57.246094 60.636719 56.203125 60.191406 55.34375 60.445312 C 54.851562 60.589844 54.484375 61.371094 53.890625 61.667969 C 51.257812 62.984375 48.503906 59.320312 51.132812 57.304688 C 53.859375 55.207031 54.507812 58.90625 56.84375 58.195312 C 57.660156 57.945312 60.390625 54.535156 61.257812 53.78125 C 61.425781 53.21875 61.425781 46.6875 61.257812 46.128906 C 61.1875 45.890625 59.917969 44.566406 59.707031 44.46875 C 58.867188 44.097656 57.976562 44.605469 57.039062 43.925781 C 55.359375 42.703125 56.054688 39.75 58.023438 39.304688 Z M 58.023438 39.304688 " fill-opacity="1" fill-rule="nonzero"/><path fill="#d9d9d9" d="M 76.355469 42.511719 L 76.292969 61.585938 C 76.183594 62.425781 74.839844 62.984375 74.550781 63.609375 C 74.203125 64.363281 74.902344 65.105469 74.039062 66.292969 C 72.316406 68.660156 68.503906 66.925781 69.460938 63.851562 C 70.191406 61.5 73.796875 63.0625 74.171875 60.265625 C 74.851562 55.1875 73.625 48.621094 74.171875 43.378906 C 73.972656 41.882812 71.136719 40.992188 73.230469 38.453125 C 75.6875 35.480469 80.125 40.539062 76.355469 42.511719 Z M 76.355469 42.511719 " fill-opacity="1" fill-rule="nonzero"/><path fill="#d9d9d9" d="M 31.535156 57.496094 C 35.285156 56.679688 36.257812 62.304688 32.480469 62.742188 C 31.996094 62.796875 31.597656 62.429688 31.078125 62.648438 C 30.679688 62.824219 29.097656 64.632812 28.984375 65.128906 L 28.921875 79.257812 C 29.097656 80.160156 31.296875 80.710938 30.328125 83.066406 C 29.160156 85.914062 24.386719 84.707031 25.566406 80.980469 C 25.816406 80.195312 26.84375 79.898438 26.796875 79.003906 L 26.789062 64.007812 C 26.984375 62.980469 29.226562 61.753906 29.589844 60.921875 C 30.058594 59.863281 29.472656 57.945312 31.527344 57.5 L 31.535156 57.5 Z M 31.535156 57.496094 " fill-opacity="1" fill-rule="nonzero"/><path fill="#d9d9d9" d="M 138.058594 73.285156 C 137.992188 73.175781 137.441406 73.046875 137.179688 72.703125 C 135.054688 69.90625 139.214844 66.726562 141.289062 69.390625 C 143.179688 71.824219 140.488281 72.703125 140.261719 73.910156 C 140.046875 75.027344 140.035156 86.84375 140.390625 87.417969 C 140.535156 87.644531 141.058594 87.804688 141.386719 88.296875 C 143.804688 91.9375 137.371094 94.023438 136.792969 90.484375 C 136.394531 88.054688 137.476562 88.515625 137.972656 87.417969 C 138.265625 86.773438 138.414062 73.902344 138.058594 73.292969 Z M 138.058594 73.285156 " fill-opacity="1" fill-rule="nonzero"/><path fill="#d9d9d9" d="M 28.222656 106.777344 C 30.589844 104.539062 32.941406 102.300781 35.230469 99.984375 C 34.886719 97.878906 35.785156 96.0625 38.15625 96.230469 C 40.183594 96.371094 41.054688 98.785156 39.90625 100.398438 C 38.972656 101.703125 37.820312 101.007812 36.804688 101.585938 C 36.277344 101.878906 28.628906 109.550781 28.242188 110.148438 C 27.527344 111.25 28.222656 112.460938 26.929688 113.378906 C 23.3125 115.957031 20.699219 109.191406 25.121094 108.605469 C 25.636719 108.535156 26.125 108.855469 26.515625 108.703125 C 27.042969 108.488281 27.796875 107.175781 28.222656 106.78125 Z M 28.222656 106.777344 " fill-opacity="1" fill-rule="nonzero"/><path fill="#d9d9d9" d="M 69.503906 56.472656 C 72.398438 60.875 65.613281 62.609375 65.066406 58.894531 C 64.777344 56.941406 65.816406 57.0625 66.253906 56.101562 C 66.496094 55.574219 66.574219 45.425781 66.390625 44.46875 C 66.1875 43.410156 64.757812 43.351562 65.066406 41.273438 C 65.558594 37.957031 71.355469 38.578125 70.019531 42.738281 C 69.816406 43.382812 69.125 43.667969 68.941406 44.066406 C 68.699219 44.597656 68.617188 54.730469 68.800781 55.710938 C 68.910156 56.320312 69.367188 56.261719 69.503906 56.46875 Z M 69.503906 56.472656 " fill-opacity="1" fill-rule="nonzero"/><path fill="#d9d9d9" d="M 111.796875 62.433594 C 109.980469 64.292969 106.347656 62.3125 107.546875 59.382812 C 108.296875 57.546875 110.015625 58.316406 111.082031 57.839844 C 111.210938 57.785156 113.027344 55.96875 113.085938 55.832031 C 113.566406 54.785156 112.945312 52.875 113.28125 51.742188 C 113.488281 51.046875 115.160156 50.085938 115.492188 49.402344 C 115.800781 48.746094 115.648438 47.761719 116.257812 47.089844 C 118.269531 44.84375 121.945312 47.25 120.507812 50.140625 C 119.246094 52.675781 116.636719 50.300781 115.777344 52.363281 C 115.304688 53.488281 115.921875 55.308594 115.582031 56.449219 C 115.34375 57.253906 112.945312 58.78125 112.554688 59.601562 C 112.234375 60.261719 112.847656 61.355469 111.792969 62.433594 Z M 111.796875 62.433594 " fill-opacity="1" fill-rule="nonzero"/><path fill="#d9d9d9" d="M 41.03125 58.03125 C 40.554688 58.832031 41.410156 63.132812 40.835938 64.394531 C 40.488281 65.15625 38.230469 66.597656 37.902344 67.347656 C 37.472656 68.3125 38.160156 69.289062 37.097656 70.292969 C 33.6875 73.519531 30.398438 66.882812 34.550781 65.847656 C 35.234375 65.679688 35.753906 66.039062 36.152344 65.878906 C 36.332031 65.808594 38.445312 63.621094 38.511719 63.410156 L 38.722656 58.363281 C 33.570312 53.453125 42.984375 50.976562 42.523438 55.90625 C 42.378906 57.449219 41.28125 57.609375 41.03125 58.027344 Z M 41.03125 58.03125 " fill-opacity="1" fill-rule="nonzero"/><path fill="#d9d9d9" d="M 31.800781 89.875 C 35.015625 89.164062 36.464844 93.75 33.28125 94.859375 C 32.617188 95.089844 32.152344 94.859375 31.804688 94.960938 C 31.433594 95.074219 26.46875 99.980469 26.242188 100.375 C 25.632812 101.429688 26.289062 102.597656 24.910156 103.589844 C 22.546875 105.28125 19.566406 102.625 21.054688 100.269531 C 22.328125 98.246094 23.871094 99.351562 24.523438 98.941406 C 24.910156 98.703125 29.738281 93.914062 29.878906 93.558594 C 30.046875 93.144531 29.714844 92.777344 29.761719 92.386719 C 29.875 91.363281 30.777344 90.097656 31.804688 89.871094 L 31.800781 89.871094 Z M 31.800781 89.875 " fill-opacity="1" fill-rule="nonzero"/><path fill="#d9d9d9" d="M 119.4375 70.609375 C 119.292969 70.855469 119.285156 75.761719 119.390625 76.304688 C 119.53125 77.039062 120.375 77.324219 120.597656 78.035156 C 121.835938 81.964844 116.125 82.761719 115.644531 79.5 C 115.339844 77.417969 116.765625 77.367188 116.96875 76.304688 C 117.132812 75.445312 117.105469 71.898438 116.992188 70.949219 C 116.925781 70.359375 116.035156 70.382812 115.753906 69.5 C 114.339844 65.070312 121.441406 64.332031 120.703125 69.066406 C 120.5 70.355469 119.625 70.300781 119.4375 70.609375 Z M 119.4375 70.609375 " fill-opacity="1" fill-rule="nonzero"/><path fill="#d9d9d9" d="M 25.628906 91.605469 C 24.3125 92.890625 21.832031 92.414062 21.289062 90.644531 C 21.097656 90.015625 21.289062 89.339844 21.03125 88.757812 C 20.941406 88.546875 18.035156 85.640625 17.835938 85.527344 C 16.828125 84.960938 15.601562 85.660156 14.628906 84.457031 C 12.890625 82.308594 15.226562 79.03125 18.058594 80.496094 C 19.757812 81.371094 18.957031 82.863281 19.433594 83.933594 C 19.519531 84.125 22.171875 86.792969 22.359375 86.898438 C 23.445312 87.511719 24.464844 86.695312 25.597656 87.941406 C 26.480469 88.914062 26.601562 90.65625 25.628906 91.605469 Z M 25.628906 91.605469 " fill-opacity="1" fill-rule="nonzero"/><path fill="#d9d9d9" d="M 112.609375 77.597656 C 115.019531 79.730469 112.101562 83.667969 109.347656 81.796875 C 106.273438 79.707031 109.984375 75.273438 112.609375 77.597656 Z M 112.609375 77.597656 " fill-opacity="1" fill-rule="nonzero"/><path fill="#d9d9d9" d="M 101.117188 83.179688 C 104.40625 82.632812 105.359375 88.128906 101.824219 88.480469 C 98.402344 88.820312 97.835938 83.722656 101.117188 83.179688 Z M 101.117188 83.179688 " fill-opacity="1" fill-rule="nonzero"/><path fill="#d9d9d9" d="M 15.746094 92.285156 C 19.699219 91.40625 20.167969 97.6875 16.316406 97.4375 C 13.0625 97.226562 13.058594 92.878906 15.746094 92.285156 Z M 15.746094 92.285156 " fill-opacity="1" fill-rule="nonzero"/><path fill="#d9d9d9" d="M 101.265625 56.289062 C 98.597656 53.808594 102.753906 49.871094 105.082031 52.609375 C 107.257812 55.167969 103.621094 58.476562 101.265625 56.289062 Z M 101.265625 56.289062 " fill-opacity="1" fill-rule="nonzero"/><path fill="#d9d9d9" d="M 103.6875 43.621094 C 106.308594 41.054688 110.007812 45.171875 107.359375 47.425781 C 104.597656 49.769531 101.515625 45.746094 103.6875 43.621094 Z M 103.6875 43.621094 " fill-opacity="1" fill-rule="nonzero"/><path fill="#d9d9d9" d="M 110.207031 69.539062 C 114.605469 68.539062 114.636719 75.710938 109.949219 74.5 C 107.695312 73.921875 107.84375 70.074219 110.207031 69.539062 Z M 110.207031 69.539062 " fill-opacity="1" fill-rule="nonzero"/><path fill="#d9d9d9" d="M 54.542969 47.597656 C 59.398438 46.488281 58.628906 53.839844 54.335938 52.503906 C 52.109375 51.8125 52.234375 48.125 54.542969 47.597656 Z M 54.542969 47.597656 " fill-opacity="1" fill-rule="nonzero"/><path fill="#d9d9d9" d="M 80.78125 42.507812 C 84.457031 41.871094 85.023438 47.453125 81.453125 47.753906 C 78.414062 48.007812 77.609375 43.058594 80.78125 42.507812 Z M 80.78125 42.507812 " fill-opacity="1" fill-rule="nonzero"/><path fill="#d9d9d9" d="M 18.054688 73.328125 C 20.261719 71.121094 24.234375 74.371094 21.851562 76.992188 C 19.433594 79.648438 15.714844 75.664062 18.054688 73.328125 Z M 18.054688 73.328125 " fill-opacity="1" fill-rule="nonzero"/><path fill="#d9d9d9" d="M 29.894531 116.785156 C 28.609375 115.46875 29.085938 112.992188 30.855469 112.445312 C 31.484375 112.253906 32.160156 112.445312 32.742188 112.1875 C 32.949219 112.097656 35.859375 109.191406 35.972656 108.996094 C 36.539062 107.988281 35.835938 106.757812 37.039062 105.785156 C 39.191406 104.046875 42.46875 106.382812 41.003906 109.214844 C 40.128906 110.914062 38.636719 110.113281 37.566406 110.589844 C 37.375 110.675781 34.707031 113.332031 34.601562 113.519531 C 33.988281 114.601562 34.804688 115.621094 33.558594 116.753906 C 32.585938 117.636719 30.84375 117.757812 29.894531 116.785156 Z M 29.894531 116.785156 " fill-opacity="1" fill-rule="nonzero"/><path fill="#d9d9d9" d="M 121.917969 115.03125 C 122.714844 114.558594 127.019531 115.410156 128.28125 114.835938 C 129.042969 114.488281 130.484375 112.230469 131.230469 111.902344 C 132.195312 111.476562 133.171875 112.164062 134.175781 111.101562 C 137.402344 107.691406 130.769531 104.402344 129.734375 108.554688 C 129.5625 109.238281 129.925781 109.757812 129.765625 110.15625 C 129.691406 110.335938 127.507812 112.449219 127.292969 112.511719 L 122.25 112.726562 C 117.335938 107.574219 114.863281 116.988281 119.789062 116.527344 C 121.332031 116.382812 121.496094 115.285156 121.914062 115.035156 Z M 121.917969 115.03125 " fill-opacity="1" fill-rule="nonzero"/><path fill="#d9d9d9" d="M 81.820312 117.839844 C 82.40625 117.839844 82.878906 117.363281 82.878906 116.777344 L 82.863281 109.164062 C 82.832031 108.25 83.785156 107.988281 84.15625 107.246094 C 85.160156 105.21875 83.273438 103.019531 81.199219 103.476562 C 80.230469 103.695312 79.195312 105.011719 79.152344 105.992188 C 79.078125 107.640625 80.585938 107.914062 80.75 109.167969 L 80.757812 116.785156 C 80.757812 117.371094 81.230469 117.84375 81.816406 117.84375 Z M 81.820312 117.839844 " fill-opacity="1" fill-rule="nonzero"/><path fill="#d9d9d9" d="M 90.59375 117.839844 C 91.179688 117.839844 91.652344 117.363281 91.652344 116.777344 L 91.644531 112.359375 C 91.613281 111.445312 92.566406 111.183594 92.933594 110.441406 C 93.9375 108.414062 92.050781 106.210938 89.980469 106.671875 C 89.011719 106.886719 87.972656 108.207031 87.929688 109.1875 C 87.859375 110.832031 89.363281 111.109375 89.53125 112.363281 L 89.53125 116.785156 C 89.539062 117.371094 90.011719 117.84375 90.59375 117.84375 Z M 90.59375 117.839844 " fill-opacity="1" fill-rule="nonzero"/><g transform="matrix(1, 0, 0, 1, 158, 61)"><g clip-path="url(#5080365bb2)"><g fill="#d9d9d9" fill-opacity="0.4"><g transform="translate(3.683348, 77.858523)"><g><path d="M 1.875 0 L 18.421875 -24.875 L 2.640625 -48.65625 L 15.296875 -48.65625 L 21.125 -39.609375 L 25.578125 -32.875 L 35.9375 -48.65625 L 48.515625 -48.65625 L 32.796875 -24.953125 L 49.34375 0 L 36.34375 0 L 29.671875 -10.28125 L 25.640625 -16.46875 L 21.546875 -10.28125 L 14.875 0 Z M 1.875 0 "/></g></g></g><g fill="#d9d9d9" fill-opacity="0.4"><g transform="translate(54.893047, 77.858523)"><g><path d="M 5.84375 0 L 5.84375 -48.65625 L 16.890625 -48.65625 L 16.890625 0 Z M 5.84375 0 "/></g></g></g><g fill="#d9d9d9" fill-opacity="0.4"><g transform="translate(77.614306, 77.858523)"><g><path d="M 5.84375 0 L 5.84375 -48.65625 L 37.8125 -48.65625 L 37.8125 -39.34375 L 16.8125 -39.34375 L 16.8125 -29.265625 L 35.9375 -29.265625 L 35.9375 -20.015625 L 16.8125 -20.015625 L 16.8125 -9.375 L 38.578125 -9.375 L 38.578125 0 Z M 5.84375 0 "/></g></g></g><g fill="#d9d9d9" fill-opacity="0.4"><g transform="translate(119.721603, 77.858523)"><g><path d="M 5.84375 0 L 5.84375 -48.65625 L 15.21875 -48.65625 L 36.703125 -19.046875 L 36.703125 -48.65625 L 47.671875 -48.65625 L 47.671875 0 L 38.296875 0 L 16.8125 -29.8125 L 16.8125 0 Z M 5.84375 0 "/></g></g></g><g fill="#d9d9d9" fill-opacity="0.4"><g transform="translate(173.224274, 77.858523)"><g><path d="M 17.515625 0 L 17.515625 -38.296875 L 2.078125 -38.296875 L 2.078125 -48.65625 L 44 -48.65625 L 44 -38.296875 L 28.5625 -38.296875 L 28.5625 0 Z M 17.515625 0 "/></g></g></g><g fill="#d9d9d9" fill-opacity="0.4"><g transform="translate(219.292162, 77.858523)"><g><path d="M 5.84375 0 L 5.84375 -48.65625 L 37.8125 -48.65625 L 37.8125 -39.34375 L 16.8125 -39.34375 L 16.8125 -29.265625 L 35.9375 -29.265625 L 35.9375 -20.015625 L 16.8125 -20.015625 L 16.8125 -9.375 L 38.578125 -9.375 L 38.578125 0 Z M 5.84375 0 "/></g></g></g><g fill="#d9d9d9" fill-opacity="0.4"><g transform="translate(260.98249, 77.858523)"><g><path d="M 28.140625 0.96875 C 23.234375 0.96875 18.878906 -0.101562 15.078125 -2.25 C 11.273438 -4.40625 8.304688 -7.382812 6.171875 -11.1875 C 4.046875 -14.988281 2.984375 -19.367188 2.984375 -24.328125 C 2.984375 -29.285156 4.046875 -33.660156 6.171875 -37.453125 C 8.304688 -41.253906 11.265625 -44.234375 15.046875 -46.390625 C 18.828125 -48.546875 23.171875 -49.625 28.078125 -49.625 C 32.203125 -49.625 35.976562 -48.832031 39.40625 -47.25 C 42.832031 -45.675781 45.710938 -43.453125 48.046875 -40.578125 C 50.390625 -37.710938 52.023438 -34.332031 52.953125 -30.4375 L 41.5625 -30.4375 C 40.632812 -33.125 38.988281 -35.242188 36.625 -36.796875 C 34.257812 -38.347656 31.523438 -39.125 28.421875 -39.125 C 25.691406 -39.125 23.25 -38.5 21.09375 -37.25 C 18.9375 -36 17.253906 -34.257812 16.046875 -32.03125 C 14.847656 -29.8125 14.25 -27.242188 14.25 -24.328125 C 14.25 -21.410156 14.847656 -18.835938 16.046875 -16.609375 C 17.253906 -14.390625 18.921875 -12.648438 21.046875 -11.390625 C 23.179688 -10.140625 25.617188 -9.515625 28.359375 -9.515625 C 31.554688 -9.515625 34.359375 -10.335938 36.765625 -11.984375 C 39.171875 -13.628906 40.882812 -15.84375 41.90625 -18.625 L 53.3125 -18.625 C 52.519531 -14.6875 50.941406 -11.242188 48.578125 -8.296875 C 46.210938 -5.359375 43.28125 -3.078125 39.78125 -1.453125 C 36.289062 0.160156 32.410156 0.96875 28.140625 0.96875 Z M 28.140625 0.96875 "/></g></g></g><g fill="#d9d9d9" fill-opacity="0.4"><g transform="translate(317.056069, 77.858523)"><g><path d="M 35.9375 0 L 35.9375 -19.59375 L 16.890625 -19.59375 L 16.890625 0 L 5.84375 0 L 5.84375 -48.65625 L 16.890625 -48.65625 L 16.890625 -29.953125 L 35.9375 -29.953125 L 35.9375 -48.65625 L 46.984375 -48.65625 L 46.984375 0 Z M 35.9375 0 "/></g></g></g><g fill="#ffffff" fill-opacity="1"><g transform="translate(0.611776, 74.786951)"><g><path d="M 1.875 0 L 18.421875 -24.875 L 2.640625 -48.65625 L 15.296875 -48.65625 L 21.125 -39.609375 L 25.578125 -32.875 L 35.9375 -48.65625 L 48.515625 -48.65625 L 32.796875 -24.953125 L 49.34375 0 L 36.34375 0 L 29.671875 -10.28125 L 25.640625 -16.46875 L 21.546875 -10.28125 L 14.875 0 Z M 1.875 0 "/></g></g></g><g fill="#ffffff" fill-opacity="1"><g transform="translate(51.821475, 74.786951)"><g><path d="M 5.84375 0 L 5.84375 -48.65625 L 16.890625 -48.65625 L 16.890625 0 Z M 5.84375 0 "/></g></g></g><g fill="#ffffff" fill-opacity="1"><g transform="translate(74.542734, 74.786951)"><g><path d="M 5.84375 0 L 5.84375 -48.65625 L 37.8125 -48.65625 L 37.8125 -39.34375 L 16.8125 -39.34375 L 16.8125 -29.265625 L 35.9375 -29.265625 L 35.9375 -20.015625 L 16.8125 -20.015625 L 16.8125 -9.375 L 38.578125 -9.375 L 38.578125 0 Z M 5.84375 0 "/></g></g></g><g fill="#ffffff" fill-opacity="1"><g transform="translate(116.65003, 74.786951)"><g><path d="M 5.84375 0 L 5.84375 -48.65625 L 15.21875 -48.65625 L 36.703125 -19.046875 L 36.703125 -48.65625 L 47.671875 -48.65625 L 47.671875 0 L 38.296875 0 L 16.8125 -29.8125 L 16.8125 0 Z M 5.84375 0 "/></g></g></g><g fill="#ffffff" fill-opacity="1"><g transform="translate(170.152702, 74.786951)"><g><path d="M 17.515625 0 L 17.515625 -38.296875 L 2.078125 -38.296875 L 2.078125 -48.65625 L 44 -48.65625 L 44 -38.296875 L 28.5625 -38.296875 L 28.5625 0 Z M 17.515625 0 "/></g></g></g><g fill="#ffffff" fill-opacity="1"><g transform="translate(216.220589, 74.786951)"><g><path d="M 5.84375 0 L 5.84375 -48.65625 L 37.8125 -48.65625 L 37.8125 -39.34375 L 16.8125 -39.34375 L 16.8125 -29.265625 L 35.9375 -29.265625 L 35.9375 -20.015625 L 16.8125 -20.015625 L 16.8125 -9.375 L 38.578125 -9.375 L 38.578125 0 Z M 5.84375 0 "/></g></g></g><g fill="#ffffff" fill-opacity="1"><g transform="translate(257.910918, 74.786951)"><g><path d="M 28.140625 0.96875 C 23.234375 0.96875 18.878906 -0.101562 15.078125 -2.25 C 11.273438 -4.40625 8.304688 -7.382812 6.171875 -11.1875 C 4.046875 -14.988281 2.984375 -19.367188 2.984375 -24.328125 C 2.984375 -29.285156 4.046875 -33.660156 6.171875 -37.453125 C 8.304688 -41.253906 11.265625 -44.234375 15.046875 -46.390625 C 18.828125 -48.546875 23.171875 -49.625 28.078125 -49.625 C 32.203125 -49.625 35.976562 -48.832031 39.40625 -47.25 C 42.832031 -45.675781 45.710938 -43.453125 48.046875 -40.578125 C 50.390625 -37.710938 52.023438 -34.332031 52.953125 -30.4375 L 41.5625 -30.4375 C 40.632812 -33.125 38.988281 -35.242188 36.625 -36.796875 C 34.257812 -38.347656 31.523438 -39.125 28.421875 -39.125 C 25.691406 -39.125 23.25 -38.5 21.09375 -37.25 C 18.9375 -36 17.253906 -34.257812 16.046875 -32.03125 C 14.847656 -29.8125 14.25 -27.242188 14.25 -24.328125 C 14.25 -21.410156 14.847656 -18.835938 16.046875 -16.609375 C 17.253906 -14.390625 18.921875 -12.648438 21.046875 -11.390625 C 23.179688 -10.140625 25.617188 -9.515625 28.359375 -9.515625 C 31.554688 -9.515625 34.359375 -10.335938 36.765625 -11.984375 C 39.171875 -13.628906 40.882812 -15.84375 41.90625 -18.625 L 53.3125 -18.625 C 52.519531 -14.6875 50.941406 -11.242188 48.578125 -8.296875 C 46.210938 -5.359375 43.28125 -3.078125 39.78125 -1.453125 C 36.289062 0.160156 32.410156 0.96875 28.140625 0.96875 Z M 28.140625 0.96875 "/></g></g></g><g fill="#ffffff" fill-opacity="1"><g transform="translate(313.984496, 74.786951)"><g><path d="M 35.9375 0 L 35.9375 -19.59375 L 16.890625 -19.59375 L 16.890625 0 L 5.84375 0 L 5.84375 -48.65625 L 16.890625 -48.65625 L 16.890625 -29.953125 L 35.9375 -29.953125 L 35.9375 -48.65625 L 46.984375 -48.65625 L 46.984375 0 Z M 35.9375 0 "/></g></g></g></g></g></svg>