<svg xmlns="http://www.w3.org/2000/svg" xmlns:xlink="http://www.w3.org/1999/xlink" width="700" zoomAndPan="magnify" viewBox="0 0 525 225" height="300" preserveAspectRatio="xMidYMid meet" version="1.0"><defs><clipPath id="fc4e025943"><path d="M 198.300781 143.851562 L 202.5 143.851562 L 202.5 145.910156 L 198.300781 145.910156 Z M 198.300781 143.851562 " clip-rule="nonzero"/></clipPath></defs><rect x="-52.5" width="630" fill="#ffffff" y="-22.5" height="270" fill-opacity="1"/><rect x="-52.5" width="630" fill="#ffffff" y="-22.5" height="270" fill-opacity="1"/><path fill="#288ec8" d="M 215.492188 134.015625 L 204.449219 134.015625 C 204.285156 134.015625 204.148438 133.878906 204.148438 133.710938 L 204.148438 126.25 C 204.148438 126.082031 204.285156 125.945312 204.449219 125.945312 L 217.660156 125.945312 C 217.859375 125.945312 218.007812 126.128906 217.964844 126.324219 C 217.417969 129.039062 216.691406 131.558594 215.78125 133.847656 C 215.734375 133.96875 215.613281 134.046875 215.492188 134.046875 Z M 215.492188 134.015625 " fill-opacity="1" fill-rule="nonzero"/><path fill="#288ec8" d="M 220.058594 125.929688 L 231.355469 125.929688 C 231.570312 125.929688 231.722656 126.144531 231.644531 126.355469 C 230.613281 129.070312 229.21875 131.617188 227.488281 133.894531 C 227.429688 133.96875 227.335938 134.015625 227.230469 134.015625 L 217.964844 134.015625 C 217.75 134.015625 217.601562 133.800781 217.675781 133.605469 C 218.523438 131.328125 219.222656 128.828125 219.738281 126.1875 C 219.769531 126.035156 219.890625 125.929688 220.042969 125.929688 Z M 220.058594 125.929688 " fill-opacity="1" fill-rule="nonzero"/><path fill="#2fa2e4" d="M 191.847656 135.789062 L 202.070312 135.789062 C 202.234375 135.789062 202.371094 135.925781 202.371094 136.09375 L 202.371094 141.871094 C 202.371094 142.039062 202.234375 142.175781 202.070312 142.175781 C 199.855469 142.175781 197.6875 142.203125 195.742188 142.203125 C 195.652344 142.203125 195.578125 142.175781 195.515625 142.113281 C 194.046875 140.550781 192.710938 138.566406 191.574219 136.214844 C 191.46875 136 191.617188 135.757812 191.863281 135.757812 Z M 191.847656 135.789062 " fill-opacity="1" fill-rule="nonzero"/><path fill="#288ec8" d="M 175.148438 125.929688 L 186.21875 125.929688 C 186.371094 125.929688 186.492188 126.035156 186.523438 126.1875 C 187.039062 128.84375 187.734375 131.328125 188.585938 133.605469 C 188.660156 133.800781 188.507812 134.015625 188.296875 134.015625 L 179.257812 134.015625 C 179.152344 134.015625 179.058594 133.96875 179 133.894531 C 177.269531 131.601562 175.875 129.070312 174.84375 126.355469 C 174.769531 126.160156 174.917969 125.929688 175.132812 125.929688 Z M 175.148438 125.929688 " fill-opacity="1" fill-rule="nonzero"/><path fill="#288ec8" d="M 188.628906 125.929688 L 202.070312 125.929688 C 202.234375 125.929688 202.371094 126.066406 202.371094 126.234375 L 202.371094 133.695312 C 202.371094 133.863281 202.234375 134 202.070312 134 L 190.800781 134 C 190.679688 134 190.558594 133.921875 190.511719 133.800781 C 189.617188 131.527344 188.875 128.996094 188.328125 126.28125 C 188.28125 126.082031 188.433594 125.898438 188.628906 125.898438 Z M 188.628906 125.929688 " fill-opacity="1" fill-rule="nonzero"/><path fill="#38b6ff" d="M 204.449219 143.949219 L 207.695312 143.949219 C 208.015625 143.949219 208.121094 144.359375 207.863281 144.527344 C 206.785156 145.164062 205.664062 145.585938 204.511719 145.785156 C 204.328125 145.816406 204.148438 145.664062 204.148438 145.480469 L 204.148438 144.28125 C 204.148438 144.117188 204.285156 143.980469 204.464844 143.980469 Z M 204.449219 143.949219 " fill-opacity="1" fill-rule="nonzero"/><g clip-path="url(#fc4e025943)"><path fill="#38b6ff" d="M 202.371094 144.269531 L 202.371094 145.496094 C 202.371094 145.679688 202.207031 145.828125 202.023438 145.816406 C 200.808594 145.648438 199.628906 145.222656 198.488281 144.554688 C 198.214844 144.40625 198.339844 143.980469 198.65625 143.980469 C 199.792969 143.980469 200.945312 143.980469 202.070312 143.964844 C 202.234375 143.964844 202.371094 144.101562 202.371094 144.269531 Z M 202.371094 144.269531 " fill-opacity="1" fill-rule="nonzero"/></g><path fill="#38b6ff" d="M 211.277344 144.011719 C 211.335938 143.949219 211.410156 143.917969 211.488281 143.917969 L 214.234375 143.917969 C 212.792969 144.480469 211.289062 144.933594 209.757812 145.269531 C 210.273438 144.890625 210.773438 144.464844 211.277344 143.996094 Z M 211.277344 144.011719 " fill-opacity="1" fill-rule="nonzero"/><path fill="#2fa2e4" d="M 210.609375 142.160156 C 208.925781 142.160156 206.890625 142.160156 204.449219 142.175781 C 204.285156 142.175781 204.132812 142.039062 204.132812 141.871094 L 204.132812 136.09375 C 204.132812 135.925781 204.269531 135.789062 204.433594 135.789062 L 214.429688 135.789062 C 214.65625 135.789062 214.808594 136.03125 214.71875 136.242188 C 213.597656 138.550781 212.292969 140.519531 210.835938 142.066406 C 210.773438 142.128906 210.699219 142.160156 210.609375 142.175781 Z M 210.609375 142.160156 " fill-opacity="1" fill-rule="nonzero"/><path fill="#2fa2e4" d="M 181.273438 135.789062 L 189.28125 135.789062 C 189.402344 135.789062 189.511719 135.863281 189.554688 135.972656 C 190.542969 138.15625 191.695312 140.113281 192.96875 141.75 C 193.121094 141.945312 192.984375 142.25 192.726562 142.25 C 190.90625 142.25 189.511719 142.28125 188.78125 142.28125 C 188.722656 142.28125 188.675781 142.28125 188.628906 142.234375 C 185.792969 140.671875 183.230469 138.65625 181.03125 136.304688 C 180.851562 136.109375 180.988281 135.773438 181.257812 135.773438 Z M 181.273438 135.789062 " fill-opacity="1" fill-rule="nonzero"/><path fill="#38b6ff" d="M 194.863281 143.996094 C 194.941406 143.996094 195.015625 144.023438 195.078125 144.085938 C 195.515625 144.496094 195.957031 144.875 196.410156 145.222656 C 195.0625 144.90625 193.742188 144.511719 192.46875 144.023438 C 193.257812 144.023438 194.0625 144.023438 194.863281 144.011719 Z M 194.863281 143.996094 " fill-opacity="1" fill-rule="nonzero"/><path fill="#2fa2e4" d="M 217.722656 142.265625 C 216.949219 142.203125 215.703125 142.175781 213.625 142.160156 C 213.367188 142.160156 213.230469 141.871094 213.382812 141.660156 C 214.628906 140.035156 215.75 138.109375 216.734375 135.972656 C 216.78125 135.863281 216.886719 135.789062 217.007812 135.789062 L 225.246094 135.789062 C 225.519531 135.789062 225.652344 136.109375 225.472656 136.320312 C 223.289062 138.671875 220.738281 140.671875 217.902344 142.234375 C 217.84375 142.265625 217.78125 142.28125 217.722656 142.28125 Z M 217.722656 142.265625 " fill-opacity="1" fill-rule="nonzero"/><path fill="#737373" d="M 202.070312 116.527344 L 187.628906 116.527344 C 187.449219 116.527344 187.3125 116.664062 187.3125 116.84375 C 187.355469 119.285156 187.570312 121.636719 187.902344 123.898438 C 187.902344 123.898438 187.917969 123.898438 187.917969 123.898438 C 187.933594 124.050781 188.070312 124.15625 188.222656 124.15625 L 202.070312 124.15625 C 202.234375 124.15625 202.371094 124.019531 202.371094 123.851562 L 202.371094 116.832031 C 202.371094 116.664062 202.234375 116.527344 202.070312 116.527344 Z M 202.070312 116.527344 " fill-opacity="1" fill-rule="nonzero"/><path fill="#737373" d="M 218.648438 116.527344 L 204.433594 116.527344 C 204.269531 116.527344 204.132812 116.664062 204.132812 116.832031 L 204.132812 123.851562 L 204.148438 123.851562 C 204.148438 124.019531 204.285156 124.15625 204.449219 124.15625 L 218.070312 124.15625 C 218.222656 124.15625 218.34375 124.050781 218.375 123.898438 C 218.707031 121.636719 218.90625 119.285156 218.964844 116.84375 C 218.964844 116.679688 218.828125 116.527344 218.648438 116.527344 Z M 218.648438 116.527344 " fill-opacity="1" fill-rule="nonzero"/><path fill="#737373" d="M 185.535156 116.832031 C 185.535156 116.664062 185.398438 116.527344 185.234375 116.527344 L 173.234375 116.527344 C 173.054688 116.527344 172.917969 116.664062 172.917969 116.84375 C 173.023438 119.285156 173.402344 121.667969 174.054688 123.929688 C 174.101562 124.066406 174.222656 124.15625 174.359375 124.15625 L 185.808594 124.15625 C 185.992188 124.15625 186.144531 123.988281 186.113281 123.808594 C 185.78125 121.578125 185.582031 119.242188 185.535156 116.832031 Z M 185.535156 116.832031 " fill-opacity="1" fill-rule="nonzero"/><path fill="#737373" d="M 233.269531 116.542969 L 221.042969 116.542969 C 220.875 116.542969 220.738281 116.679688 220.738281 116.84375 C 220.695312 119.242188 220.496094 121.578125 220.164062 123.820312 C 220.132812 124.003906 220.285156 124.171875 220.46875 124.171875 L 232.144531 124.171875 C 232.28125 124.171875 232.402344 124.078125 232.449219 123.945312 C 233.101562 121.683594 233.496094 119.300781 233.585938 116.859375 C 233.585938 116.695312 233.449219 116.542969 233.269531 116.542969 Z M 233.269531 116.542969 " fill-opacity="1" fill-rule="nonzero"/><path fill="#737373" d="M 206.566406 83.996094 C 206.910156 83.59375 208.246094 82.582031 208.417969 82.195312 C 208.539062 81.925781 208.433594 81.597656 208.527344 81.292969 C 208.804688 80.378906 210.378906 80.363281 210.585938 81.265625 C 210.859375 82.460938 210.089844 82.734375 209.089844 82.867188 L 204.828125 87.144531 C 204.578125 88.570312 204.960938 90.304688 204.773438 91.695312 C 204.753906 91.855469 204.746094 91.984375 204.605469 92.089844 L 200.871094 95.769531 L 194.773438 95.851562 L 191.121094 99.5 L 191.121094 106.800781 C 192.484375 107.707031 191.121094 109.703125 189.878906 108.605469 C 189.039062 107.867188 189.667969 107.292969 190.164062 106.628906 L 190.222656 99.050781 L 194.324219 94.953125 L 200.421875 94.871094 L 203.652344 91.695312 L 203.78125 86.882812 L 205.550781 84.945312 C 205.605469 84.667969 205.613281 82.285156 205.554688 82.050781 C 205.511719 81.875 204.769531 81.78125 205.015625 80.703125 C 205.371094 79.15625 207.996094 80.289062 206.90625 81.777344 C 206.707031 82.050781 206.566406 81.800781 206.566406 82.253906 Z M 206.566406 83.996094 " fill-opacity="1" fill-rule="nonzero"/><path fill="#737373" d="M 193.140625 114.753906 C 193.421875 114.753906 193.652344 114.523438 193.652344 114.242188 C 193.667969 109.792969 193.539062 105.316406 193.753906 100.898438 L 195.839844 98.9375 L 205.667969 98.882812 C 207.414062 97.105469 209.144531 95.3125 210.957031 93.609375 C 211.066406 93.503906 211.15625 93.253906 211.195312 93.230469 C 211.457031 93.085938 212.003906 93.351562 212.46875 92.875 C 212.84375 92.492188 212.847656 91.722656 212.484375 91.332031 C 212.082031 90.898438 211.324219 90.902344 210.886719 91.292969 C 210.46875 91.671875 210.6875 92.050781 210.609375 92.476562 C 210.515625 92.984375 208.609375 94.269531 208.3125 94.898438 L 205.191406 97.957031 L 195.390625 98.039062 L 192.742188 100.558594 C 192.492188 105.085938 192.710938 109.679688 192.628906 114.230469 C 192.625 114.515625 192.855469 114.753906 193.140625 114.753906 Z M 193.140625 114.753906 " fill-opacity="1" fill-rule="nonzero"/><path fill="#737373" d="M 195.675781 110.335938 L 195.652344 114.304688 C 195.652344 114.550781 195.851562 114.753906 196.097656 114.753906 L 196.117188 114.753906 C 196.363281 114.753906 196.5625 114.550781 196.5625 114.304688 L 196.558594 110.332031 C 196.554688 109.988281 196.878906 109.867188 197.039062 109.574219 C 197.503906 108.71875 196.796875 107.785156 195.867188 107.945312 C 195.1875 108.0625 194.824219 108.855469 195.078125 109.46875 C 195.214844 109.792969 195.695312 109.933594 195.675781 110.332031 Z M 195.675781 110.335938 " fill-opacity="1" fill-rule="nonzero"/><path fill="#737373" d="M 232.292969 107.195312 L 232.292969 114.308594 C 232.292969 114.554688 232.488281 114.753906 232.734375 114.753906 L 232.875 114.753906 C 233.121094 114.753906 233.316406 114.554688 233.320312 114.308594 L 233.359375 107.140625 C 235.3125 105.324219 231.5625 104.132812 231.722656 106.292969 C 231.761719 106.863281 232.238281 107.015625 232.289062 107.195312 Z M 232.292969 107.195312 " fill-opacity="1" fill-rule="nonzero"/><path fill="#737373" d="M 229.929688 110.117188 L 229.945312 114.308594 C 229.945312 114.554688 230.144531 114.753906 230.390625 114.753906 L 230.414062 114.753906 C 230.664062 114.753906 230.867188 114.542969 230.859375 114.292969 C 230.800781 112.496094 230.664062 110.183594 230.855469 109.859375 C 230.9375 109.71875 231.308594 109.710938 231.429688 109.132812 C 231.726562 107.769531 229.664062 107.277344 229.3125 108.597656 C 229.042969 109.59375 229.828125 109.597656 229.929688 110.117188 Z M 229.929688 110.117188 " fill-opacity="1" fill-rule="nonzero"/><path fill="#737373" d="M 220.046875 103.542969 L 218.476562 105.175781 C 218.621094 106.332031 218.269531 108.015625 218.476562 109.101562 C 218.570312 109.597656 219.488281 109.789062 219.007812 110.765625 C 218.46875 111.863281 216.886719 111.375 216.898438 110.226562 C 216.902344 109.632812 217.496094 109.507812 217.574219 109.101562 C 217.8125 107.855469 217.382812 105.957031 217.597656 104.632812 L 221.054688 101.015625 L 221.066406 89.664062 C 221.066406 89.257812 220.609375 89.148438 220.519531 88.746094 C 220.140625 87.074219 222.640625 86.859375 222.640625 88.433594 C 222.640625 89.121094 222.132812 89.15625 222.0625 89.664062 L 222.066406 101.351562 C 221.976562 101.835938 221.023438 102.199219 220.941406 102.808594 C 220.890625 103.167969 220.875 105.320312 220.941406 105.601562 C 220.984375 105.769531 221.664062 105.820312 221.5 106.851562 C 221.335938 107.917969 219.710938 107.984375 219.425781 106.917969 C 219.167969 105.957031 220.046875 105.660156 220.046875 105.507812 Z M 220.046875 103.542969 " fill-opacity="1" fill-rule="nonzero"/><path fill="#737373" d="M 187.855469 114.277344 L 187.828125 98.230469 L 192.863281 93.042969 C 193.066406 92.949219 194.136719 92.9375 194.378906 92.980469 C 194.644531 93.03125 194.617188 93.234375 194.695312 93.28125 C 196.820312 94.605469 197.355469 90.914062 195.078125 91.441406 C 194.652344 91.539062 194.617188 92.015625 194.261719 92.082031 C 193.757812 92.179688 192.851562 91.945312 192.414062 92.140625 L 186.929688 97.667969 L 186.914062 114.277344 C 186.914062 114.539062 187.125 114.75 187.386719 114.75 C 187.648438 114.75 187.859375 114.539062 187.859375 114.277344 Z M 187.855469 114.277344 " fill-opacity="1" fill-rule="nonzero"/><path fill="#737373" d="M 199.722656 114.753906 C 199.96875 114.753906 200.167969 114.550781 200.167969 114.304688 L 200.15625 108.761719 C 200.144531 108.378906 200.542969 108.269531 200.699219 107.957031 C 201.121094 107.105469 200.328125 106.179688 199.457031 106.375 C 199.050781 106.464844 198.613281 107.019531 198.597656 107.429688 C 198.566406 108.121094 199.199219 108.234375 199.269531 108.761719 L 199.273438 114.308594 C 199.273438 114.554688 199.476562 114.753906 199.722656 114.753906 Z M 199.722656 114.753906 " fill-opacity="1" fill-rule="nonzero"/><path fill="#737373" d="M 211.394531 112.65625 C 211.261719 112.566406 211.179688 112.417969 211.179688 112.261719 L 211.179688 107.734375 C 211.164062 107.550781 211.085938 107.378906 210.957031 107.246094 L 207.902344 104.15625 C 207.765625 104.015625 207.574219 103.9375 207.378906 103.9375 L 197.289062 103.886719 C 196.6875 103.804688 196.636719 103.03125 195.746094 103.226562 C 194.84375 103.425781 194.570312 104.765625 195.453125 105.273438 C 196.410156 105.824219 196.703125 104.847656 197.289062 104.773438 L 206.925781 104.835938 C 207.125 104.835938 207.3125 104.914062 207.453125 105.054688 L 209.921875 107.5625 C 210.058594 107.699219 210.140625 107.886719 210.148438 108.082031 L 210.234375 112.347656 C 210.238281 112.488281 210.179688 112.628906 210.070312 112.71875 C 209.761719 112.957031 209.585938 113.351562 209.648438 113.785156 C 209.71875 114.285156 210.140625 114.6875 210.644531 114.746094 C 211.332031 114.820312 211.914062 114.285156 211.914062 113.613281 C 211.914062 113.210938 211.703125 112.855469 211.390625 112.65625 Z M 211.394531 112.65625 " fill-opacity="1" fill-rule="nonzero"/><path fill="#737373" d="M 211.792969 105.445312 C 211.914062 105.511719 213.597656 107.195312 213.792969 107.453125 C 213.804688 107.46875 213.808594 107.484375 213.808594 107.503906 L 213.9375 112.574219 C 213.796875 113.203125 213.207031 113.171875 213.308594 114.035156 C 213.347656 114.359375 213.503906 114.597656 213.71875 114.753906 L 215.046875 114.753906 C 215.335938 114.535156 215.523438 114.15625 215.4375 113.605469 C 215.359375 113.117188 214.910156 113.042969 214.875 112.59375 L 214.882812 104.328125 C 214.882812 104.199219 214.925781 104.074219 215.003906 103.972656 C 215.3125 103.578125 216.101562 102.761719 216.230469 102.703125 C 216.628906 102.523438 217.023438 102.851562 217.523438 102.535156 C 218.648438 101.824219 217.722656 100.085938 216.480469 100.597656 C 215.828125 100.863281 215.929688 101.484375 215.667969 101.917969 C 215.476562 102.238281 214.429688 103.082031 214.023438 103.507812 C 213.925781 103.613281 213.867188 103.753906 213.867188 103.902344 L 213.867188 105.914062 C 213.867188 105.996094 213.773438 106.039062 213.714844 105.980469 L 212.46875 104.789062 C 212.835938 101.902344 209.035156 103.636719 210.664062 105.121094 C 211.070312 105.496094 211.570312 105.320312 211.792969 105.445312 Z M 211.792969 105.445312 " fill-opacity="1" fill-rule="nonzero"/><path fill="#737373" d="M 190.164062 113.371094 L 190.15625 114.296875 C 190.152344 114.546875 190.355469 114.753906 190.605469 114.753906 C 190.851562 114.753906 191.054688 114.554688 191.054688 114.304688 L 191.066406 113.375 C 191.128906 113.042969 191.714844 112.734375 191.726562 112.25 C 191.738281 111.691406 191.152344 111.070312 190.589844 111.09375 C 189.710938 111.128906 189.195312 112.089844 189.691406 112.835938 C 189.84375 113.070312 190.117188 113.117188 190.167969 113.371094 Z M 190.164062 113.371094 " fill-opacity="1" fill-rule="nonzero"/><path fill="#737373" d="M 226.699219 107.332031 L 226.683594 114.308594 C 226.683594 114.554688 226.882812 114.753906 227.128906 114.753906 C 227.375 114.753906 227.574219 114.554688 227.574219 114.3125 L 227.59375 107.78125 L 232.121094 103.207031 C 232.300781 102.8125 232.097656 102.132812 232.179688 101.695312 C 232.273438 101.203125 232.878906 101.167969 232.734375 100.238281 C 232.644531 99.6875 231.988281 99.3125 231.476562 99.410156 C 230.714844 99.554688 230.386719 100.355469 230.6875 101.046875 C 230.820312 101.347656 231.195312 101.410156 231.261719 101.597656 C 231.328125 101.796875 231.308594 102.5625 231.21875 102.757812 L 226.695312 107.332031 Z M 226.699219 107.332031 " fill-opacity="1" fill-rule="nonzero"/><path fill="#737373" d="M 189.214844 86.984375 C 189.191406 87.019531 188.996094 87.035156 189.03125 87.195312 L 189.015625 92.679688 L 185.277344 96.46875 L 185.21875 100.320312 C 185.902344 100.640625 186.019531 101.65625 185.441406 102.136719 C 184.191406 103.167969 182.785156 101.15625 184.210938 100.320312 L 184.230469 96.210938 L 188.003906 92.34375 L 188.03125 87.308594 C 187.976562 87.039062 187.464844 86.886719 187.375 86.382812 C 187.15625 85.109375 188.921875 84.5625 189.464844 85.652344 C 189.773438 86.273438 189.484375 86.488281 189.214844 86.984375 Z M 189.214844 86.984375 " fill-opacity="1" fill-rule="nonzero"/><path fill="#737373" d="M 196.265625 102.050781 C 195.546875 101.238281 196.34375 99.898438 197.4375 100.257812 C 197.847656 100.394531 198.003906 100.824219 198.417969 100.855469 L 206.714844 100.824219 L 210.847656 96.75 C 210.804688 96.09375 210.957031 95.398438 211.707031 95.257812 C 212.859375 95.035156 213.554688 96.390625 212.691406 97.144531 C 212.273438 97.511719 211.859375 97.238281 211.445312 97.472656 L 207.160156 101.726562 L 198.414062 101.742188 C 197.894531 101.8125 197.769531 102.4375 197.070312 102.425781 C 196.855469 102.421875 196.394531 102.195312 196.265625 102.050781 Z M 196.265625 102.050781 " fill-opacity="1" fill-rule="nonzero"/><path fill="#737373" d="M 224.566406 93.457031 L 224.535156 106.300781 C 224.609375 106.859375 225.253906 106.917969 225.222656 107.640625 C 225.15625 109.078125 223.027344 109.015625 223.003906 107.625 C 222.992188 106.933594 223.621094 106.734375 223.648438 106.523438 L 223.582031 93.433594 C 222.316406 92.667969 223.300781 90.816406 224.691406 91.535156 C 225.421875 91.914062 225.367188 93.183594 224.5625 93.457031 Z M 224.566406 93.457031 " fill-opacity="1" fill-rule="nonzero"/><path fill="#737373" d="M 172.648438 109.550781 L 172.648438 114.253906 C 172.648438 114.527344 172.867188 114.753906 173.144531 114.753906 C 173.417969 114.753906 173.640625 114.527344 173.640625 114.253906 L 173.640625 109.660156 C 173.574219 109.367188 173.878906 109.332031 173.945312 109.234375 C 175.148438 107.402344 172.230469 106.601562 172.074219 108.316406 C 171.992188 109.214844 172.605469 109.257812 172.648438 109.550781 Z M 172.648438 109.550781 " fill-opacity="1" fill-rule="nonzero"/><path fill="#737373" d="M 175.695312 114.136719 C 175.859375 114.296875 176.023438 114.457031 176.1875 114.621094 C 176.273438 114.703125 176.390625 114.753906 176.507812 114.753906 C 176.914062 114.753906 177.121094 114.261719 176.835938 113.972656 L 176.742188 113.878906 C 176.648438 113.667969 176.628906 111.75 176.683594 111.464844 C 176.746094 111.15625 177.097656 111.039062 177.195312 110.738281 C 177.726562 109.085938 175.171875 108.699219 175.101562 110.226562 C 175.0625 111.027344 175.589844 111.046875 175.671875 111.464844 C 175.816406 112.226562 175.546875 113.332031 175.695312 114.136719 Z M 175.695312 114.136719 " fill-opacity="1" fill-rule="nonzero"/><path fill="#737373" d="M 206.75 93.957031 C 206.421875 94.296875 205.539062 94.910156 205.324219 95.28125 C 205.074219 95.71875 205.253906 96.421875 204.550781 96.640625 C 203.421875 96.992188 202.550781 95.835938 203.253906 94.898438 C 203.722656 94.269531 204.445312 94.734375 204.714844 94.566406 C 204.886719 94.460938 207 92.347656 207.066406 92.195312 L 207.175781 87.8125 C 207.316406 87.355469 208.285156 86.796875 208.421875 86.46875 C 208.523438 86.21875 208.242188 85.964844 208.636719 85.453125 C 209.746094 84.015625 211.570312 86.257812 210.039062 87.078125 C 209.648438 87.289062 209.304688 87.074219 209.042969 87.199219 C 208.984375 87.222656 208.222656 87.988281 208.195312 88.046875 C 207.855469 88.800781 208.351562 91.488281 208.113281 92.457031 C 207.644531 92.9375 207.210938 93.476562 206.75 93.957031 Z M 206.75 93.957031 " fill-opacity="1" fill-rule="nonzero"/><path fill="#737373" d="M 193.164062 81.773438 C 193.777344 81.632812 194.339844 81.90625 194.496094 82.53125 C 194.5625 82.792969 194.496094 83.089844 194.605469 83.324219 C 194.710938 83.570312 195.339844 83.910156 195.421875 84.191406 L 195.421875 88.300781 C 195.375 88.453125 193.339844 90.503906 193.195312 90.566406 C 192.839844 90.730469 192.402344 90.542969 192.039062 90.648438 C 191.835938 90.710938 191.679688 91.039062 191.429688 91.164062 C 190.324219 91.714844 189.167969 90.175781 190.273438 89.332031 C 191.417969 88.449219 191.691406 90.003906 192.667969 89.703125 C 193.011719 89.601562 194.160156 88.167969 194.523438 87.851562 C 194.59375 87.617188 194.59375 84.875 194.523438 84.640625 C 194.492188 84.539062 193.960938 83.984375 193.871094 83.941406 C 193.519531 83.785156 193.144531 84 192.75 83.714844 C 192.046875 83.203125 192.339844 81.960938 193.164062 81.773438 Z M 193.164062 81.773438 " fill-opacity="1" fill-rule="nonzero"/><path fill="#737373" d="M 200.859375 83.121094 L 200.835938 91.128906 C 200.789062 91.480469 200.226562 91.714844 200.101562 91.976562 C 199.957031 92.292969 200.25 92.605469 199.886719 93.105469 C 199.164062 94.097656 197.566406 93.371094 197.964844 92.078125 C 198.273438 91.09375 199.785156 91.746094 199.945312 90.574219 C 200.230469 88.441406 199.714844 85.6875 199.945312 83.484375 C 199.859375 82.855469 198.671875 82.484375 199.550781 81.417969 C 200.582031 80.167969 202.445312 82.292969 200.859375 83.121094 Z M 200.859375 83.121094 " fill-opacity="1" fill-rule="nonzero"/><path fill="#737373" d="M 182.042969 89.410156 C 183.621094 89.066406 184.027344 91.429688 182.441406 91.613281 C 182.238281 91.636719 182.070312 91.484375 181.855469 91.574219 C 181.6875 91.648438 181.019531 92.40625 180.972656 92.617188 L 180.949219 98.546875 C 181.019531 98.925781 181.945312 99.15625 181.539062 100.144531 C 181.046875 101.339844 179.042969 100.835938 179.539062 99.269531 C 179.644531 98.941406 180.078125 98.816406 180.058594 98.441406 L 180.054688 92.144531 C 180.136719 91.714844 181.074219 91.199219 181.230469 90.851562 C 181.425781 90.40625 181.179688 89.601562 182.042969 89.414062 Z M 182.042969 89.410156 " fill-opacity="1" fill-rule="nonzero"/><path fill="#737373" d="M 226.761719 96.039062 C 226.734375 95.992188 226.503906 95.9375 226.394531 95.792969 C 225.503906 94.621094 227.25 93.285156 228.117188 94.40625 C 228.914062 95.425781 227.785156 95.792969 227.6875 96.300781 C 227.597656 96.769531 227.59375 101.730469 227.742188 101.972656 C 227.804688 102.066406 228.023438 102.132812 228.160156 102.339844 C 229.175781 103.871094 226.476562 104.746094 226.230469 103.261719 C 226.066406 102.238281 226.519531 102.433594 226.726562 101.972656 C 226.851562 101.703125 226.914062 96.296875 226.761719 96.042969 Z M 226.761719 96.039062 " fill-opacity="1" fill-rule="nonzero"/><path fill="#737373" d="M 180.65625 110.097656 C 181.648438 109.160156 182.636719 108.21875 183.597656 107.246094 C 183.453125 106.363281 183.828125 105.601562 184.824219 105.671875 C 185.675781 105.730469 186.042969 106.742188 185.558594 107.421875 C 185.167969 107.96875 184.683594 107.679688 184.257812 107.917969 C 184.035156 108.042969 180.824219 111.265625 180.664062 111.515625 C 180.363281 111.976562 180.65625 112.484375 180.109375 112.871094 C 178.59375 113.953125 177.496094 111.113281 179.351562 110.867188 C 179.570312 110.835938 179.773438 110.972656 179.9375 110.90625 C 180.160156 110.816406 180.476562 110.265625 180.65625 110.101562 Z M 180.65625 110.097656 " fill-opacity="1" fill-rule="nonzero"/><path fill="#737373" d="M 197.984375 88.980469 C 199.199219 90.832031 196.351562 91.558594 196.121094 90 C 196 89.179688 196.4375 89.226562 196.621094 88.824219 C 196.722656 88.605469 196.753906 84.34375 196.675781 83.941406 C 196.59375 83.5 195.992188 83.472656 196.121094 82.601562 C 196.328125 81.210938 198.761719 81.46875 198.203125 83.214844 C 198.113281 83.484375 197.824219 83.605469 197.746094 83.773438 C 197.644531 83.996094 197.613281 88.25 197.6875 88.660156 C 197.734375 88.917969 197.925781 88.894531 197.984375 88.980469 Z M 197.984375 88.980469 " fill-opacity="1" fill-rule="nonzero"/><path fill="#737373" d="M 215.738281 91.484375 C 214.976562 92.265625 213.453125 91.433594 213.953125 90.203125 C 214.269531 89.433594 214.992188 89.753906 215.4375 89.554688 C 215.492188 89.53125 216.253906 88.769531 216.28125 88.710938 C 216.480469 88.273438 216.222656 87.46875 216.363281 86.996094 C 216.449219 86.703125 217.152344 86.300781 217.289062 86.011719 C 217.417969 85.738281 217.355469 85.324219 217.609375 85.042969 C 218.457031 84.101562 220 85.109375 219.394531 86.324219 C 218.867188 87.386719 217.769531 86.390625 217.410156 87.257812 C 217.210938 87.726562 217.46875 88.492188 217.328125 88.972656 C 217.226562 89.308594 216.222656 89.949219 216.054688 90.292969 C 215.921875 90.574219 216.179688 91.03125 215.738281 91.484375 Z M 215.738281 91.484375 " fill-opacity="1" fill-rule="nonzero"/><path fill="#737373" d="M 186.03125 89.636719 C 185.832031 89.972656 186.191406 91.777344 185.949219 92.308594 C 185.804688 92.628906 184.855469 93.234375 184.71875 93.546875 C 184.539062 93.953125 184.828125 94.359375 184.382812 94.78125 C 182.949219 96.136719 181.570312 93.351562 183.3125 92.917969 C 183.597656 92.847656 183.816406 92.996094 183.984375 92.929688 C 184.058594 92.902344 184.945312 91.984375 184.972656 91.894531 L 185.0625 89.777344 C 182.898438 87.714844 186.851562 86.675781 186.660156 88.742188 C 186.597656 89.390625 186.136719 89.460938 186.03125 89.636719 Z M 186.03125 89.636719 " fill-opacity="1" fill-rule="nonzero"/><path fill="#737373" d="M 182.15625 103.003906 C 183.503906 102.703125 184.117188 104.632812 182.777344 105.097656 C 182.5 105.195312 182.304688 105.097656 182.160156 105.140625 C 182.003906 105.1875 179.917969 107.246094 179.824219 107.410156 C 179.566406 107.855469 179.84375 108.347656 179.261719 108.761719 C 178.269531 109.472656 177.019531 108.355469 177.644531 107.367188 C 178.179688 106.519531 178.828125 106.980469 179.101562 106.8125 C 179.261719 106.710938 181.292969 104.699219 181.351562 104.550781 C 181.421875 104.375 181.28125 104.222656 181.300781 104.058594 C 181.347656 103.628906 181.726562 103.097656 182.160156 103.003906 Z M 182.15625 103.003906 " fill-opacity="1" fill-rule="nonzero"/><path fill="#737373" d="M 218.945312 94.917969 C 218.886719 95.019531 218.882812 97.078125 218.925781 97.308594 C 218.984375 97.617188 219.339844 97.734375 219.433594 98.035156 C 219.953125 99.683594 217.554688 100.015625 217.355469 98.648438 C 217.226562 97.773438 217.824219 97.753906 217.910156 97.308594 C 217.980469 96.945312 217.96875 95.457031 217.921875 95.058594 C 217.890625 94.8125 217.519531 94.820312 217.398438 94.449219 C 216.808594 92.589844 219.789062 92.28125 219.476562 94.269531 C 219.394531 94.808594 219.023438 94.785156 218.945312 94.917969 Z M 218.945312 94.917969 " fill-opacity="1" fill-rule="nonzero"/><path fill="#737373" d="M 179.566406 103.730469 C 179.011719 104.269531 177.972656 104.070312 177.742188 103.328125 C 177.664062 103.0625 177.742188 102.78125 177.636719 102.535156 C 177.597656 102.445312 176.378906 101.226562 176.296875 101.179688 C 175.871094 100.941406 175.355469 101.234375 174.949219 100.730469 C 174.21875 99.828125 175.199219 98.453125 176.386719 99.066406 C 177.101562 99.433594 176.765625 100.058594 176.964844 100.511719 C 177 100.589844 178.117188 101.710938 178.195312 101.753906 C 178.648438 102.011719 179.078125 101.667969 179.554688 102.191406 C 179.921875 102.601562 179.976562 103.332031 179.566406 103.730469 Z M 179.566406 103.730469 " fill-opacity="1" fill-rule="nonzero"/><path fill="#737373" d="M 216.082031 97.851562 C 217.09375 98.746094 215.867188 100.398438 214.710938 99.613281 C 213.421875 98.734375 214.976562 96.875 216.082031 97.851562 Z M 216.082031 97.851562 " fill-opacity="1" fill-rule="nonzero"/><path fill="#737373" d="M 211.253906 100.191406 C 212.636719 99.964844 213.035156 102.269531 211.554688 102.417969 C 210.117188 102.5625 209.878906 100.421875 211.253906 100.191406 Z M 211.253906 100.191406 " fill-opacity="1" fill-rule="nonzero"/><path fill="#737373" d="M 175.417969 104.015625 C 177.074219 103.648438 177.273438 106.28125 175.65625 106.179688 C 174.289062 106.089844 174.289062 104.265625 175.417969 104.015625 Z M 175.417969 104.015625 " fill-opacity="1" fill-rule="nonzero"/><path fill="#737373" d="M 211.316406 88.90625 C 210.199219 87.863281 211.941406 86.210938 212.917969 87.359375 C 213.832031 88.433594 212.308594 89.824219 211.316406 88.90625 Z M 211.316406 88.90625 " fill-opacity="1" fill-rule="nonzero"/><path fill="#737373" d="M 212.335938 83.585938 C 213.433594 82.507812 214.988281 84.238281 213.875 85.183594 C 212.714844 86.167969 211.421875 84.476562 212.335938 83.585938 Z M 212.335938 83.585938 " fill-opacity="1" fill-rule="nonzero"/><path fill="#737373" d="M 215.070312 94.46875 C 216.917969 94.046875 216.929688 97.058594 214.960938 96.550781 C 214.019531 96.308594 214.078125 94.691406 215.070312 94.46875 Z M 215.070312 94.46875 " fill-opacity="1" fill-rule="nonzero"/><path fill="#737373" d="M 191.703125 85.257812 C 193.742188 84.789062 193.417969 87.878906 191.617188 87.316406 C 190.683594 87.023438 190.734375 85.476562 191.703125 85.257812 Z M 191.703125 85.257812 " fill-opacity="1" fill-rule="nonzero"/><path fill="#737373" d="M 202.71875 83.121094 C 204.261719 82.851562 204.5 85.195312 203 85.320312 C 201.726562 85.429688 201.386719 83.351562 202.71875 83.121094 Z M 202.71875 83.121094 " fill-opacity="1" fill-rule="nonzero"/><path fill="#737373" d="M 176.386719 96.058594 C 177.3125 95.128906 178.980469 96.496094 177.980469 97.59375 C 176.964844 98.710938 175.40625 97.039062 176.386719 96.058594 Z M 176.386719 96.058594 " fill-opacity="1" fill-rule="nonzero"/><path fill="#737373" d="M 181.355469 114.300781 C 180.816406 113.75 181.015625 112.707031 181.761719 112.476562 C 182.023438 112.398438 182.308594 112.476562 182.550781 112.371094 C 182.640625 112.332031 183.859375 111.113281 183.90625 111.03125 C 184.144531 110.605469 183.851562 110.089844 184.355469 109.683594 C 185.257812 108.953125 186.632812 109.933594 186.019531 111.121094 C 185.652344 111.835938 185.027344 111.5 184.578125 111.699219 C 184.496094 111.734375 183.375 112.851562 183.332031 112.929688 C 183.074219 113.382812 183.417969 113.8125 182.894531 114.289062 C 182.488281 114.65625 181.753906 114.710938 181.355469 114.300781 Z M 181.355469 114.300781 " fill-opacity="1" fill-rule="nonzero"/><path fill="#737373" d="M 219.988281 113.566406 C 220.324219 113.367188 222.128906 113.722656 222.660156 113.484375 C 222.976562 113.335938 223.582031 112.390625 223.898438 112.25 C 224.300781 112.074219 224.710938 112.359375 225.132812 111.914062 C 226.488281 110.484375 223.703125 109.101562 223.269531 110.84375 C 223.195312 111.132812 223.347656 111.351562 223.28125 111.515625 C 223.25 111.59375 222.332031 112.480469 222.246094 112.507812 L 220.128906 112.597656 C 218.0625 110.433594 217.023438 114.386719 219.09375 114.191406 C 219.742188 114.132812 219.808594 113.671875 219.984375 113.566406 Z M 219.988281 113.566406 " fill-opacity="1" fill-rule="nonzero"/><path fill="#737373" d="M 203.15625 114.742188 C 203.402344 114.742188 203.597656 114.542969 203.597656 114.296875 L 203.59375 111.101562 C 203.578125 110.71875 203.980469 110.609375 204.132812 110.296875 C 204.554688 109.445312 203.765625 108.523438 202.894531 108.714844 C 202.488281 108.804688 202.050781 109.359375 202.035156 109.769531 C 202.003906 110.460938 202.636719 110.578125 202.707031 111.101562 L 202.710938 114.300781 C 202.710938 114.546875 202.90625 114.746094 203.152344 114.746094 Z M 203.15625 114.742188 " fill-opacity="1" fill-rule="nonzero"/><path fill="#737373" d="M 206.835938 114.742188 C 207.082031 114.742188 207.28125 114.542969 207.28125 114.296875 L 207.277344 112.441406 C 207.265625 112.058594 207.664062 111.949219 207.820312 111.636719 C 208.242188 110.785156 207.449219 109.863281 206.578125 110.054688 C 206.171875 110.144531 205.738281 110.699219 205.71875 111.109375 C 205.6875 111.800781 206.320312 111.917969 206.390625 112.445312 L 206.390625 114.300781 C 206.394531 114.546875 206.59375 114.746094 206.835938 114.746094 Z M 206.835938 114.742188 " fill-opacity="1" fill-rule="nonzero"/><path fill="#d9d9d9" d="M 237.277344 115.753906 L 242.417969 108.019531 L 237.515625 100.632812 L 241.449219 100.632812 L 243.261719 103.441406 L 244.640625 105.535156 L 247.863281 100.632812 L 251.773438 100.632812 L 246.890625 107.996094 L 252.03125 115.753906 L 247.992188 115.753906 L 245.917969 112.554688 L 244.664062 110.632812 L 243.390625 112.554688 L 241.316406 115.753906 Z M 237.277344 115.753906 " fill-opacity="0.4" fill-rule="nonzero"/><path fill="#d9d9d9" d="M 254.425781 100.632812 L 257.859375 100.632812 L 257.859375 115.753906 L 254.425781 115.753906 Z M 254.425781 100.632812 " fill-opacity="0.4" fill-rule="nonzero"/><path fill="#d9d9d9" d="M 261.492188 115.753906 L 261.492188 100.632812 L 271.429688 100.632812 L 271.429688 103.527344 L 264.902344 103.527344 L 264.902344 106.660156 L 270.84375 106.660156 L 270.84375 109.53125 L 264.902344 109.53125 L 264.902344 112.835938 L 271.664062 112.835938 L 271.664062 115.753906 Z M 261.492188 115.753906 " fill-opacity="0.4" fill-rule="nonzero"/><path fill="#d9d9d9" d="M 274.582031 115.753906 L 274.582031 100.632812 L 277.496094 100.632812 L 284.171875 109.835938 L 284.171875 100.632812 L 287.582031 100.632812 L 287.582031 115.753906 L 284.667969 115.753906 L 277.992188 106.484375 L 277.992188 115.753906 Z M 274.582031 115.753906 " fill-opacity="0.4" fill-rule="nonzero"/><path fill="#d9d9d9" d="M 294.839844 115.753906 L 294.839844 103.851562 L 290.046875 103.851562 L 290.046875 100.632812 L 303.070312 100.632812 L 303.070312 103.851562 L 298.277344 103.851562 L 298.277344 115.753906 Z M 294.839844 115.753906 " fill-opacity="0.4" fill-rule="nonzero"/><path fill="#d9d9d9" d="M 305.53125 115.753906 L 305.53125 100.632812 L 315.46875 100.632812 L 315.46875 103.527344 L 308.945312 103.527344 L 308.945312 106.660156 L 314.886719 106.660156 L 314.886719 109.53125 L 308.945312 109.53125 L 308.945312 112.835938 L 315.707031 112.835938 L 315.707031 115.753906 Z M 305.53125 115.753906 " fill-opacity="0.4" fill-rule="nonzero"/><path fill="#d9d9d9" d="M 325.425781 116.054688 C 323.902344 116.054688 322.546875 115.71875 321.367188 115.050781 C 320.183594 114.382812 319.261719 113.457031 318.601562 112.277344 C 317.9375 111.09375 317.605469 109.734375 317.605469 108.191406 C 317.605469 106.652344 317.9375 105.289062 318.601562 104.109375 C 319.261719 102.929688 320.179688 102.003906 321.355469 101.335938 C 322.527344 100.664062 323.878906 100.332031 325.40625 100.332031 C 326.6875 100.332031 327.859375 100.574219 328.925781 101.0625 C 329.992188 101.554688 330.886719 102.246094 331.613281 103.136719 C 332.339844 104.03125 332.851562 105.082031 333.140625 106.289062 L 329.59375 106.289062 C 329.308594 105.457031 328.796875 104.796875 328.0625 104.316406 C 327.328125 103.832031 326.476562 103.589844 325.511719 103.589844 C 324.664062 103.589844 323.90625 103.785156 323.234375 104.175781 C 322.566406 104.5625 322.042969 105.105469 321.667969 105.796875 C 321.292969 106.488281 321.105469 107.285156 321.105469 108.191406 C 321.105469 109.097656 321.292969 109.898438 321.667969 110.589844 C 322.042969 111.28125 322.5625 111.820312 323.222656 112.210938 C 323.886719 112.597656 324.640625 112.792969 325.492188 112.792969 C 326.484375 112.792969 327.355469 112.535156 328.105469 112.027344 C 328.851562 111.515625 329.386719 110.828125 329.703125 109.964844 L 333.246094 109.964844 C 333 111.1875 332.511719 112.257812 331.777344 113.171875 C 331.042969 114.085938 330.132812 114.796875 329.042969 115.300781 C 327.957031 115.800781 326.75 116.054688 325.425781 116.054688 Z M 325.425781 116.054688 " fill-opacity="0.4" fill-rule="nonzero"/><path fill="#d9d9d9" d="M 345.277344 115.753906 L 345.277344 109.660156 L 339.359375 109.660156 L 339.359375 115.753906 L 335.925781 115.753906 L 335.925781 100.632812 L 339.359375 100.632812 L 339.359375 106.441406 L 345.277344 106.441406 L 345.277344 100.632812 L 348.710938 100.632812 L 348.710938 115.753906 Z M 345.277344 115.753906 " fill-opacity="0.4" fill-rule="nonzero"/><path fill="#737373" d="M 236.324219 114.796875 L 241.464844 107.066406 L 236.558594 99.679688 L 240.492188 99.679688 L 242.308594 102.484375 L 243.6875 104.582031 L 246.90625 99.679688 L 250.816406 99.679688 L 245.933594 107.042969 L 251.074219 114.796875 L 247.035156 114.796875 L 244.960938 111.601562 L 243.710938 109.679688 L 242.4375 111.601562 L 240.363281 114.796875 Z M 236.324219 114.796875 " fill-opacity="1" fill-rule="nonzero"/><path fill="#737373" d="M 253.472656 99.679688 L 256.90625 99.679688 L 256.90625 114.796875 L 253.472656 114.796875 Z M 253.472656 99.679688 " fill-opacity="1" fill-rule="nonzero"/><path fill="#737373" d="M 260.535156 114.796875 L 260.535156 99.679688 L 270.472656 99.679688 L 270.472656 102.574219 L 263.949219 102.574219 L 263.949219 105.703125 L 269.890625 105.703125 L 269.890625 108.578125 L 263.949219 108.578125 L 263.949219 111.882812 L 270.710938 111.882812 L 270.710938 114.796875 Z M 260.535156 114.796875 " fill-opacity="1" fill-rule="nonzero"/><path fill="#737373" d="M 273.625 114.796875 L 273.625 99.679688 L 276.542969 99.679688 L 283.214844 108.878906 L 283.214844 99.679688 L 286.628906 99.679688 L 286.628906 114.796875 L 283.714844 114.796875 L 277.039062 105.53125 L 277.039062 114.796875 Z M 273.625 114.796875 " fill-opacity="1" fill-rule="nonzero"/><path fill="#737373" d="M 293.886719 114.796875 L 293.886719 102.894531 L 289.089844 102.894531 L 289.089844 99.679688 L 302.117188 99.679688 L 302.117188 102.894531 L 297.320312 102.894531 L 297.320312 114.796875 Z M 293.886719 114.796875 " fill-opacity="1" fill-rule="nonzero"/><path fill="#737373" d="M 304.578125 114.796875 L 304.578125 99.679688 L 314.515625 99.679688 L 314.515625 102.574219 L 307.992188 102.574219 L 307.992188 105.703125 L 313.933594 105.703125 L 313.933594 108.578125 L 307.992188 108.578125 L 307.992188 111.882812 L 314.753906 111.882812 L 314.753906 114.796875 Z M 304.578125 114.796875 " fill-opacity="1" fill-rule="nonzero"/><path fill="#737373" d="M 324.472656 115.101562 C 322.945312 115.101562 321.59375 114.765625 320.410156 114.097656 C 319.230469 113.425781 318.308594 112.503906 317.644531 111.320312 C 316.984375 110.140625 316.652344 108.777344 316.652344 107.238281 C 316.652344 105.695312 316.984375 104.335938 317.644531 103.15625 C 318.308594 101.976562 319.226562 101.050781 320.398438 100.382812 C 321.574219 99.710938 322.921875 99.375 324.449219 99.375 C 325.730469 99.375 326.90625 99.621094 327.96875 100.109375 C 329.035156 100.597656 329.933594 101.289062 330.660156 102.183594 C 331.386719 103.074219 331.894531 104.125 332.183594 105.335938 L 328.640625 105.335938 C 328.351562 104.5 327.84375 103.84375 327.109375 103.359375 C 326.375 102.878906 325.523438 102.636719 324.558594 102.636719 C 323.710938 102.636719 322.949219 102.832031 322.28125 103.21875 C 321.609375 103.609375 321.089844 104.148438 320.714844 104.839844 C 320.339844 105.53125 320.152344 106.332031 320.152344 107.238281 C 320.152344 108.144531 320.339844 108.945312 320.714844 109.636719 C 321.089844 110.328125 321.605469 110.867188 322.269531 111.257812 C 322.929688 111.644531 323.6875 111.835938 324.535156 111.835938 C 325.53125 111.835938 326.402344 111.582031 327.148438 111.070312 C 327.898438 110.558594 328.429688 109.871094 328.75 109.007812 L 332.292969 109.007812 C 332.046875 110.230469 331.558594 111.300781 330.824219 112.21875 C 330.089844 113.132812 329.175781 113.839844 328.089844 114.34375 C 327.003906 114.847656 325.796875 115.101562 324.472656 115.101562 Z M 324.472656 115.101562 " fill-opacity="1" fill-rule="nonzero"/><path fill="#737373" d="M 344.324219 114.796875 L 344.324219 108.707031 L 338.402344 108.707031 L 338.402344 114.796875 L 334.96875 114.796875 L 334.96875 99.679688 L 338.402344 99.679688 L 338.402344 105.488281 L 344.324219 105.488281 L 344.324219 99.679688 L 347.757812 99.679688 L 347.757812 114.796875 Z M 344.324219 114.796875 " fill-opacity="1" fill-rule="nonzero"/><path fill="#a6a6a6" d="M 237.292969 128.503906 C 236.8125 128.503906 236.382812 128.398438 236.011719 128.1875 C 235.636719 127.980469 235.34375 127.691406 235.132812 127.320312 C 234.921875 126.953125 234.816406 126.527344 234.816406 126.046875 C 234.816406 125.566406 234.921875 125.140625 235.128906 124.769531 C 235.339844 124.402344 235.628906 124.113281 236 123.902344 C 236.371094 123.695312 236.796875 123.589844 237.273438 123.589844 C 237.65625 123.589844 238.007812 123.65625 238.332031 123.792969 C 238.65625 123.925781 238.933594 124.117188 239.160156 124.359375 C 239.386719 124.605469 239.546875 124.894531 239.640625 125.230469 L 238.488281 125.230469 C 238.375 125.023438 238.214844 124.863281 238.007812 124.746094 C 237.796875 124.632812 237.558594 124.574219 237.292969 124.574219 C 237.019531 124.574219 236.773438 124.636719 236.5625 124.765625 C 236.351562 124.890625 236.1875 125.0625 236.066406 125.285156 C 235.949219 125.503906 235.890625 125.757812 235.890625 126.046875 C 235.890625 126.328125 235.949219 126.582031 236.066406 126.804688 C 236.183594 127.023438 236.347656 127.199219 236.558594 127.324219 C 236.769531 127.453125 237.019531 127.519531 237.308594 127.519531 C 237.652344 127.519531 237.941406 127.429688 238.171875 127.253906 C 238.398438 127.078125 238.546875 126.847656 238.617188 126.558594 L 237.085938 126.558594 L 237.085938 125.730469 L 239.75 125.730469 C 239.777344 126.132812 239.734375 126.503906 239.628906 126.84375 C 239.523438 127.179688 239.363281 127.472656 239.144531 127.722656 C 238.925781 127.972656 238.664062 128.167969 238.347656 128.300781 C 238.035156 128.433594 237.683594 128.503906 237.292969 128.503906 Z M 237.292969 128.503906 " fill-opacity="1" fill-rule="nonzero"/><path fill="#a6a6a6" d="M 240.601562 128.410156 L 240.601562 123.683594 L 241.675781 123.683594 L 241.675781 127.402344 L 243.738281 127.402344 L 243.738281 128.410156 Z M 240.601562 128.410156 " fill-opacity="1" fill-rule="nonzero"/><path fill="#a6a6a6" d="M 246.453125 128.503906 C 245.960938 128.503906 245.527344 128.398438 245.144531 128.1875 C 244.765625 127.980469 244.46875 127.691406 244.253906 127.320312 C 244.042969 126.953125 243.933594 126.527344 243.933594 126.046875 C 243.933594 125.566406 244.042969 125.140625 244.253906 124.769531 C 244.46875 124.402344 244.765625 124.113281 245.144531 123.902344 C 245.527344 123.695312 245.960938 123.589844 246.453125 123.589844 C 246.949219 123.589844 247.382812 123.695312 247.761719 123.902344 C 248.140625 124.113281 248.4375 124.402344 248.652344 124.769531 C 248.867188 125.140625 248.976562 125.566406 248.976562 126.046875 C 248.976562 126.527344 248.867188 126.953125 248.652344 127.320312 C 248.4375 127.691406 248.140625 127.980469 247.761719 128.1875 C 247.382812 128.398438 246.949219 128.503906 246.453125 128.503906 Z M 245.027344 126.046875 C 245.027344 126.328125 245.089844 126.578125 245.210938 126.796875 C 245.332031 127.011719 245.5 127.179688 245.714844 127.300781 C 245.929688 127.421875 246.175781 127.484375 246.453125 127.484375 C 246.738281 127.484375 246.984375 127.421875 247.199219 127.300781 C 247.410156 127.179688 247.578125 127.011719 247.695312 126.796875 C 247.816406 126.578125 247.878906 126.328125 247.878906 126.046875 C 247.878906 125.761719 247.816406 125.515625 247.695312 125.296875 C 247.578125 125.082031 247.410156 124.914062 247.199219 124.792969 C 246.984375 124.671875 246.738281 124.609375 246.453125 124.609375 C 246.175781 124.609375 245.929688 124.671875 245.714844 124.792969 C 245.5 124.914062 245.332031 125.082031 245.210938 125.296875 C 245.089844 125.515625 245.027344 125.761719 245.027344 126.046875 Z M 245.027344 126.046875 " fill-opacity="1" fill-rule="nonzero"/><path fill="#a6a6a6" d="M 249.835938 128.410156 L 249.835938 123.683594 L 251.945312 123.683594 C 252.429688 123.683594 252.8125 123.796875 253.09375 124.027344 C 253.378906 124.257812 253.519531 124.566406 253.519531 124.953125 C 253.519531 125.171875 253.46875 125.375 253.371094 125.554688 C 253.273438 125.734375 253.132812 125.875 252.953125 125.976562 C 253.175781 126.078125 253.351562 126.226562 253.472656 126.417969 C 253.597656 126.609375 253.660156 126.832031 253.660156 127.085938 C 253.660156 127.351562 253.59375 127.582031 253.457031 127.78125 C 253.324219 127.980469 253.136719 128.132812 252.894531 128.246094 C 252.65625 128.355469 252.375 128.410156 252.054688 128.410156 Z M 250.894531 127.558594 L 251.890625 127.558594 C 252.105469 127.558594 252.269531 127.507812 252.382812 127.410156 C 252.5 127.308594 252.558594 127.171875 252.558594 126.992188 C 252.558594 126.8125 252.5 126.671875 252.382812 126.574219 C 252.269531 126.472656 252.105469 126.421875 251.890625 126.421875 L 250.894531 126.421875 Z M 250.894531 125.609375 L 251.785156 125.609375 C 251.992188 125.609375 252.152344 125.5625 252.261719 125.46875 C 252.371094 125.371094 252.425781 125.238281 252.425781 125.066406 C 252.425781 124.894531 252.371094 124.765625 252.261719 124.671875 C 252.152344 124.582031 251.992188 124.535156 251.785156 124.535156 L 250.894531 124.535156 Z M 250.894531 125.609375 " fill-opacity="1" fill-rule="nonzero"/><path fill="#a6a6a6" d="M 253.898438 128.410156 L 255.777344 123.683594 L 256.828125 123.683594 L 258.703125 128.410156 L 257.558594 128.410156 L 257.242188 127.59375 L 255.363281 127.59375 L 255.046875 128.410156 Z M 255.640625 126.75 L 256.96875 126.75 L 256.300781 125.019531 Z M 255.640625 126.75 " fill-opacity="1" fill-rule="nonzero"/><path fill="#a6a6a6" d="M 259.332031 128.410156 L 259.332031 123.683594 L 260.40625 123.683594 L 260.40625 127.402344 L 262.46875 127.402344 L 262.46875 128.410156 Z M 259.332031 128.410156 " fill-opacity="1" fill-rule="nonzero"/><path fill="#a6a6a6" d="M 264.664062 128.410156 L 264.664062 123.683594 L 265.738281 123.683594 L 265.738281 127.402344 L 267.804688 127.402344 L 267.804688 128.410156 Z M 264.664062 128.410156 " fill-opacity="1" fill-rule="nonzero"/><path fill="#a6a6a6" d="M 270.515625 128.503906 C 270.023438 128.503906 269.589844 128.398438 269.207031 128.1875 C 268.828125 127.980469 268.53125 127.691406 268.316406 127.320312 C 268.105469 126.953125 268 126.527344 268 126.046875 C 268 125.566406 268.105469 125.140625 268.316406 124.769531 C 268.53125 124.402344 268.828125 124.113281 269.207031 123.902344 C 269.589844 123.695312 270.023438 123.589844 270.515625 123.589844 C 271.011719 123.589844 271.449219 123.695312 271.828125 123.902344 C 272.203125 124.113281 272.5 124.402344 272.71875 124.769531 C 272.933594 125.140625 273.039062 125.566406 273.039062 126.046875 C 273.039062 126.527344 272.933594 126.953125 272.71875 127.320312 C 272.5 127.691406 272.203125 127.980469 271.828125 128.1875 C 271.449219 128.398438 271.011719 128.503906 270.515625 128.503906 Z M 269.089844 126.046875 C 269.089844 126.328125 269.152344 126.578125 269.273438 126.796875 C 269.394531 127.011719 269.5625 127.179688 269.777344 127.300781 C 269.992188 127.421875 270.238281 127.484375 270.515625 127.484375 C 270.800781 127.484375 271.050781 127.421875 271.261719 127.300781 C 271.476562 127.179688 271.640625 127.011719 271.761719 126.796875 C 271.882812 126.578125 271.941406 126.328125 271.941406 126.046875 C 271.941406 125.761719 271.882812 125.515625 271.761719 125.296875 C 271.640625 125.082031 271.476562 124.914062 271.261719 124.792969 C 271.050781 124.671875 270.800781 124.609375 270.515625 124.609375 C 270.238281 124.609375 269.992188 124.671875 269.777344 124.792969 C 269.5625 124.914062 269.394531 125.082031 269.273438 125.296875 C 269.152344 125.515625 269.089844 125.761719 269.089844 126.046875 Z M 269.089844 126.046875 " fill-opacity="1" fill-rule="nonzero"/><path fill="#a6a6a6" d="M 276.097656 128.503906 C 275.617188 128.503906 275.191406 128.398438 274.816406 128.1875 C 274.445312 127.980469 274.152344 127.691406 273.9375 127.320312 C 273.726562 126.953125 273.621094 126.527344 273.621094 126.046875 C 273.621094 125.566406 273.726562 125.140625 273.9375 124.769531 C 274.144531 124.402344 274.433594 124.113281 274.804688 123.902344 C 275.175781 123.695312 275.601562 123.589844 276.078125 123.589844 C 276.460938 123.589844 276.8125 123.65625 277.136719 123.792969 C 277.460938 123.925781 277.738281 124.117188 277.964844 124.359375 C 278.191406 124.605469 278.355469 124.894531 278.449219 125.230469 L 277.292969 125.230469 C 277.183594 125.023438 277.019531 124.863281 276.8125 124.746094 C 276.601562 124.632812 276.363281 124.574219 276.097656 124.574219 C 275.824219 124.574219 275.582031 124.636719 275.367188 124.765625 C 275.15625 124.890625 274.992188 125.0625 274.875 125.285156 C 274.753906 125.503906 274.695312 125.757812 274.695312 126.046875 C 274.695312 126.328125 274.753906 126.582031 274.871094 126.804688 C 274.988281 127.023438 275.152344 127.199219 275.363281 127.324219 C 275.574219 127.453125 275.824219 127.519531 276.113281 127.519531 C 276.457031 127.519531 276.746094 127.429688 276.976562 127.253906 C 277.207031 127.078125 277.355469 126.847656 277.421875 126.558594 L 275.890625 126.558594 L 275.890625 125.730469 L 278.554688 125.730469 C 278.582031 126.132812 278.542969 126.503906 278.4375 126.84375 C 278.332031 127.179688 278.167969 127.472656 277.949219 127.722656 C 277.734375 127.972656 277.46875 128.167969 277.152344 128.300781 C 276.839844 128.433594 276.488281 128.503906 276.097656 128.503906 Z M 276.097656 128.503906 " fill-opacity="1" fill-rule="nonzero"/><path fill="#a6a6a6" d="M 279.40625 123.683594 L 280.480469 123.683594 L 280.480469 128.410156 L 279.40625 128.410156 Z M 279.40625 123.683594 " fill-opacity="1" fill-rule="nonzero"/><path fill="#a6a6a6" d="M 283.78125 128.503906 C 283.300781 128.503906 282.878906 128.398438 282.511719 128.1875 C 282.140625 127.980469 281.855469 127.691406 281.648438 127.320312 C 281.441406 126.953125 281.335938 126.527344 281.335938 126.046875 C 281.335938 125.566406 281.441406 125.140625 281.648438 124.769531 C 281.855469 124.402344 282.140625 124.113281 282.507812 123.902344 C 282.875 123.695312 283.296875 123.589844 283.773438 123.589844 C 284.175781 123.589844 284.542969 123.667969 284.875 123.820312 C 285.207031 123.972656 285.484375 124.1875 285.714844 124.46875 C 285.941406 124.746094 286.101562 125.074219 286.191406 125.453125 L 285.082031 125.453125 C 284.992188 125.191406 284.835938 124.988281 284.605469 124.835938 C 284.375 124.683594 284.109375 124.609375 283.808594 124.609375 C 283.542969 124.609375 283.304688 124.671875 283.09375 124.792969 C 282.886719 124.914062 282.722656 125.082031 282.605469 125.296875 C 282.488281 125.515625 282.429688 125.761719 282.429688 126.046875 C 282.429688 126.328125 282.488281 126.578125 282.605469 126.796875 C 282.722656 127.011719 282.882812 127.179688 283.089844 127.300781 C 283.296875 127.421875 283.535156 127.484375 283.800781 127.484375 C 284.109375 127.484375 284.382812 127.402344 284.617188 127.242188 C 284.851562 127.085938 285.015625 126.871094 285.117188 126.597656 L 286.222656 126.597656 C 286.148438 126.980469 285.996094 127.316406 285.765625 127.601562 C 285.535156 127.886719 285.25 128.109375 284.910156 128.269531 C 284.570312 128.421875 284.191406 128.503906 283.78125 128.503906 Z M 283.78125 128.503906 " fill-opacity="1" fill-rule="nonzero"/><path fill="#a6a6a6" d="M 287.15625 128.484375 C 286.972656 128.484375 286.820312 128.425781 286.703125 128.3125 C 286.585938 128.195312 286.527344 128.050781 286.527344 127.875 C 286.527344 127.699219 286.585938 127.554688 286.703125 127.4375 C 286.820312 127.320312 286.972656 127.261719 287.15625 127.261719 C 287.339844 127.261719 287.492188 127.320312 287.609375 127.4375 C 287.726562 127.554688 287.785156 127.699219 287.785156 127.875 C 287.785156 128.050781 287.726562 128.195312 287.609375 128.3125 C 287.492188 128.425781 287.339844 128.484375 287.15625 128.484375 Z M 287.15625 128.484375 " fill-opacity="1" fill-rule="nonzero"/><path fill="#a6a6a6" d="M 293.128906 128.410156 L 293.128906 126.503906 L 291.28125 126.503906 L 291.28125 128.410156 L 290.207031 128.410156 L 290.207031 123.683594 L 291.28125 123.683594 L 291.28125 125.5 L 293.128906 125.5 L 293.128906 123.683594 L 294.203125 123.683594 L 294.203125 128.410156 Z M 293.128906 128.410156 " fill-opacity="1" fill-rule="nonzero"/><path fill="#a6a6a6" d="M 297.269531 128.503906 C 296.859375 128.503906 296.507812 128.421875 296.210938 128.257812 C 295.914062 128.09375 295.6875 127.859375 295.527344 127.554688 C 295.371094 127.25 295.289062 126.886719 295.289062 126.464844 L 295.289062 123.683594 L 296.363281 123.683594 L 296.363281 126.390625 C 296.363281 127.117188 296.664062 127.484375 297.269531 127.484375 C 297.871094 127.484375 298.171875 127.117188 298.171875 126.390625 L 298.171875 123.683594 L 299.242188 123.683594 L 299.242188 126.464844 C 299.242188 126.886719 299.164062 127.25 299.003906 127.554688 C 298.84375 127.859375 298.617188 128.09375 298.324219 128.257812 C 298.027344 128.421875 297.675781 128.503906 297.269531 128.503906 Z M 297.269531 128.503906 " fill-opacity="1" fill-rule="nonzero"/><path fill="#a6a6a6" d="M 300.332031 128.410156 L 300.332031 123.683594 L 301.242188 123.683594 L 302.921875 126.132812 L 304.597656 123.683594 L 305.5 123.683594 L 305.5 128.410156 L 304.433594 128.410156 L 304.433594 125.566406 L 303.285156 127.242188 L 302.546875 127.242188 L 301.398438 125.5625 L 301.398438 128.410156 Z M 300.332031 128.410156 " fill-opacity="1" fill-rule="nonzero"/><path fill="#a6a6a6" d="M 306.128906 128.410156 L 308.007812 123.683594 L 309.058594 123.683594 L 310.933594 128.410156 L 309.789062 128.410156 L 309.472656 127.59375 L 307.59375 127.59375 L 307.277344 128.410156 Z M 307.871094 126.75 L 309.199219 126.75 L 308.53125 125.019531 Z M 307.871094 126.75 " fill-opacity="1" fill-rule="nonzero"/><path fill="#a6a6a6" d="M 311.5625 128.410156 L 311.5625 123.683594 L 312.476562 123.683594 L 314.5625 126.558594 L 314.5625 123.683594 L 315.628906 123.683594 L 315.628906 128.410156 L 314.714844 128.410156 L 312.628906 125.511719 L 312.628906 128.410156 Z M 311.5625 128.410156 " fill-opacity="1" fill-rule="nonzero"/><path fill="#a6a6a6" d="M 320.34375 128.503906 C 319.867188 128.503906 319.445312 128.398438 319.074219 128.1875 C 318.707031 127.980469 318.417969 127.691406 318.210938 127.320312 C 318.003906 126.953125 317.902344 126.527344 317.902344 126.046875 C 317.902344 125.566406 318.003906 125.140625 318.210938 124.769531 C 318.417969 124.402344 318.707031 124.113281 319.070312 123.902344 C 319.4375 123.695312 319.859375 123.589844 320.339844 123.589844 C 320.738281 123.589844 321.105469 123.667969 321.4375 123.820312 C 321.769531 123.972656 322.050781 124.1875 322.277344 124.46875 C 322.503906 124.746094 322.664062 125.074219 322.753906 125.453125 L 321.648438 125.453125 C 321.558594 125.191406 321.398438 124.988281 321.167969 124.835938 C 320.9375 124.683594 320.671875 124.609375 320.371094 124.609375 C 320.105469 124.609375 319.867188 124.671875 319.660156 124.792969 C 319.449219 124.914062 319.285156 125.082031 319.167969 125.296875 C 319.050781 125.515625 318.992188 125.761719 318.992188 126.046875 C 318.992188 126.328125 319.050781 126.578125 319.167969 126.796875 C 319.285156 127.011719 319.449219 127.179688 319.65625 127.300781 C 319.863281 127.421875 320.097656 127.484375 320.363281 127.484375 C 320.675781 127.484375 320.949219 127.402344 321.179688 127.242188 C 321.414062 127.085938 321.582031 126.871094 321.683594 126.597656 L 322.789062 126.597656 C 322.710938 126.980469 322.558594 127.316406 322.328125 127.601562 C 322.097656 127.886719 321.8125 128.109375 321.472656 128.269531 C 321.132812 128.421875 320.757812 128.503906 320.34375 128.503906 Z M 320.34375 128.503906 " fill-opacity="1" fill-rule="nonzero"/><path fill="#a6a6a6" d="M 323.625 128.410156 L 323.625 123.683594 L 326.730469 123.683594 L 326.730469 124.589844 L 324.691406 124.589844 L 324.691406 125.566406 L 326.546875 125.566406 L 326.546875 126.464844 L 324.691406 126.464844 L 324.691406 127.496094 L 326.804688 127.496094 L 326.804688 128.410156 Z M 323.625 128.410156 " fill-opacity="1" fill-rule="nonzero"/><path fill="#a6a6a6" d="M 327.714844 128.410156 L 327.714844 123.683594 L 328.628906 123.683594 L 330.714844 126.558594 L 330.714844 123.683594 L 331.78125 123.683594 L 331.78125 128.410156 L 330.867188 128.410156 L 328.78125 125.511719 L 328.78125 128.410156 Z M 327.714844 128.410156 " fill-opacity="1" fill-rule="nonzero"/><path fill="#a6a6a6" d="M 334.046875 128.410156 L 334.046875 124.6875 L 332.546875 124.6875 L 332.546875 123.683594 L 336.617188 123.683594 L 336.617188 124.6875 L 335.121094 124.6875 L 335.121094 128.410156 Z M 334.046875 128.410156 " fill-opacity="1" fill-rule="nonzero"/><path fill="#a6a6a6" d="M 337.390625 128.410156 L 337.390625 123.683594 L 339.40625 123.683594 C 339.765625 123.683594 340.078125 123.75 340.34375 123.878906 C 340.609375 124.011719 340.8125 124.195312 340.957031 124.441406 C 341.105469 124.683594 341.175781 124.972656 341.175781 125.308594 C 341.175781 125.65625 341.097656 125.957031 340.941406 126.207031 C 340.78125 126.457031 340.5625 126.644531 340.277344 126.769531 L 341.257812 128.410156 L 340.015625 128.410156 L 339.171875 126.9375 L 338.460938 126.9375 L 338.460938 128.410156 Z M 338.449219 126.03125 L 339.265625 126.03125 C 339.53125 126.03125 339.734375 125.96875 339.875 125.847656 C 340.015625 125.722656 340.089844 125.546875 340.089844 125.316406 C 340.089844 125.085938 340.015625 124.910156 339.875 124.789062 C 339.734375 124.664062 339.53125 124.601562 339.265625 124.601562 L 338.449219 124.601562 Z M 338.449219 126.03125 " fill-opacity="1" fill-rule="nonzero"/><path fill="#a6a6a6" d="M 342.140625 123.683594 L 343.214844 123.683594 L 343.214844 128.410156 L 342.140625 128.410156 Z M 342.140625 123.683594 " fill-opacity="1" fill-rule="nonzero"/><path fill="#a6a6a6" d="M 346.515625 128.503906 C 346.035156 128.503906 345.613281 128.398438 345.246094 128.1875 C 344.875 127.980469 344.589844 127.691406 344.382812 127.320312 C 344.175781 126.953125 344.070312 126.527344 344.070312 126.046875 C 344.070312 125.566406 344.175781 125.140625 344.382812 124.769531 C 344.589844 124.402344 344.875 124.113281 345.242188 123.902344 C 345.609375 123.695312 346.03125 123.589844 346.507812 123.589844 C 346.910156 123.589844 347.277344 123.667969 347.609375 123.820312 C 347.941406 123.972656 348.21875 124.1875 348.449219 124.46875 C 348.675781 124.746094 348.835938 125.074219 348.925781 125.453125 L 347.816406 125.453125 C 347.726562 125.191406 347.570312 124.988281 347.339844 124.835938 C 347.109375 124.683594 346.84375 124.609375 346.542969 124.609375 C 346.277344 124.609375 346.039062 124.671875 345.828125 124.792969 C 345.621094 124.914062 345.457031 125.082031 345.339844 125.296875 C 345.222656 125.515625 345.164062 125.761719 345.164062 126.046875 C 345.164062 126.328125 345.222656 126.578125 345.339844 126.796875 C 345.457031 127.011719 345.617188 127.179688 345.824219 127.300781 C 346.03125 127.421875 346.269531 127.484375 346.535156 127.484375 C 346.84375 127.484375 347.117188 127.402344 347.351562 127.242188 C 347.585938 127.085938 347.75 126.871094 347.851562 126.597656 L 348.957031 126.597656 C 348.882812 126.980469 348.730469 127.316406 348.5 127.601562 C 348.269531 127.886719 347.984375 128.109375 347.644531 128.269531 C 347.304688 128.421875 346.925781 128.503906 346.515625 128.503906 Z M 346.515625 128.503906 " fill-opacity="1" fill-rule="nonzero"/><path fill="#a6a6a6" d="M 349.890625 128.484375 C 349.707031 128.484375 349.554688 128.425781 349.4375 128.3125 C 349.320312 128.195312 349.261719 128.050781 349.261719 127.875 C 349.261719 127.699219 349.320312 127.554688 349.4375 127.4375 C 349.554688 127.320312 349.707031 127.261719 349.890625 127.261719 C 350.074219 127.261719 350.226562 127.320312 350.34375 127.4375 C 350.460938 127.554688 350.519531 127.699219 350.519531 127.875 C 350.519531 128.050781 350.460938 128.195312 350.34375 128.3125 C 350.226562 128.425781 350.074219 128.484375 349.890625 128.484375 Z M 349.890625 128.484375 " fill-opacity="1" fill-rule="nonzero"/></svg>